<svg xmlns="http://www.w3.org/2000/svg" width="82" height="126" viewBox="0 0 82 126">
    <g id="Layer_x0020_1" transform="translate(0.307 -0.279)">
        <g id="_1686280424688" transform="translate(-0.307 0.279)">
            <path id="Path_1986" data-name="Path 1986" d="M80.851,88.541c-.049-.262-.09-.532-.131-.794-.139-.916-.622-3.592.475-4.091-.025-.057-.049-.115-.074-.164-.385-.851-1.1-2.7-.254-3.478.016-.016.041-.033.057-.049a5.343,5.343,0,0,1-.835-.974c-.556-.867-1.162-2.307-.466-3.257a1.618,1.618,0,0,1,1.1-.63c-.286-.327-.548-.671-.777-.974-.573-.761-1.62-2.275-1.056-3.257.008-.016.016-.025.025-.041a10.693,10.693,0,0,1-3.3-1.44c-.548-.409-1.26-1.17-.941-1.915a.984.984,0,0,1,.131-.221,2.21,2.21,0,0,1-.27-.18A4.155,4.155,0,0,1,72.8,64.158l-.09-.605A24.646,24.646,0,0,1,70.3,61.588l-.745-.7.99-.254a8.407,8.407,0,0,1,4.852.646,7.068,7.068,0,0,1,1.972,1.268,1.422,1.422,0,0,1,1.08-.966c.843-.106,1.506.7,1.857,1.358a5.737,5.737,0,0,1,.581,1.7c.1-.074.18-.147.254-.2l.4-.335.36.385a14.145,14.145,0,0,1,2.749,5.032,7.632,7.632,0,0,1,.311,2.144,1.528,1.528,0,0,1,.45.147c1.047.54,1.219,1.988,1.1,3.289a1.3,1.3,0,0,1,.4-.016c1.276.164,1.686,2.013,1.726,3.24a3.482,3.482,0,0,1,1.988,2.324,6.666,6.666,0,0,1,.213,3.379.834.834,0,0,1,.565.581c.745,1.939-.761,3.633-1.064,5.376,1.039.7-.18,3.445-.6,4.173a5.751,5.751,0,0,1-.475.72,7.965,7.965,0,0,1-.605,4.394,5.963,5.963,0,0,1-2.152,2.717c.646,4-1.726,7.119-4.288,9.933-2.316,2.553-5.7,4.091-8.943,5.13-2.119,3.175-7.348,4.386-10.923,4.639l-.245.016-1.6-1.571-1.751-1.931.008-.008c-.344-.36-.7-.736-.851-.892a.764.764,0,0,0-.393-.237l-.229.9-.884-1.006.049-.27a.852.852,0,0,0-.573-1.023l-.646-.245.376-.581a8.282,8.282,0,0,1,6.2-3.829,36.433,36.433,0,0,1,2.6-2.667c1.514-1.4,3.846-3.289,5.965-3.658,2.16-1.915,4.353-4.067,5.081-6.947A1.845,1.845,0,0,1,77.5,96.527a5.93,5.93,0,0,1-.008-.851c.041-.925.327-2.757,1.44-2.995a1.418,1.418,0,0,1,.262-.025l-.074-.491a17,17,0,0,1-.172-2.234c0-.524.016-1.424.646-1.587a1.746,1.746,0,0,1,1.252.2Z" transform="translate(-9.611 -11.225)" fill="#2b2a29" fill-rule="evenodd"/>
            <path id="Path_1987" data-name="Path 1987" d="M76.218,98.026a1.387,1.387,0,0,1,2.234-.417c-.605-1.792.2-5.711,1.726-3.69-.409-1.816-.679-4.77-.229-4.893,1.178-.311,1.964,1.522,2.144,2.095-.123-.712-2.127-8.96.458-6.374-1.317-1.972-2.831-6.153,1.293-3.2-.475-.327-.884-.818-1.3-1.137a6.719,6.719,0,0,1-1.808-1.6C79.6,77.038,79.7,75.2,82.314,75.893c-.81-.712-5.04-5.359-1.424-4.983-.769-.237-3.518-.9-4.77-1.841-1.416-1.064-1.1-2.242,2.422-.876-.728-.434-2.5-.9-3.518-1.448a3.126,3.126,0,0,1-1.506-2.553c.761.164,1.808.3,1.808.3A19,19,0,0,1,70.85,61.3c1.71-.434,5.458.311,6.963,2.545.646-3.608,3.134-.491,2.774,2.749.041-.458.826-1.669,1.08-1.587.679.728,3.24,4.263,2.88,7.372,1.546-.352,2.013,1.89,1.3,4.394,1.195-2.307,2.553-.2,2.406,2.16,1.686.049,3.06,2.741,1.98,5.916,1.146-.393,1.326.638,1.039,1.816-.36,1.506-1.391,3.347-1.317,3.919.859-.376.319,2.61-1.113,4.32.565,1.653-.327,5.736-2.766,6.939.859,4.075-1.645,7.176-4.075,9.852-1.375,1.514-3.813,3.437-8.886,5.032-1.874,3.036-6.922,4.3-10.6,4.558L61.1,119.906l-1.375-1.522c.859.884-1.1-1.195-1.2-1.309a1.279,1.279,0,0,0-1.285-.393h0v.008h0v.033h0v.008h0v.008h0v.008h0v.008h0v.008h0v.016h0v.016h0v.008h0v.008h0v.008h0v.016h0v.016h0v.008h0v.008h0v.008h0v.016h0l-.008-.008a1.394,1.394,0,0,0-.925-1.645,7.793,7.793,0,0,1,5.867-3.584,6.467,6.467,0,0,0-1.555,2.929,18.049,18.049,0,0,1,1.988-3.142c2.152-2.627,5.629-5.785,8.256-6.145,1.833-1.571,4.517-3.977,5.351-7.274Z" transform="translate(-9.805 -11.35)" fill="#d7b56d" fill-rule="evenodd"/>
            <path id="Path_1988" data-name="Path 1988" d="M80.275,71.555c-1.056-.352,2-.671,3.649,1.751a1.8,1.8,0,0,1,1.3-.646c.565.164-.221.221-.524.475a2.221,2.221,0,0,0-.605,2.733,2.535,2.535,0,0,1-.393-2.2C83.442,72.6,80.725,71.31,80.275,71.555Zm-12.56,42.393a.157.157,0,0,1,.3.082c-.532,1.98-5.589,4.975-7.045,5.179,1.391-.565,6.292-3.568,6.742-5.261ZM84.964,106.6a16.775,16.775,0,0,1-5.793,5.572.156.156,0,1,1-.155-.27A19.559,19.559,0,0,0,84.964,106.6Zm-6.71-8.861.54-.213c.966,1.268.565,4.067-.245,5.769.835-.155,1.244.074,1.366.532.36,1.375-2.463,5.114-3.428,6.39a.586.586,0,0,1-.319.172c.008.008.025.016.033.025a.163.163,0,0,1,0,.221c-.1.1-.188.106-.262.025-.1-.106.049-.3.3-.63.941-1.244,3.7-4.893,3.379-6.12-.327-.8-1.563.016-2,.434.7-.655,2.438-5.679.638-6.6Zm9.107,4.41c.025-.008-.025.237-.565.466a6.96,6.96,0,0,0-1.964.974,6.372,6.372,0,0,0-1.776,3.445c-.041.172.221-1.154-.344-1.5a.492.492,0,0,0-.475.016,2.426,2.426,0,0,0-.679.5,6.591,6.591,0,0,0-1.923,3.535c.057-1.047-.262-1.268-.45-1.244-.761.09-2.168,2.373-2.406,2.757l-.008.008-.025.041a.154.154,0,0,1-.262-.164l.016-.033.008-.008c.245-.409,1.726-2.807,2.643-2.9a.545.545,0,0,1,.581.344,7.409,7.409,0,0,1,1.612-2.545,2.786,2.786,0,0,1,.769-.565.8.8,0,0,1,.769.008.908.908,0,0,1,.335.409,5.923,5.923,0,0,1,.974-1.939,6.651,6.651,0,0,1,3.167-1.6Zm-20.89,9.426c-.655,2.152-3.216,4.181-6.53,6.464-.106.074-.565.409-.712.188C59.205,118.194,65.768,112.958,66.471,111.575ZM89.938,82.323c.614,1.694-.892,7.38-3.06,10.212C87.926,91.225,90.266,84.426,89.938,82.323ZM88.883,94.94c-1.285.712-1.6,1.375-2.373,3.036-1,2.119-2.406,5.122-5.973,6.8a16.79,16.79,0,0,0,5.687-6.93c.753-1.587,1.6-3.15,2.659-2.9Zm-18.7,21.61a.159.159,0,0,1,.286.139c-.008.016-.025.041-.033.057l-.008.008c-.908,1.17-5.2,3.8-8.231,4.7,1.4-1.015,6.636-3.191,7.986-4.893v-.016Zm12.9-25.873c2.316,1.669-2.209,7.045-3.191,8.485C80.905,97.2,84.333,93.124,83.09,90.677Zm-7-26.347c-.524.188,4.942,4.4,6.088,5.826C81.4,68.388,76.02,64.592,76.086,64.33Zm6.808,11.161c2.16,1.366,3.117,7.356,2.7,10.146C85.544,83.9,84.947,78.526,82.893,75.491Zm5.842,4.083a.157.157,0,0,1,.278.147l-.008.008v.008a3.991,3.991,0,0,0-.221.5,4.214,4.214,0,0,0-.164.573,5.006,5.006,0,0,0-.025,2.062,11.166,11.166,0,0,0,.573,1.874c-.483-.933-1.317-1.236-1.776-.09a6.2,6.2,0,0,0-.278,2.07l.025,2.168a3.114,3.114,0,0,0-.5-1.088c-.139-.139-.417-.049-.573.237-.605,1.121-1.211,5.736-1.268,6.047a25.923,25.923,0,0,0-.425-5.85,9.3,9.3,0,0,0-1.931-3.625c-.213-.278.09-.27.131-.213a9.854,9.854,0,0,1,2.1,3.764,12.592,12.592,0,0,1,.278,3.158c.057-.27.245-2.888.941-3.69a.69.69,0,0,1,.908-.106v-.8a6.4,6.4,0,0,1,.3-2.193,1.227,1.227,0,0,1,1.416-.908,4.86,4.86,0,0,1-.2-2.888q.074-.319.172-.614a3.59,3.59,0,0,1,.237-.54l.008-.008Zm-15.2,28.777a.156.156,0,1,1-.155-.27c1.146-.671,3.412-5.564,3.788-7.307,0,1.7-2.512,6.922-3.633,7.577ZM90.675,90.734l-.082.368a11.4,11.4,0,0,0-3.273,2.316,4.124,4.124,0,0,0-.655,2.569,1.371,1.371,0,0,0-1.939-.278c-1.211.867-1.726,3.813-1.653,4.738-.123-.99-.393-1.726-.933-2-1.563-.147-1.915,3.944-1.964,5.327a7.572,7.572,0,0,1,.884-5.057c.082-.115.262-.229.352-.335a.679.679,0,0,1,.867-.213,1.885,1.885,0,0,1,.646.687c.262-1.383,1.416-4.508,3.478-3.584a3.066,3.066,0,0,1,.663-2.037A13.87,13.87,0,0,1,90.675,90.734Z" transform="translate(-10.336 -11.921)" fill="#2b2a29"/>
            <path id="Path_1989" data-name="Path 1989" d="M8.626,82.749c1.35.434,1.285,4.075,1.17,5.2l-.016.164a.837.837,0,0,1,.81.016c.45.278.311,1.137.27,1.579-.065.736-.164,1.465-.262,2.193-.041.286-.082.565-.123.851a.9.9,0,0,1,.147.016c1.244.221,1.4,2.692,1.407,3.649,0,.278-.008.573-.033.867a1.3,1.3,0,0,1,1.694.843A2.653,2.653,0,0,0,14.5,99.4a5.738,5.738,0,0,1,1.08,1.186,7.672,7.672,0,0,1,.851,1.964,1.283,1.283,0,0,1,.786-.115c1.546.237,2.324,3.322,2.676,4.582l.016.065v.065c0,.1.008.2.008.295v.172l-.09.139-.008.008c.2.45,2.177.974,2.6,1.072a13.008,13.008,0,0,0,2.807.327l.074-.2.442.057c2.487.335,3.731,1.694,4.893,3.788a4.283,4.283,0,0,0,.8,1.129c.025-.008.049-.008.082-.016a6.689,6.689,0,0,0-.3-1.358c-.188-.622.278-1.015.859-.72,1.587.794,3.191,1.686,3.968,3.371.057.131.115.27.172.4l.139.335-.245.262a.787.787,0,0,0-.213.589l.033.745-.72-.18a.722.722,0,0,0-.736.229c-.851.949-1.726,1.882-2.577,2.831l-1.293,1.4-.27-.016c-3.7-.278-8.559,0-11.022-3.338a22.844,22.844,0,0,1-9.025-4.836,19.025,19.025,0,0,1-1.7-1.931c-.139-.172-.524-.671-.736-.736l-.172-.041-1.056-1.056c-2.43-2.43-3.928-4.631-3.649-8.2.008-.139.033-.352.065-.556a2.72,2.72,0,0,1-1.522-1.358c-.376-.777-.368-1.645-.663-2.438C.541,96.463-.67,93.255.468,92.641c.008-.008.025-.008.033-.016A4.188,4.188,0,0,0,.378,91.5a7.24,7.24,0,0,1-.352-2.97.82.82,0,0,1,.491-.589c-.54-1.5-1.375-4.108-.311-5.1a1.268,1.268,0,0,1,.3-.213,9.786,9.786,0,0,1-.344-1.342c-.221-1.146-.458-3.478.769-4.173a1.345,1.345,0,0,1,.54-.172,4.33,4.33,0,0,1,.548-2.79,2.376,2.376,0,0,1,1.326-.786,6.526,6.526,0,0,1,1.015-3.371A15.62,15.62,0,0,1,6.171,67.53c.4-.458.859-.9,1.252-1.358l.344-.4.139.106c.188-1.669,1.219-2.512,3.257-3.1l.7-.2.016.72c0,.074.008.147.016.229A6.922,6.922,0,0,1,18,62.039l.957.237-.7.7A21.789,21.789,0,0,1,16.3,64.707l.245-.057-.655,1.1c-1.08,1.825-1.972,4.328-4,5.253a1.209,1.209,0,0,1,.254.769c-.025.982-1.236,1.661-2.078,2.381a1.072,1.072,0,0,1,.7.515c.679,1.219-1,2.847-1.816,4.189a.743.743,0,0,1,.311.155c.728.581-.115,2.438-.638,3.731Z" transform="translate(0.307 -11.472)" fill="#2b2a29" fill-rule="evenodd"/>
            <path id="Path_1990" data-name="Path 1990" d="M19.485,107.559c0-.18-.008-.286-.008-.286-.663-2.389-1.661-5.417-3.248-3.674-1-4.091-2.209-2.954-2.954-5.179-.295-.884-1.448-.54-1.923.123.638-2.193-.057-6.685-1.481-4.558.278-1.816.753-5.139.548-5.269-.262-.164-1.1.524-1.236,1.1L9.364,88c.123-1.252.057-5.957-1.506-4.271.229-1.137,2.569-5.474.237-3.911.237-1.506,2.88-3.723,2.291-4.795-.3-.54-1.448-.147-1.448-.147.7-1.612,4.418-2.659,1.882-4.034,2.537-.352,3.5-3.3,4.7-5.3-.745.164-1.784.3-1.784.3a17.362,17.362,0,0,0,4.247-3.191c-1.743-.434-4.918-.065-6.26,2.168a7.023,7.023,0,0,1-.286-1.44c-2.479.72-3.093,1.726-2.839,3.977a2.692,2.692,0,0,0-.63-.745c-.63.728-4.468,4.263-3.878,7.372a1.641,1.641,0,0,0-1.514.605c-.663.786-.352,3.068-.352,3.068-2.054-.753-1.767,3.224-.843,5.417-1.677.049-.941,2.733,0,5.3-.254.3-1.3-.655-.327,3.06a4.946,4.946,0,0,1,.123,1.792c-.884-.376-.483,1.718.344,3.985.548,1.5.115,3.036,2.332,3.625a2.392,2.392,0,0,0-.18.966c-.262,3.379,1.162,5.433,3.494,7.765l.949.949.033.008c1.383.385,1.89,4.558,11.668,7.56,2.267,3.281,7.16,2.995,10.719,3.257l1.1-1.2c1.064-1.17,1.587-1.726,2.577-2.823a1.279,1.279,0,0,1,1.285-.393,1.342,1.342,0,0,1,.36-.99c-.065-.147-.123-.286-.172-.385-.72-1.571-2.3-2.4-3.715-3.109-.131-.065-.123-.09-.082.065a6.581,6.581,0,0,1,.327,1.636c-.008.335-.254.376-.54.442-.475.115-.925-.581-1.383-1.407-1.056-1.9-2.152-3.191-4.484-3.5-.237.589-7.348-.54-6.325-2.119Z" transform="translate(0.183 -11.588)" fill="#d7b56d" fill-rule="evenodd"/>
            <path id="Path_1991" data-name="Path 1991" d="M21.431,117.107c.057.319,8,4.664,8.984,4.59C28.01,121.526,20.277,118.515,21.431,117.107Zm1.473-1.195a.163.163,0,1,1,.2-.254h.008c3.1,2.586,9.721,4.083,9.434,4.288-.638-.172-1-.033-1.465-.172a21.268,21.268,0,0,1-8.182-3.862Zm1.546-2.627a.163.163,0,0,1,.2-.254h0c1.015.8,9.982,5.081,9.966,5.171-2.757.147-9.557-4.435-10.171-4.918ZM11.555,71.45a.162.162,0,1,1-.237.221c-2.856-1.988-3.4,3.666-5.065,4.967.63-1.465,1.694-2.447.335-3.993h0L6.547,72.6,6.539,72.6a.989.989,0,0,0-.188-.155h0a.477.477,0,0,0-.36-.082.691.691,0,0,0-.327.2,1.663,1.663,0,0,0-.229.295,2.344,2.344,0,0,0-.172,1.988A4.9,4.9,0,0,1,4.51,77.9c.254-.835.728-2.4-.115-3.077a4.02,4.02,0,0,0-.556-.335.161.161,0,0,1,.082-.311,4.909,4.909,0,0,1,.679.4A1.7,1.7,0,0,1,4.96,75l-.016-.082a2.6,2.6,0,0,1,.213-2.234,1.7,1.7,0,0,1,.278-.352,1.081,1.081,0,0,1,.491-.286.779.779,0,0,1,.6.123l.008.008a1.4,1.4,0,0,1,.237.18l.008.008.041.049.008.008a1.052,1.052,0,0,1,.409.728c.5-1.08,1.653-3.4.835-5.973-.008-.319.352.041.483-.368a9.907,9.907,0,0,0,.319,2.332c1.072-2.447,4.607-3.183,6.611-3.543.286-.049-.867.548-.548.507-4.778,1.35-5.139,1.432-6.44,5,.851-.221,2.455-.327,3.06.344ZM2.08,78.159a.162.162,0,0,1-.057-.221c.049-.074.131-.057.2-.016h.008l.008.008a2.988,2.988,0,0,1,.581.483,2.376,2.376,0,0,1,.311.475,4.036,4.036,0,0,1,.311,2.185,1.937,1.937,0,0,1,.483-.311h.008a1.736,1.736,0,0,1,.548-.131h.008A.847.847,0,0,1,5,80.786a.87.87,0,0,1,.278.385c.589-2.643,1.956-5.719,3.338-6.325-.957.548-2.954,5.94-3.371,8.084l-.016.09a12.878,12.878,0,0,1-.385,1.939,1.178,1.178,0,0,1,.417-.2.485.485,0,0,1,.581.311,1.924,1.924,0,0,1,.131.818,16.677,16.677,0,0,1-1.1,4.3c-.09-2.209.507-1.4.769-4.3a1.8,1.8,0,0,0-.1-.679.205.205,0,0,0-.229-.131c-.164.033-.794.622-1.26,2.021.245-1.587.663-3.24.843-4.132.008-.065.016-.131.025-.188.065-.524.221-1.825-.442-1.816h0a1.2,1.2,0,0,0-.417.1A5.6,5.6,0,0,0,2.923,83.29c.016-1.031.532-3.019-.074-4.255a1.847,1.847,0,0,0-.262-.409,3.23,3.23,0,0,0-.491-.458l-.016-.008Zm9.6,30.708c-.115-1.587.376-2.553.851-2.455.982.2,2.43,3.437,2.2,4.967a.165.165,0,0,0,.327.049,10.655,10.655,0,0,0-1.252-4.255c-.687-1.219-2-1.571-2.627.065-.491-2.267-.974-4.083-2.684-4.517-.892,0-1.162.818-1.268,1.424a8.116,8.116,0,0,0-1.416-3.06c-.065-.09-.139-.18-.2-.262a8.035,8.035,0,0,0-.835-1.35c-1.178-1.686-1.432-2.52-.867-4.909-.622,2.725-.736,3.191.6,5.1.164.229.319.458.458.663a.675.675,0,0,0-.679.115,2.957,2.957,0,0,0-.786,1.129.163.163,0,0,0,.311.1,2.682,2.682,0,0,1,.687-.974.38.38,0,0,1,.458-.016h0a1.888,1.888,0,0,1,.385.311c-.008-.008,0,.016.016.033h0a2.23,2.23,0,0,1,.2.262A10.856,10.856,0,0,1,6.9,104.1c.172.671.638,2.062.81,2.013-.393-.7-.393-3.06.8-3.06,1.906.237,2.242,4.435,3.167,5.818Zm-6.734-6.2a19.543,19.543,0,0,0,7.9,8.853.16.16,0,0,1,.049.221.168.168,0,0,1-.229.049c-3.7-2.4-6.309-4.778-7.724-9.123Zm5.809,1.3c-.131.164-.3-.033-.352-.155h0c-.09-.229-.221-.646-.376-1.162-.507-1.661-1.334-4.345-2.16-4.607-1.047-.335-1.285,2.88-1.317,2.88-.4.057.016-2.1.033-2.226.18-1.293.344-3.707-.27-4.926-.515-1.031-1.146-1.064-1.7-.794h0a4.507,4.507,0,0,0-1.866,2.414c.368-1.5.147-5.556-1.53-6.423-.605-.311-.54-.785-.074-.687.155.033.933.72.974.712.213-1.17,1.015-4.967-.916-5.343a.278.278,0,0,0-.082-.008.164.164,0,1,1,.016-.327.632.632,0,0,1,.123.016h0c2.185.425,1.628,4.885,1.268,6.268a5.894,5.894,0,0,1,.753,3.895c2.136-1.751,2.717-.867,3.322.123a9.733,9.733,0,0,1,.36,4.639c.327-.5.663-.638,1-.532.99.311,1.841,3.1,2.373,4.828.131.425.237.785.327,1.023a6.388,6.388,0,0,1,.859-.9c.074-.057.147-.115.221-.164a3.059,3.059,0,0,1-.777-2.4,2.5,2.5,0,0,1,.106-.548,10.8,10.8,0,0,1,.524-1.072h0v-.008a.163.163,0,0,1,.286.155v.016c-.074.139-.45.851-.491,1.006a2.393,2.393,0,0,0-.09.483,2.711,2.711,0,0,0,.753,2.2,1.287,1.287,0,0,1,1.62.548,6.7,6.7,0,0,1,.925,1.7,3.83,3.83,0,0,0,1.456,2.037c1.309.8.745,2.7.4,3.846-.057.2-.115.376-.147.515a.164.164,0,0,1-.319-.074c.033-.147.09-.327.147-.532.319-1.056.835-2.8-.262-3.478a4.038,4.038,0,0,1-1.587-2.193,6.142,6.142,0,0,0-.876-1.62,1,1,0,0,0-1.293-.417.074.074,0,0,1-.057.025,1.7,1.7,0,0,0-.335.221,6.521,6.521,0,0,0-.892.949l-.074.09ZM8.192,83.641a.162.162,0,0,1,.221.237,8.174,8.174,0,0,0-1.53,2.152A6.27,6.27,0,0,0,6.5,89.124c-.065.646.7,2.258.106,1.964-.7-.344-2.97-2.054-2.389,1.792-1.268-3.33,1.121-3.027,1.915-2.4a8.094,8.094,0,0,1,.45-4.59,8.368,8.368,0,0,1,1.612-2.25Z" transform="translate(0.111 -12.152)" fill="#2b2a29"/>
            <g id="Group_80" data-name="Group 80" transform="translate(42.443 104.75)">
                <path id="Path_1992" data-name="Path 1992" d="M60.9,130.484l-1.424-1.571a1.835,1.835,0,0,0-1.833-.556l-.4.1-.016.417a1.263,1.263,0,0,1-.033.245l-1.383,5.6,3.96,2.962.27-.671c.655-1.661,2-4.811.884-6.472l-.025-.049Z" transform="translate(-52.202 -128.298)" fill="#2b2a29" fill-rule="evenodd"/>
                <path id="Path_1993" data-name="Path 1993" d="M60.6,130.95,59.207,129.4a1.279,1.279,0,0,0-1.285-.393,3.141,3.141,0,0,1-.049.36l-1.293,5.237,3.085,2.307c.966-2.438,1.759-4.738.933-5.965Z" transform="translate(-52.342 -128.421)" fill="#d7b56d" fill-rule="evenodd"/>
                <g id="Group_76" data-name="Group 76" transform="translate(8.787 10.768)">
                    <path id="Path_1994" data-name="Path 1994" d="M68.415,147.825a4.141,4.141,0,0,1,4.885-1.481c1.767.679,3.568,2.79,2.929,4.77l-.155.491.483.188a2.126,2.126,0,0,0,2.717-.925,7.385,7.385,0,0,0,.008-5.752,5.957,5.957,0,0,0-4.713-3.51l-.115-.016-.106.025a3.406,3.406,0,0,0-.36.1c-3.011.9-4.762,2.962-6.464,5.441l-.3.442.851.638.344-.409Z" transform="translate(-63.062 -141.482)" fill="#2b2a29" fill-rule="evenodd"/>
                    <path id="Path_1995" data-name="Path 1995" d="M68.15,147.6c3.928-4.762,9.958.115,8.78,3.813a1.566,1.566,0,0,0,2.029-.679,6.851,6.851,0,0,0-.016-5.245,5.424,5.424,0,0,0-4.3-3.2c-.115.025-.221.057-.335.09-3.134.941-4.86,3.33-6.161,5.22Z" transform="translate(-63.231 -141.61)" fill="#d7b56d" fill-rule="evenodd"/>
                    <path id="Path_1996" data-name="Path 1996" d="M73.644,141.582a8.283,8.283,0,0,0-5.147.728c-1.988.99-3.756,2.34-5.679,3.453l-.164.1-.074.18c-.646,1.628-.769,3.281.908,4.312l.016.008.016.008a1.848,1.848,0,0,0,1.121.213,3.158,3.158,0,0,0,1.849-1.366c.589-.761,1.1-1.587,1.677-2.373a9.846,9.846,0,0,1,5.531-4.173l1.9-.5Z" transform="translate(-62.139 -141.458)" fill="#2b2a29" fill-rule="evenodd"/>
                    <path id="Path_1997" data-name="Path 1997" d="M73.687,142.254a7.813,7.813,0,0,0-4.811.671c-1.931.957-3.862,2.406-5.646,3.437-.589,1.5-.671,2.8.687,3.633,2.627,1.366,3.42-6.1,9.77-7.741Z" transform="translate(-62.263 -141.581)" fill="#d7b56d" fill-rule="evenodd"/>
                </g>
                <path id="Path_1998" data-name="Path 1998" d="M54.47,137.531l4.32,3.248.262-.687c.245-.646.491-1.293.745-1.939l.155-.393-4.1-3.06-.262,1.064a2.837,2.837,0,0,1-.638,1.317l-.483.45Z" transform="translate(-51.958 -129.462)" fill="#2b2a29" fill-rule="evenodd"/>
                <path id="Path_1999" data-name="Path 1999" d="M55.53,137.7a3.226,3.226,0,0,0,.8-1.587l.065-.254,3.085,2.307c-.221.565-.507,1.326-.745,1.947L55.53,137.7Z" transform="translate(-52.151 -129.673)" fill="#d7b56d" fill-rule="evenodd"/>
                <g id="Group_77" data-name="Group 77" transform="translate(0 4.542)">
                    <path id="Path_2000" data-name="Path 2000" d="M65.752,144.9l-3.821-2.872-.3.573c-.278.524-.556,1.056-.8,1.6l-.188.409,3.813,2.659c.655.458,2.144,1.17,2.766.286.671-.949-.818-2.177-1.465-2.659Zm-7.127-5.359-3.887-2.921-.344.319c-.3.286-.786.164-.728-.131l.573-2.954-1.661,2.676-.016.1a1.83,1.83,0,0,1-.6,1.088l-.565.466,6.178,4.3.229-.712c.2-.622.434-1.227.671-1.833l.147-.4Z" transform="translate(-51.4 -133.85)" fill="#2b2a29" fill-rule="evenodd"/>
                    <path id="Path_2001" data-name="Path 2001" d="M65.622,145.971l-3.306-2.487c-.286.532-.556,1.056-.785,1.563l3.437,2.4C66.767,148.7,68.207,147.91,65.622,145.971Zm-7.462-5.613-3.175-2.389a.929.929,0,0,1-1.653-.638l-.016.033a2.39,2.39,0,0,1-.786,1.407l4.959,3.453c.188-.605.425-1.227.671-1.866Z" transform="translate(-51.605 -134.483)" fill="#d7b56d" fill-rule="evenodd"/>
                </g>
                <path id="Path_2002" data-name="Path 2002" d="M61.034,130.467c-.033-.033-.065-.074-.1-.106l-.278-.3-.008.008-.908-.916a20.614,20.614,0,0,1,.761,2.995c.082,1.694-1.2,4.533-1.62,5.572-.753,1.874-2.389,5.515-1.178,7.413a2.594,2.594,0,0,0,.859.826l.008.008,3.625,1.857,1.915.016-.884-.655a1.694,1.694,0,0,1-.786-.884c-.434-1.276,1.056-3.715,1.645-4.819,1.006-1.874,2.561-4.672.916-6.628l-.008-.008-3.96-4.378Z" transform="translate(-52.467 -128.453)" fill="#2b2a29" fill-rule="evenodd"/>
                <path id="Path_2003" data-name="Path 2003" d="M64.707,135.568,60.665,131.1c2.627,2.7-5.49,12.494-1.694,14.736l4.1,2.185C58.947,145.583,67.563,138.971,64.707,135.568Z" transform="translate(-52.589 -128.808)" fill="#d7b56d" fill-rule="evenodd"/>
                <g id="Group_79" data-name="Group 79" transform="translate(4.238 0.537)">
                    <g id="Group_78" data-name="Group 78">
                        <path id="Path_2004" data-name="Path 2004" d="M58.3,143.97c-.016.761,1.366.835,2.119,1.465.851.7.09,2.659.712,3.887l-2.209-1.064C57.658,147.521,57.756,145.852,58.3,143.97Z" transform="translate(-56.823 -131.684)" fill="#2b2a29" fill-rule="evenodd"/>
                        <path id="Path_2005" data-name="Path 2005" d="M65.79,137.366c-1.186-1.056-2.357-1.522-3.134-2.782a2.152,2.152,0,0,1-.147-1.988L61.135,131l.36.753c.36,1.056-.016,2.569-.646,4.288l-.278.687c1.612.327,3.027,1.825,4.378,3.42a7.134,7.134,0,0,0,.843-2.782Z" transform="translate(-57.305 -129.326)" fill="#2b2a29" fill-rule="evenodd"/>
                        <path id="Path_2006" data-name="Path 2006" d="M60.311,130.62c-.417-.123-.957-.147-1.178.417a22.011,22.011,0,0,0-1.072,3.306c-.082,1.947,1.178,1.8,2.152,1.129-.172.466-.352.949-.548,1.432L56.58,134.6l1.293-5.237a1.41,1.41,0,0,0,.049-.36,1.26,1.26,0,0,1,1.285.368l1.1,1.252Z" transform="translate(-56.58 -128.955)" fill="#2b2a29" fill-rule="evenodd"/>
                        <path id="Path_2007" data-name="Path 2007" d="M75.81,142.345c2.226.54,4.746,4.345,1.677,5.433a4.405,4.405,0,0,1,.982,2.7c2-.4,2.6-3.4,1.866-5a5.424,5.424,0,0,0-4.3-3.2c-.074.025-.155.049-.229.065Z" transform="translate(-60.075 -131.377)" fill="#2b2a29" fill-rule="evenodd"/>
                    </g>
                    <path id="Path_2008" data-name="Path 2008" d="M66.15,144.812c4.549-1.645,2.553-.123,2.283,1.988a10.328,10.328,0,0,1,6.022-4.549,8.242,8.242,0,0,0-4.983.63,35.263,35.263,0,0,0-3.322,1.931Z" transform="translate(-58.319 -131.347)" fill="#2b2a29" fill-rule="evenodd"/>
                </g>
            </g>
            <path id="Path_2009" data-name="Path 2009" stroke="#2b2a29" d="M64.348,117.07a16.2,16.2,0,0,1-6.317-5.662l-.221-.352.532-.6,1.816-1.718.368.532a11.521,11.521,0,0,0,3.5,3.527l.229.123.049.254a27.155,27.155,0,0,0,.8,3.216l.376,1.178-1.137-.5Z" fill="#2b2a29" transform="translate(-10.142 -19.994)" stroke-linecap="round" stroke-linejoin="round" stroke-miterlimit="10" stroke-width="0.5" fill-rule="evenodd"/>
            <path id="Path_2010" data-name="Path 2010" stroke="#2b2a29" d="M60.221,109.78a11.941,11.941,0,0,0,3.69,3.69,27.859,27.859,0,0,0,.818,3.281A15.728,15.728,0,0,1,58.65,111.3l.237-.27,1.334-1.252Z" fill="#d7b56d" transform="translate(-10.295 -20.183)" stroke-linecap="round" stroke-linejoin="round" stroke-miterlimit="10" stroke-width="0.5" fill-rule="evenodd"/>
            <path id="Path_2011" data-name="Path 2011" d="M29.016,54.188v40a40.644,40.644,0,0,1-3.535,16.283,15.921,15.921,0,0,1-7.929,7.831,15.184,15.184,0,0,1-6.489,1.146c-6.636-.245-9.9-4.746-9.6-8.379.254-3.011,3.126-5.433,7-4.345,8.084,2.275,12.511-1.816,12.511-10V53.705A8.915,8.915,0,0,1,24.18,46.8c2.127-1.792,6.039-2.864,8.788-1.882-1.031,1.391-1.874,2.807-2.667,4.116a9.593,9.593,0,0,0-1.285,5.155Z" transform="translate(-0.011 -8.325)" fill="#2b2a29" fill-rule="evenodd"/>
            <path id="Path_2012" data-name="Path 2012" d="M28.146,54.33c0-4.975,2.324-6.652,3.993-8.747a8.462,8.462,0,0,0-10.367,8.256V96.862c0,9.254-5.417,12.724-13.223,10.531-7.757-2.185-8.493,9.745,2.774,10.154,9.565.352,16.815-7.6,16.815-23.222v-40Z" transform="translate(-0.254 -8.467)" fill="#d7b56d" fill-rule="evenodd"/>
            <path id="Path_2013" data-name="Path 2013" d="M22.3,29.14H64.918a3.875,3.875,0,0,0,2.463-.655c.352-.188.8-.335,1.121.008a1.336,1.336,0,0,1,.188,1.473c-1.947,3.7-5.22,8.264-9.868,8.264h-36.4c-1.375,0-2.692-.147-3.5,1.023-1.08,1.563-.851,3.838-.147,5.5.843,1.988,2.577,3.731,4.869,3.641,2.995-.123,7.029-1.309,9.892-.622,2.627.63,2.479,4.116,2.455,6.161l-.36,40.2,6.374,5.613,7.1-6.53.147-41.2c.008-2.888,2.455-4.631,5.057-5.179l.794-.172-.131.8a6.1,6.1,0,0,0-.074.949v1.874l-.458.082c-.974.172-1.3,1.146-1.309,2.111l-.368,42.393-10.621,9.86L31.788,95.172l.5-42.442c0-.3-.008-.966-.295-1.162-.556-.393-2.987.5-3.584.7a27.9,27.9,0,0,1-7.814,1.506c-2.7.033-5.719-1.776-7.5-3.739A14.842,14.842,0,0,1,9.581,39.172a11.6,11.6,0,0,1,1.342-4.746c2.25-4.157,6.9-5.458,11.373-5.286Z" transform="translate(-1.482 -5.37)" fill="#2b2a29" fill-rule="evenodd"/>
            <path id="Path_2014" data-name="Path 2014" d="M22.45,29.821h42.63a4.394,4.394,0,0,0,2.733-.72c.761-.409.45.221.18.728-1.833,3.486-4.6,7.413-9,7.413H22.59c-7.839,0-5.114,12.085,1.244,11.824,2.823-.115,7.127-1.26,9.745-.638,2.185.524,1.677,3.739,1.653,5.621l-.36,40.274,7.315,6.292,7.642-7.029.147-41.435c.008-2.52,2.144-4.116,4.623-4.639a6.146,6.146,0,0,0-.082,1.039v1.407a2.727,2.727,0,0,0-2.136,2.651l-.36,41.967-9.884,9.344L32.5,95.059,33,52.674c.049-4.288-4.615.286-12.077.475a10.274,10.274,0,0,1-7.07-3.371,14.313,14.313,0,0,1-3.379-10.441c.385-5.22,3.813-9.843,11.979-9.516Z" transform="translate(-1.645 -5.494)" fill="#d7b56d" fill-rule="evenodd"/>
            <path id="Path_2015" data-name="Path 2015" d="M63.62,51.053a7.711,7.711,0,0,1,3.216-6.088,10.056,10.056,0,0,1,6.3-2.226c-1.489,2.34-1.473,4.427-1.473,7.127V93.773a16.349,16.349,0,0,0,2.406,8.714A8.52,8.52,0,0,0,79.4,106.6,9.714,9.714,0,0,0,89,104.026c.556-.54,1.686-1.555,2.528-1.1.786.417.957,1.825.81,2.52-.655,3.134-2.43,7.462-4.754,9.712a10.254,10.254,0,0,1-6.57,3.044,15.849,15.849,0,0,1-7.446-1.416c-7.97-3.756-9.95-14.957-9.95-22.919V51.053Z" transform="translate(-11.134 -7.997)" fill="#2b2a29" fill-rule="evenodd"/>
            <path id="Path_2016" data-name="Path 2016" d="M64.3,51.191c0-4.967,5.531-7.552,7.454-7.691a13.754,13.754,0,0,0-1.08,6.5V93.911c0,11.169,9.933,19.22,18.828,10.653,1.465-1.416,2.537-1.645,2.046.72-1.5,7.151-6.292,10.858-10.433,11.022-9.565.376-16.815-6.669-16.815-22.3V51.191Z" transform="translate(-11.257 -8.135)" fill="#d7b56d" fill-rule="evenodd"/>
            <g id="Group_86" data-name="Group 86" transform="translate(14.339)">
                <g id="Group_84" data-name="Group 84">
                    <path id="Path_2017" data-name="Path 2017" d="M43.41,22.193a2.144,2.144,0,0,1,.008-.229,5.663,5.663,0,0,1,2.2-4.378l.147-.106h4.206l.147.106a5.658,5.658,0,0,1,2.2,4.394s.008.115.008.131v.074l-.008.548H43.435l-.025-.54Z" transform="translate(-21.892 -3.406)" fill="#2b2a29" fill-rule="evenodd"/>
                    <path id="Path_2018" data-name="Path 2018" d="M44.09,22.3h7.8v-.155a5.615,5.615,0,0,0-1.972-3.985H46.07A5.585,5.585,0,0,0,44.1,22.128c0,.057-.008.106-.008.164V22.3Z" transform="translate(-22.016 -3.529)" fill="#d7b56d" fill-rule="evenodd"/>
                    <path id="Path_2019" data-name="Path 2019" d="M54.5,11.885c-.18,2.119-3.568,5.572-5.736,5.572H45.683c-2.177,0-5.556-3.453-5.744-5.572l-.049-.605H54.561Z" transform="translate(-21.252 -2.279)" fill="#2b2a29" fill-rule="evenodd"/>
                    <path id="Path_2020" data-name="Path 2020" d="M54.09,11.96c-.164,1.906-3.379,5.065-5.188,5.065H45.818c-1.808,0-5.024-3.167-5.188-5.065Z" transform="translate(-21.387 -2.402)" fill="#d7b56d" fill-rule="evenodd"/>
                    <g id="Group_83" data-name="Group 83">
                        <g id="Group_81" data-name="Group 81" transform="translate(0 0.008)">
                            <path id="Path_2021" data-name="Path 2021" d="M20.522,17.71a.2.2,0,0,0-.008.065,2.587,2.587,0,0,1-1,1.915,1.6,1.6,0,0,1-1.718.123,1.766,1.766,0,0,1-.425-2.373c.941-2.07,2.815-3.15,4.975-2.029.826.425,2.4,1.358,3.347,1.252a2.491,2.491,0,0,0,1.489-.982c1.686-1.98,3.666-1.44,5.351.2,2.136,2.086,2.839-.074,1.3-1.317-3.306-2.676-6.186-4.214-5.458-9.066C28.893,2.074,32.223.347,35.431.29,38.368.241,42.4,2.982,42.525,6.083a3.225,3.225,0,0,1-.507,2.1,2.006,2.006,0,0,1-3.731-1.006c-.049-.687.008-1.375-.074-2.07-.172-1.489-2.307-1.784-3.486-1.334C31.7,4.937,32.649,8.6,34.694,10.289a12.344,12.344,0,0,1,3.936,4.4,3.663,3.663,0,0,1,.155,2.586,4.538,4.538,0,0,1-3.306,3.142,6.422,6.422,0,0,1-3.011-.556c-1.08-.458-2.7-2.667-3.788-1.375a4.011,4.011,0,0,1-5.695.565c-.319-.327-1.964-1.456-2.463-1.342Z" transform="translate(-17.112 -0.289)" fill="#2b2a29" fill-rule="evenodd"/>
                            <path id="Path_2022" data-name="Path 2022" d="M38.9,5.156c-.2-1.718-2.667-2.455-4.418-1.784-3.281,1.26-2.757,5.343-.188,7.454.949.786,3.077,2.234,3.968,4.2,1.015,2.234-1.015,4.787-2.725,4.95a5.5,5.5,0,0,1-2.471-.458c-1.4-.565-3.273-2.946-4.672-1.285-.99,1.178-3.306,2.013-4.893.515-.638-.6-3.281-2.381-3.42-.916C19.844,20.309,17,19.966,18,17.773c.786-1.735,2.291-2.757,4.214-1.767,2.52,1.3,3.829,2.111,5.515.131,1.236-1.448,2.757-1.5,4.541.245,2.676,2.618,4.2-.4,2.046-2.144-3.224-2.618-5.94-4.009-5.261-8.551C29.515,2.635,32.5,1,35.57.95,38.532.9,42,3.683,42.108,6.211A2.7,2.7,0,0,1,41.7,7.97a1.455,1.455,0,0,1-2.725-.728c-.041-.556.016-1.3-.074-2.086Z" transform="translate(-17.235 -0.409)" fill="#d7b56d" fill-rule="evenodd"/>
                            <path id="Path_2023" data-name="Path 2023" d="M45.8,7.88c.155,0,.278.164.278.368s-.123.368-.278.368-.278-.164-.278-.368S45.651,7.88,45.8,7.88Z" transform="translate(-22.276 -1.669)" fill="#2b2a29" fill-rule="evenodd"/>
                        </g>
                        <g id="Group_82" data-name="Group 82" transform="translate(26.511)">
                            <path id="Path_2024" data-name="Path 2024" d="M71.537,17.708c-.5-.123-2.144,1.015-2.479,1.334a4.011,4.011,0,0,1-5.695-.565c-1.1-1.3-2.528.769-3.535,1.26a6.559,6.559,0,0,1-3.265.671,4.493,4.493,0,0,1-3.183-2.8,3.718,3.718,0,0,1,.033-2.929c.884-1.947,2.537-3.093,4.116-4.4,2.046-1.686,3-5.351-.033-6.513C56.326,3.316,54,3.6,53.831,5.1c-.082.7-.025,1.375-.074,2.07a2.006,2.006,0,0,1-3.731,1.006,3.225,3.225,0,0,1-.507-2.1c.131-3.1,4.157-5.842,7.1-5.793,3.207.057,6.726,1.784,7.241,5.212.72,4.844-2.16,6.39-5.458,9.066-1.53,1.244-1.015,3.224,1.121,1.137,1.686-1.653,3.666-2.185,5.351-.2a2.491,2.491,0,0,0,1.489.982c.949.106,2.52-.826,3.347-1.252,2.16-1.121,4.222.147,5.163,2.217a1.823,1.823,0,0,1-.614,2.373,1.6,1.6,0,0,1-1.718-.123,2.524,2.524,0,0,1-.99-1.915c-.008-.008-.008-.041-.016-.065Z" transform="translate(-49.513 -0.279)" fill="#2b2a29" fill-rule="evenodd"/>
                            <path id="Path_2025" data-name="Path 2025" d="M53.406,5.157c.2-1.718,2.667-2.455,4.418-1.784,3.281,1.26,2.757,5.343.188,7.454-.949.786-3.077,2.234-3.968,4.2-1.006,2.234,1.023,4.7,2.725,4.95a5.592,5.592,0,0,0,2.823-.581c1.342-.622,2.847-2.9,4.32-1.154.99,1.178,3.306,2.013,4.893.515.638-.6,3.281-2.381,3.42-.916.237,2.479,3.077,2.136,2.078-.057-.786-1.735-2.3-2.757-4.214-1.767-2.52,1.3-3.829,2.111-5.515.131-1.236-1.448-2.757-1.5-4.541.245-2.676,2.618-4.2-.4-2.037-2.144,3.224-2.61,5.94-4.009,5.261-8.551C62.8,2.645,59.813,1.009,56.745.96c-2.97-.049-6.44,2.733-6.546,5.261a2.7,2.7,0,0,0,.409,1.759,1.455,1.455,0,0,0,2.725-.728c.041-.565-.016-1.309.074-2.095Z" transform="translate(-49.636 -0.403)" fill="#d7b56d" fill-rule="evenodd"/>
                            <path id="Path_2026" data-name="Path 2026" d="M51.778,7.88c-.155,0-.278.164-.278.368s.123.368.278.368.278-.164.278-.368S51.934,7.88,51.778,7.88Z" transform="translate(-49.874 -1.661)" fill="#2b2a29" fill-rule="evenodd"/>
                        </g>
                    </g>
                    <path id="Path_2027" data-name="Path 2027" d="M38.74,9.13H55.285V12H38.74Z" transform="translate(-21.043 -1.888)" fill="#2b2a29" fill-rule="evenodd"/>
                    <path id="Path_2028" data-name="Path 2028" d="M39.42,9.8H54.852v1.767H39.42Z" transform="translate(-21.167 -2.01)" fill="#d7b56d" fill-rule="evenodd"/>
                </g>
                <g id="Group_85" data-name="Group 85" transform="translate(20.806 7.733)">
                    <path id="Path_2029" data-name="Path 2029" d="M43.86,22.357c1.522,0,1.391-.033,1.383-.049a4.87,4.87,0,0,1,1.964-4.018H45.8a5.352,5.352,0,0,0-1.931,3.895c0,.057-.008.106-.008.164v.008Z" transform="translate(-42.78 -11.286)" fill="#2b2a29" fill-rule="evenodd"/>
                    <path id="Path_2030" data-name="Path 2030" d="M52.2,22.675a6.185,6.185,0,0,1-1.088-.033,3.619,3.619,0,0,0-.483-2.6h0a3.652,3.652,0,0,1,1.579,2.487v.106l-.008.041Z" transform="translate(-44.01 -11.604)" fill="#2b2a29" fill-rule="evenodd"/>
                    <path id="Path_2031" data-name="Path 2031" d="M54.739,9.73h2.954v1.857h-1.1l-.033.679-.605,1.1a2.164,2.164,0,0,0-1.35-1.8,1.635,1.635,0,0,0,.139-1.833Z" transform="translate(-44.732 -9.73)" fill="#2b2a29" fill-rule="evenodd"/>
                    <path id="Path_2032" data-name="Path 2032" d="M53.944,12.12c-2.856,0-3.3.025-3.3.033.646.908-.63,2.5-2,3.322h0c1.522.344,5.049-1.538,5.286-3.24a.4.4,0,0,0,.008-.1V12.12Z" transform="translate(-43.651 -10.164)" fill="#2b2a29" fill-rule="evenodd"/>
                    <path id="Path_2033" data-name="Path 2033" d="M42.54,12.12c2.1,0,2.438.016,2.438.025-.475.671.466,1.849,1.473,2.447h0c-1.121.254-3.723-1.137-3.9-2.389,0-.025-.008-.049-.008-.082Z" transform="translate(-42.54 -10.164)" fill="#2b2a29" fill-rule="evenodd"/>
                </g>
            </g>
            <path id="Path_2034" data-name="Path 2034" d="M43.438,81.028h1.716v-.115c-.181-7.3,1.683-19.58,11.133-20.006,3.851-.172,7.9,1.366,9.2,5.171.788,2.291.649,5.891-1.42,7.528-1.913,1.514-5.082,2.4-7.365,1.26-2.8-1.391-1.585-4.893,1.108-5.2,1.486-.172.755-2.217-1.141-2.217-6.971,0-6.47,11.193-6.388,15.956.115,6.317,1.092,12.969,8.826,13.092,1.018.016,2.389-.016,3.062-.818.92-1.088,1.519-2.455.476-3.788a3.026,3.026,0,0,0-1.01-.671,6.373,6.373,0,0,1-1.232-.925,3.616,3.616,0,0,1-1.346-3.9,3.774,3.774,0,0,1,3.892-2.643,8.794,8.794,0,0,1,5.025,2.717,7.906,7.906,0,0,1,2.135,5.621c-.263,5.6-4.212,10.989-10.181,11.316-3.645.2-7.184-2.1-9.7-4.656a18.482,18.482,0,0,1-4.959-12.4H43.217c-.074,3.78-.608,8.673-2.865,11.856s-6.01,6.358-10.164,6.44c-8.268.172-14.335-7.552-11.306-15.538.87-2.291,4.655-4.836,7-3.289,2.89,1.9,2.274,4.337.189,6.538-1.658,1.751-1.4,3.5.755,4.746a6.038,6.038,0,0,0,3.136.712c5.961-.131,7.611-7.143,7.611-11.93V69.973l-2.2,1.456a3.54,3.54,0,0,1-2.98.8,2.858,2.858,0,0,1-.936-.589A6.88,6.88,0,0,1,29.374,76.7a6.484,6.484,0,0,1-4.6,1.71,6.391,6.391,0,0,1-1.839-.327A8.132,8.132,0,0,1,17.7,68.95a7.519,7.519,0,0,1,6.815-6.317,9.336,9.336,0,0,1,6.954,2.512,9.581,9.581,0,0,1,1.273,1.432,2.768,2.768,0,0,0,.9.843c.484.2,1.092-.155,1.478-.417l8.391-5.572-.074,19.6ZM30.754,70.873c-.164-.2-.328-.4-.476-.581a6.625,6.625,0,0,0-4.286-2.087c-1.519-.008-3.169.769-3.1,2.5a2.267,2.267,0,0,0,1.568,2.037c1.88.7,4.631-.7,6.125-1.751l.164-.115Z" transform="translate(-2.948 -11.297)" fill="#2b2a29" fill-rule="evenodd"/>
            <path id="Path_2035" data-name="Path 2035" d="M35.577,67.586l7.144-4.795-.279,18.918h3.408l-.016-.679c-.156-6.112,1.2-19.016,10.6-19.433s9.9,9.312,6.865,11.709a5.815,5.815,0,0,1-6.208,1.015c-2.283-1.137-1.043-3.355,1.109-3.6,2.242-.254,1.191-4.247-1.388-4.247-7.4,0-7.6,11.742-7.5,17.077.131,7.012,2.045,14.065,9.936,14.188a4.707,4.707,0,0,0,3.5-1.383c1.7-2,1.757-3.527.862-4.672-.534-.687-1.749-.957-2.718-1.694a2.984,2.984,0,0,1,1.971-5.359,7.6,7.6,0,0,1,6.282,7.577c-.238,5.057-3.211,9.909-9.1,10.236-6.208.344-13.811-5.4-14.082-16.324l-.008-.188h-3.7v.09c-.074,3.87-.164,8.092-2.406,11.259s-5.682,6.309-9.533,6.39c-8.055.172-13.614-6.742-10.773-14.237.813-2.136,4.262-4.279,6.175-3.019,2.677,1.759,1.823,3.862.09,5.695-1.4,1.481-2.16,3.838.879,5.6a6.648,6.648,0,0,0,3.424.786c5.863-.123,8.162-6.489,8.162-12.478V69.059l-3.063,2.029c-2.431,1.612-2.981.614-4.368-1.031a7.232,7.232,0,0,0-4.705-2.291c-4.278-.016-4.738,4.5-1.724,5.613,1.511.556,4,.033,6.635-1.825.033,5.114-4.352,7.258-7.784,6.112a7.594,7.594,0,0,1-4.869-8.534A6.963,6.963,0,0,1,24.7,63.3a8.811,8.811,0,0,1,6.561,2.381c1.5,1.285,1.9,3.535,4.319,1.906Z" transform="translate(-3.075 -11.422)" fill="#d7b56d" fill-rule="evenodd"/>
            <g id="Group_91" data-name="Group 91" transform="translate(15.71 104.75)">
                <path id="Path_2036" data-name="Path 2036" d="M39.37,130.484l1.424-1.571a1.835,1.835,0,0,1,1.833-.556l.4.1.016.417a1.263,1.263,0,0,0,.033.245l1.383,5.6-3.96,2.962-.27-.671c-.655-1.661-2-4.811-.884-6.472Z" transform="translate(-22.482 -128.298)" fill="#2b2a29" fill-rule="evenodd"/>
                <path id="Path_2037" data-name="Path 2037" d="M39.924,130.95l1.391-1.546a1.279,1.279,0,0,1,1.285-.393,3.139,3.139,0,0,0,.049.36l1.293,5.237-3.085,2.307c-.957-2.438-1.751-4.738-.933-5.965Z" transform="translate(-22.603 -128.421)" fill="#d7b56d" fill-rule="evenodd"/>
                <g id="Group_87" data-name="Group 87" transform="translate(0 10.768)">
                    <path id="Path_2038" data-name="Path 2038" d="M30.277,147.825a4.141,4.141,0,0,0-4.885-1.481c-1.767.679-3.568,2.79-2.929,4.77l.155.491-.483.188a2.126,2.126,0,0,1-2.717-.925,7.385,7.385,0,0,1-.008-5.752,5.957,5.957,0,0,1,4.713-3.51l.115-.016.106.025a3.406,3.406,0,0,1,.36.1c3.011.9,4.762,2.962,6.464,5.441l.3.442-.851.638-.344-.409Z" transform="translate(-18.831 -141.482)" fill="#2b2a29" fill-rule="evenodd"/>
                    <path id="Path_2039" data-name="Path 2039" d="M30.825,147.6c-3.928-4.762-9.958.115-8.78,3.813a1.566,1.566,0,0,1-2.029-.679,6.851,6.851,0,0,1,.016-5.245,5.424,5.424,0,0,1,4.3-3.2c.115.025.221.057.335.09,3.142.941,4.869,3.33,6.161,5.22Z" transform="translate(-18.953 -141.61)" fill="#d7b56d" fill-rule="evenodd"/>
                    <path id="Path_2040" data-name="Path 2040" d="M24.866,141.582a8.283,8.283,0,0,1,5.147.728c1.988.99,3.756,2.34,5.679,3.453l.164.1.074.18c.646,1.628.769,3.281-.908,4.312l-.016.008-.016.008a1.848,1.848,0,0,1-1.121.213,3.158,3.158,0,0,1-1.849-1.366c-.589-.761-1.1-1.587-1.677-2.373a9.846,9.846,0,0,0-5.531-4.173l-1.9-.5Z" transform="translate(-19.573 -141.458)" fill="#2b2a29" fill-rule="evenodd"/>
                    <path id="Path_2041" data-name="Path 2041" d="M25.4,142.254a7.813,7.813,0,0,1,4.811.671c1.931.957,3.862,2.406,5.646,3.437.589,1.5.671,2.8-.687,3.633-2.627,1.366-3.42-6.1-9.77-7.741Z" transform="translate(-20.025 -141.581)" fill="#d7b56d" fill-rule="evenodd"/>
                </g>
                <path id="Path_2042" data-name="Path 2042" d="M45.812,137.531l-4.32,3.248-.262-.687c-.245-.646-.491-1.293-.745-1.939l-.155-.393,4.1-3.06.262,1.064a2.837,2.837,0,0,0,.638,1.317l.483.45Z" transform="translate(-22.739 -129.462)" fill="#2b2a29" fill-rule="evenodd"/>
                <path id="Path_2043" data-name="Path 2043" d="M45.092,137.7a3.16,3.16,0,0,1-.8-1.587l-.065-.254-3.085,2.307c.221.565.507,1.326.745,1.947l3.207-2.414Z" transform="translate(-22.886 -129.673)" fill="#d7b56d" fill-rule="evenodd"/>
                <g id="Group_88" data-name="Group 88" transform="translate(9.599 4.542)">
                    <path id="Path_2044" data-name="Path 2044" d="M32.2,144.9l3.821-2.872.3.573c.278.524.556,1.056.8,1.6l.188.417L33.5,147.277c-.655.458-2.144,1.17-2.766.286-.671-.957.818-2.185,1.465-2.667Zm7.127-5.359,3.887-2.921.344.319c.3.286.786.164.728-.131l-.573-2.954,1.661,2.676.016.1a1.83,1.83,0,0,0,.6,1.088l.565.466-6.178,4.3-.229-.712c-.2-.622-.434-1.227-.671-1.833l-.147-.4Z" transform="translate(-30.562 -133.85)" fill="#2b2a29" fill-rule="evenodd"/>
                    <path id="Path_2045" data-name="Path 2045" d="M32.658,145.971l3.306-2.487c.286.532.556,1.056.786,1.563l-3.437,2.4C31.512,148.7,30.072,147.91,32.658,145.971Zm7.462-5.613,3.175-2.389a.929.929,0,0,0,1.653-.638l.016.033a2.39,2.39,0,0,0,.786,1.407l-4.959,3.453c-.188-.605-.425-1.227-.671-1.866Z" transform="translate(-30.688 -134.483)" fill="#d7b56d" fill-rule="evenodd"/>
                </g>
                <path id="Path_2046" data-name="Path 2046" d="M38.589,130.467c.033-.033.065-.074.1-.106l.278-.3.008.008.908-.916a20.613,20.613,0,0,0-.761,2.995c-.082,1.694,1.2,4.533,1.62,5.572.753,1.874,2.389,5.515,1.178,7.413a2.594,2.594,0,0,1-.859.826l-.008.008-3.625,1.857-1.915.016.884-.655a1.66,1.66,0,0,0,.786-.884c.425-1.276-1.056-3.715-1.645-4.819-1.006-1.874-2.561-4.672-.916-6.628l.008-.008,3.96-4.378Z" transform="translate(-21.57 -128.453)" fill="#2b2a29" fill-rule="evenodd"/>
                <path id="Path_2047" data-name="Path 2047" d="M35.158,135.568l4.05-4.468c-2.627,2.7,5.49,12.494,1.694,14.736l-4.1,2.185C40.919,145.583,32.3,138.971,35.158,135.568Z" transform="translate(-21.691 -128.808)" fill="#d7b56d" fill-rule="evenodd"/>
                <g id="Group_90" data-name="Group 90" transform="translate(0.785 0.537)">
                    <g id="Group_89" data-name="Group 89">
                        <path id="Path_2048" data-name="Path 2048" d="M42.491,143.97c.016.761-1.366.835-2.119,1.465-.851.7-.09,2.659-.712,3.887l2.209-1.064C43.129,147.521,43.031,145.852,42.491,143.97Z" transform="translate(-23.402 -131.684)" fill="#2b2a29" fill-rule="evenodd"/>
                        <path id="Path_2049" data-name="Path 2049" d="M34.54,137.366c1.186-1.056,2.357-1.522,3.134-2.782a2.152,2.152,0,0,0,.147-1.988L39.2,131l-.36.753c-.36,1.056.016,2.569.646,4.288l.278.687c-1.612.327-3.027,1.825-4.378,3.42a7.422,7.422,0,0,1-.843-2.782Z" transform="translate(-22.472 -129.326)" fill="#2b2a29" fill-rule="evenodd"/>
                        <path id="Path_2050" data-name="Path 2050" d="M40.36,130.62c.417-.123.957-.147,1.178.417a22.012,22.012,0,0,1,1.072,3.306c.082,1.947-1.178,1.8-2.152,1.129.172.466.352.949.548,1.432l3.085-2.307L42.8,129.36a1.41,1.41,0,0,1-.049-.36,1.26,1.26,0,0,0-1.285.368l-1.1,1.252Z" transform="translate(-23.53 -128.955)" fill="#2b2a29" fill-rule="evenodd"/>
                        <path id="Path_2051" data-name="Path 2051" d="M24.618,142.345c-2.226.54-4.746,4.345-1.677,5.433a4.405,4.405,0,0,0-.982,2.7c-2-.4-2.6-3.4-1.866-5a5.424,5.424,0,0,1,4.3-3.2c.074.025.155.049.229.065Z" transform="translate(-19.791 -131.377)" fill="#2b2a29" fill-rule="evenodd"/>
                    </g>
                    <path id="Path_2052" data-name="Path 2052" d="M33.505,144.812c-4.549-1.645-2.553-.123-2.283,1.988A10.328,10.328,0,0,0,25.2,142.25a8.242,8.242,0,0,1,4.983.63,35.264,35.264,0,0,1,3.322,1.931Z" transform="translate(-20.774 -131.347)" fill="#2b2a29" fill-rule="evenodd"/>
                </g>
            </g>
            <g id="Group_92" data-name="Group 92" transform="translate(35.185 101.541)">
                <path id="Path_2053" data-name="Path 2053" d="M52.653,126.359a1.882,1.882,0,0,1,2.586,2.3l-1.35,5.49c-.254,1.031-1.031,2.782-2.422,2.226a1.506,1.506,0,0,1-.515-.36c-.908,1.808-2.725,1.726-3.764.016a1.493,1.493,0,0,1-1.317.434c-1.088-.18-1.62-1.375-1.857-2.324l-1.35-5.49a1.882,1.882,0,0,1,2.577-2.324C46.3,123.708,51.573,123.733,52.653,126.359Z" transform="translate(-42.583 -124.376)" fill="#2b2a29" fill-rule="evenodd"/>
                <path id="Path_2054" data-name="Path 2054" d="M52.409,127.49l-.286,1.62.515-1.645c.36-1.137,2.635-.646,2.177,1.195l-1.35,5.49c-.712,2.88-2.316,1.882-2.242.9l.147-1.8-.524,1.923c-.646,2.389-2.586,2.3-3.412-.041l-.663-1.882.36,1.857c.188.966-1.743,1.939-2.455-.949l-1.35-5.49c-.45-1.841,1.767-2.373,2.136-1.236l.556,1.694-.286-1.653c.016-3.24,6.669-3.207,6.677.016Z" transform="translate(-42.707 -124.5)" fill="#d7b56d" fill-rule="evenodd"/>
                <path id="Path_2055" data-name="Path 2055" d="M49.947,133.8c-.147,1.317.982,1.432.916,0l-.458-4.1-.458,4.1Z" transform="translate(-43.919 -125.344)" fill="#2b2a29" fill-rule="evenodd"/>
            </g>
            <path id="Path_2056" data-name="Path 2056" d="M32.454,148.02l.99,1.268C31.848,150.606,29.778,150.107,32.454,148.02Z" transform="translate(-5.355 -27.133)" fill="#2b2a29" fill-rule="evenodd"/>
            <path id="Path_2057" data-name="Path 2057" d="M9.828,94.22c-1.882,3.535,0,5.188.524,8.8C10.041,98.7,8.486,97.37,9.828,94.22Z" transform="translate(-1.386 -17.354)" fill="#2b2a29" fill-rule="evenodd"/>
        </g>
    </g>
</svg>
