<svg width="128px" height="49px" viewBox="0 0 128 49" version="1.1" xmlns="http://www.w3.org/2000/svg">
    <g id="Symbols" stroke="none" stroke-width="1" fill="none" fill-rule="evenodd">
        <g id="LOGO" transform="translate(-26.000000, -25.000000)" fill="#4e286d">
            <g id="Group"><g id="Logo">
                <path d="M84.8753197,65.4611748 L89.464442,67.9510798 C87.4512343,71.3083698 83.7746884,73.5584683 79.5828138,73.5548239 C73.2399703,73.5504505 68.0830389,68.3855012 68.0881412,62.0419288 C68.0932434,55.6983565 73.2581927,50.5421539 79.6017651,50.5472562 C83.7929108,50.5501718 87.4658122,52.8068304 89.4746466,56.1670359 L84.880422,58.649652 C83.7608394,56.9148821 81.8110455,55.7632281 79.5973917,55.7610414 C76.1285809,55.7588548 73.304842,58.5782203 73.3026553,62.0463022 C73.2997397,65.5143842 76.1191052,68.338123 79.5871872,68.3410386 C81.8015699,68.3424964 83.7528216,67.193758 84.8753197,65.4611748 Z M102.859271,51.0195801 L109.186079,51.0246824 L100.784836,62.0674402 L109.167856,73.1233181 L102.841777,73.1182158 L96.5142407,64.6258613 C96.4282311,64.5114248 96.2933855,64.4436376 96.1505221,64.4436376 C95.8997823,64.4436376 95.6964206,64.6462703 95.6956917,64.8970102 L95.6898605,73.1131135 L90.4913821,73.1087402 L90.5088755,51.0101045 L95.7066251,51.0137489 L95.7007939,59.2298523 C95.7000651,59.4805921 95.9034267,59.6839538 96.1541666,59.6839538 C96.2977589,59.6839538 96.4326044,59.6161666 96.5178851,59.5017301 L102.859271,51.0195801 Z M59.4935956,30.2144413 C56.0255136,30.2115257 53.2017747,33.0308912 53.1988592,36.4989731 C53.1959436,39.9670551 56.016038,42.7907939 59.483391,42.7937095 C62.9522019,42.7966251 65.7759407,39.9772596 65.7788563,36.5091777 C65.781043,33.0410957 62.9616775,30.2166279 59.4935956,30.2144413 Z M59.4797465,48.0082237 C53.1361742,48.0031214 47.9799716,42.8381721 47.9850739,36.4953287 C47.9901762,30.1517563 53.1543966,24.9948248 59.4979689,24.9999271 C65.8408124,25.0050294 70.9977438,30.1699787 70.9926416,36.513551 C70.9875393,42.8563945 65.8233189,48.012597 59.4797465,48.0082237 Z M32.2867186,42.7722071 L35.3101746,42.7743938 C38.7629498,42.7773094 41.5925198,39.9455527 41.5954354,36.4935064 C41.5976221,33.0407313 38.7731543,30.1980411 35.3203791,30.1951255 L32.2969231,30.1929389 L32.2867186,42.7722071 Z M46.793185,36.4971509 C46.7880827,42.5914412 41.8439885,47.5391798 35.7496982,47.5348064 L27.0845956,47.5275175 L27.102818,25.4288818 L35.7671917,25.4354418 C41.861482,25.4405441 46.7975583,30.4028606 46.793185,36.4971509 Z M31.6838496,59.6332227 L43.3279457,59.6426984 C42.3898579,57.3503239 40.135386,55.7299905 37.5091777,55.7278038 C34.8822404,55.7256172 32.6255818,57.3423061 31.6838496,59.6332227 Z M37.513551,50.5140186 C43.4460267,50.518392 48.2691242,55.3495074 48.2647509,61.2827119 C48.264022,62.3687653 48.0234867,63.4868901 47.6182211,64.4052977 L31.6802051,64.3929065 C32.6182928,66.6852809 34.8727648,68.3048854 37.4989731,68.3070721 C39.7133559,68.3092588 41.6638786,67.1605204 42.7863768,65.4272083 L42.7863768,65.4279372 L47.376228,67.9178422 C45.3622914,71.2744033 41.6864744,73.5252307 37.4945998,73.5215863 C31.1517563,73.516484 25.9948248,68.3515347 25.9999271,62.0086912 C26.0050294,55.6651189 31.1699787,50.5089163 37.513551,50.5140186 Z M96.3757506,47.5826219 L96.3895996,30.2436699 L89.8127809,30.2385677 L89.8164254,25.478884 L108.167812,25.4934619 L108.164168,30.2531456 L101.587349,30.2480433 L101.5735,47.5869953 L96.3757506,47.5826219 Z M143.071601,50.5978415 C140.240573,50.5956548 137.946741,48.3739831 137.948926,45.635525 L148.202292,45.6435428 C148.200105,48.382001 145.902629,50.6000282 143.071601,50.5978415 Z M118.855453,42.8412335 C122.323535,42.8441491 125.147273,40.0247836 125.150189,36.5559727 C125.153105,33.0886196 122.333739,30.2641519 118.865657,30.2612363 C115.396846,30.2590496 112.573107,33.0784151 112.570921,36.5464971 C112.568005,40.014579 115.387371,42.8383179 118.855453,42.8412335 Z M125.668433,28.0497692 C125.871066,28.0504981 126.036525,27.8850389 126.036525,27.6824061 L126.037983,25.5073837 L131.236461,25.5117571 L131.218239,47.6103928 L126.02049,47.6067484 L126.022676,45.4324549 C126.022676,45.2290932 125.857946,45.063634 125.654584,45.063634 C125.551081,45.063634 125.451952,45.1080966 125.381978,45.1846306 C123.220804,47.5324011 120.480159,48.0564765 118.4152,48.0550187 C112.071628,48.0499165 107.351304,42.8856961 107.356407,36.5421237 C107.361509,30.1985514 112.090579,25.0423488 118.433422,25.0467222 C120.339483,25.04818 123.233195,25.5780865 125.395827,27.9287726 C125.465801,28.0053066 125.564201,28.0497692 125.667704,28.0497692 L125.668433,28.0497692 Z M115.831997,64.4600377 C115.949349,64.4600377 116.058683,64.402455 116.125012,64.3062409 L125.251505,51.0367091 L131.215324,51.0410825 L131.198559,73.1419049 L125.997165,73.1382604 L126.006641,60.0640725 C126.006641,59.8679998 125.847741,59.7083718 125.65094,59.7076429 C125.534317,59.7076429 125.424253,59.7659545 125.357924,59.8621686 L116.224871,73.1302426 L110.263968,73.1251403 L110.281462,51.0243179 L115.47994,51.0286913 L115.47994,51.030878 L115.482856,51.030878 L115.472651,64.104337 C115.471922,64.3004097 115.63155,64.4600377 115.827623,64.4600377 L115.831997,64.4600377 Z M147.651393,51.0544942 L153.615212,51.0588675 L153.597718,73.1596899 L148.396324,73.1560455 L148.4058,60.0818576 C148.406529,59.8857848 148.246901,59.7261568 148.050828,59.7261568 C147.933476,59.7254279 147.824141,59.7837395 147.757812,59.8799537 L138.624759,73.1480276 L132.663856,73.1429254 L132.68135,51.0428318 L137.879099,51.0464763 L137.879099,51.048663 L137.882744,51.048663 L137.87181,64.1192064 C137.87181,64.3167369 138.032167,64.4778227 138.229698,64.4778227 C138.347779,64.4778227 138.458571,64.4195111 138.5249,64.3225681 L147.651393,51.0544942 Z M60.5512949,68.3251487 C61.6322461,68.3258776 62.5120222,67.4475592 62.5127511,66.3666081 C62.51348,65.3534442 61.5462365,64.418272 60.5542105,64.4153564 L54.6115304,64.4102542 L54.6078859,68.3207753 L60.5512949,68.3251487 Z M54.6180904,55.7407782 L54.6151748,59.6505704 L60.1030246,59.6549438 C61.0950505,59.6542149 62.0637519,58.7197716 62.0644808,57.7073366 C62.0659386,56.6263855 61.1868913,55.7458804 60.1059402,55.7451515 L54.6180904,55.7407782 Z M65.0427454,62.0107321 C65.0427454,62.2017026 65.1389595,62.3788241 65.2964008,62.4867005 C67.2615014,63.8315116 67.8023415,65.5670104 67.8008837,67.3542607 C67.7994259,69.2829166 66.286969,73.0892058 60.1715407,73.0841035 L49.4064919,73.0753568 L49.4239853,50.97745 L59.7342038,50.9854678 C65.8503609,50.9898412 67.3562578,54.7983171 67.3548,56.7277019 C67.3533422,58.7234161 66.8547781,60.0791606 65.2249691,61.5923465 C65.1083459,61.7002229 65.0427454,61.851833 65.0427454,62.0107321 Z M80.1845165,42.8056634 C82.9083968,42.8078501 84.1220068,42.0855152 84.1227357,41.0264309 C84.1234646,40.0059781 83.0170021,39.5562499 80.1874321,38.9155513 C76.5269219,38.0860689 71.622917,37.1355899 71.6272904,31.8416262 C71.6309348,27.6045602 75.0946434,25.0126099 80.1990944,25.0162544 C84.8392394,25.0206277 87.9713008,28.1898628 88.8131744,29.783227 L84.1912518,32.2541808 C82.9667084,30.560229 81.3689708,30.2314974 80.1947211,30.2307685 C78.7034021,30.2300396 76.8294133,30.6520698 76.8286844,31.9669962 C76.8279555,33.1164634 78.0393788,33.4342616 80.1918055,33.9459458 C83.1452877,34.6486005 89.3175697,35.4678784 89.3131963,41.0300754 C89.3095519,45.721243 85.3028166,48.0289243 80.1801432,48.0245509 C75.458362,48.0209064 71.969871,44.6621587 71.1090461,43.0797279 L75.742631,40.7064461 C76.1872569,41.3646382 77.7303274,42.8034767 80.1845165,42.8056634 Z" id="Combined-Shape"></path>
            </g>
            </g>
        </g>
    </g>
</svg>
