<svg xmlns="http://www.w3.org/2000/svg" width="144" height="50" fill="none" style=""><rect id="backgroundrect" width="100%" height="100%" x="0" y="0" fill="none" stroke="none" class="" style=""/>
    

    
<g class="currentLayer" style=""><title>Layer 1</title><path xmlns="http://www.w3.org/2000/svg" d="M50.242,16.06888323804326 v6.324 a1.6920000000000006,1.6920000000000006 0 0 0 2.14,1.608 l26.564,-7.709 a5.225,5.225 0 0 1 4.807,1.016 l7.574,6.348 a1.73,1.73 0 0 0 2.8440000000000003,-1.327 v-6.254 a3.386,3.386 0 0 0 -0.7050000000000006,-2.072 l-9.249,-12.012 a5.106,5.106 0 0 0 -6.382,-1.425 L51.393,14.178883238043255 a2.126,2.126 0 0 0 -1.15,1.8900000000000001 z" fill="#FD0" id="svg_1" class=""/><path xmlns="http://www.w3.org/2000/svg" d="M53.58,34.80188323804325 c-3.365,0 -6.033,1.822 -6.033,5.549 c0,3.728 2.668,5.566 6.033,5.566 s6.006,-1.8210000000000002 6.006,-5.566 s-2.668,-5.549 -6.013,-5.549 h0.0070000000000000565 zm-0.0070000000000000565,8.153 c-1.608,0 -2.6470000000000002,-0.806 -2.6470000000000002,-2.604 s1.04,-2.583 2.6470000000000002,-2.583 c1.608,0 2.624,0.802 2.6270000000000002,2.583 c0.004000000000000027,1.78 -1.039,2.604 -2.6270000000000002,2.604 zm24.777,0.009000000000000079 v-7.95 h-3.3930000000000002 V45.71988323804325 h5.62 l3.5380000000000003,-8.055 v8.055 h3.3930000000000002 V35.013883238043256 h-5.671 l-3.488,7.95 zm-6.737,-2.724 a2.56,2.56 0 0 0 1.016,-2.1630000000000003 c0,-1.7770000000000001 -1.263,-3.047 -3.64,-3.047 h-7.766 v10.678 h8.186 c2.37,0 3.64,-1.283 3.64,-3.047 a2.6100000000000003,2.6100000000000003 0 0 0 -1.436,-2.42 zm-7.015,-2.657 h3.795 c0.5800000000000006,0 0.9450000000000006,0.233 0.9450000000000006,0.772 c0,0.538 -0.3660000000000003,0.7280000000000006 -0.9450000000000006,0.7280000000000006 h-3.795 v-1.5 zm4.134,5.485 h-4.134 v-1.54 h4.134 c0.555,0 0.9410000000000006,0.233 0.9410000000000006,0.7470000000000031 c0,0.515 -0.3860000000000018,0.793 -0.9410000000000006,0.793 zm42.114,-8.054 l-2.783,3.7520000000000002 h-1.432 v-3.7520000000000002 h-3.3930000000000002 V45.71988323804325 h3.3930000000000002 v-4.01 h1.9260000000000002 l2.289,4.009 h3.6660000000000004 l-3.443,-6.057 l3.443,-4.649 h-3.6660000000000004 zm10.022,-0.21200000000000024 c-3.386,0 -6.044,1.8250000000000002 -6.044,5.556 c0,3.73 2.6580000000000004,5.5760000000000005 6.044,5.5760000000000005 c3.3850000000000002,0 6.019,-1.8250000000000002 6.019,-5.5760000000000005 c0,-3.7520000000000002 -2.6710000000000003,-5.556 -6.019,-5.556 zm0,8.163 c-1.612,0 -2.6510000000000002,-0.806 -2.6510000000000002,-2.607 c0,-1.8010000000000002 1.039,-2.587 2.6510000000000002,-2.587 c1.6110000000000002,0 2.6270000000000002,0.806 2.6270000000000002,2.587 c0,1.78 -1.036,2.607 -2.6270000000000002,2.607 zm16.589,-8.092 v-1.8650000000000002 h-2.966 v1.8650000000000002 c-3.819,0.3830000000000018 -6.257,2.225 -6.257,5.468 c0,3.308 2.438,5.1530000000000005 6.257,5.536 v1.862 h2.966 v-1.8800000000000003 c3.795,-0.38200000000000167 6.551,-2.227 6.551,-5.535 c0,-3.243 -2.7560000000000002,-5.078 -6.551,-5.467 v0.01700000000000013 zm-2.966,7.997 c-1.8050000000000002,-0.233 -2.864,-0.9540000000000006 -2.864,-2.5460000000000003 c0,-1.59 1.059,-2.244 2.864,-2.478 v5.024 zm2.966,0 v-5.014 c1.7810000000000001,0.234 2.84,0.931 2.84,2.479 c0,1.5470000000000002 -1.059,2.3120000000000003 -2.84,2.5460000000000003 m-40.06,-4.352 c0,1.733 -4.449,1.7200000000000002 -4.449,0 v-3.515 h-3.3850000000000002 v4.35 c0,4.558 7.566,3.5220000000000002 7.84,2.733 v3.6100000000000003 h3.386 V35.01288323804325 h-3.3850000000000002 l-0.0070000000000000565,3.515 zM0,35.05188323804325 h9.036 v2.955 H3.38 v7.706 H0 V35.05188323804325 zm17.846,-0.20600000000000004 a6.95,6.95 0 0 0 -0.8,-0.04700000000000011 a4.277,4.277 0 0 0 -3.27,1.449 v-1.236 h-3.3850000000000002 v14.71 h3.3850000000000002 V44.54988323804325 a4.258,4.258 0 0 0 3.27,1.354 c0.1840000000000004,0 0.3630000000000003,0 0.54,-0.01700000000000013 c2.779,-0.20600000000000004 4.85,-2.03 4.85,-5.5280000000000005 c0,-3.406 -2,-5.22 -4.59,-5.522 v0.010000000000000054 zm-1.25,8.115 a5.088,5.088 0 0 1 -0.7300000000000006,-0.05000000000000024 h-0.05800000000000024 a1.82,1.82 0 0 1 -0.23700000000000004,-0.04400000000000028 l-0.126,-0.028000000000000108 l-0.2,-0.0600000000000003 c-0.9600000000000006,-0.340000000000002 -1.475,-1.087 -1.475,-2.37 a3.187,3.187 0 0 1 0.23,-1.2770000000000001 c0.020000000000000104,-0.04700000000000011 0.04400000000000028,-0.09800000000000085 0.06700000000000045,-0.1450000000000002 c0.024000000000000105,-0.04800000000000011 0.03400000000000011,-0.06100000000000033 0.05100000000000026,-0.0920000000000007 c0.4270000000000003,-0.7580000000000033 1.236,-1.11 2.286,-1.11 c0.20500000000000004,-0.002000000000000013 0.4100000000000003,0.013000000000000083 0.6120000000000031,0.04400000000000028 c1.55,0.11500000000000048 2.41,0.91 2.41,2.58 c0,1.818 -1.015,2.58 -2.83,2.58 m19.095,-7.937 l-6.094,12.527 a4.2940000000000005,4.2940000000000005 0 0 1 -3.866,2.42 h-1.947 v-2.938 l1.625,0.027000000000000194 c1.114,0.020000000000000104 1.9300000000000002,-1.08 1.9300000000000002,-2.194 l-4.78,-9.819 h3.802 l2.7560000000000002,6.338 l2.742,-6.361 h3.832 zm3.081,6.565 c0,1.375 0.782,1.568 2.258,1.568 c1.12,0 2.133,-0.18600000000000044 2.133,-0.8800000000000031 c0,-0.7450000000000031 -0.8870000000000035,-0.8980000000000036 -1.814,-0.8980000000000036 h-1.29 v-2.322 h1.29 c0.927,0 1.6,-0.2 1.6,-0.8740000000000031 c0,-0.6060000000000006 -0.7370000000000031,-0.8460000000000006 -1.875,-0.8460000000000006 c-1.459,0 -2.092,0.2070000000000002 -2.092,1.127 h-3.166 c0,-2.37 1.9,-3.653 5.258,-3.653 c3.166,0 5.045,1.206 5.045,2.915 c0,1.592 -0.8400000000000006,2.438 -2.238,2.438 c1.425,0 2.661,0.7450000000000031 2.661,2.6710000000000003 c0,1.927 -2.346,3.047 -5.5120000000000005,3.047 c-3.358,0 -5.417,-1.306 -5.417,-4.306 l3.16,0.013000000000000083 z" fill="#3B3835" id="svg_2" class=""/></g></svg>