<svg xmlns="http://www.w3.org/2000/svg" version="1.1" id="Layer_1" x="0" y="0" viewBox="0 0 163 58" xml:space="preserve"><style>.st0{fill:#fff}</style><path class="st0" d="M161.5 8.5c-1.1-.7-2.3 0-3 .9-2.5 3.1-4.9 6.2-7.4 9.3-.7.9-1.5 1.7-2.2 2.5.6-2.2 1.3-4.4 2.1-6.9.9-3-3.6-5.7-4.4-2.3 0 0-3.2 10.4-4.1 15.5-.4 2.4 2 4 4 2.4 2.9-2.3 5.6-4.8 7.9-7.6-.4 1.9-.8 3.8-1.1 5.8-.3 2.1-.3 7.6 2 8.9 1 .6 2.6-1.1 2.5-2.4-.2-2 0-4.2.3-6.2.7-5.7 2.6-11.4 4.8-16.9.4-1 .1-2-1.4-3zm-122 34.7c-4.4 1.4-9.3-2.6-12.1-5.3-4.4-4.5-7.9-9.8-11.3-15.1.1-.1.2-.2.3-.4.1-.1.2-.2.3-.2l.1-.1c.2-.2.5-.4.7-.5 2.7-1.9 5.4-3.7 8.1-5.5 1.8-1.2 1.6-4.6.1-5.3-.6-.3-1.8.6-2.6 1.1-3.9 2.6-7.8 5.3-11.6 8.1 2.6-5.3 5.9-10.4 9.6-15 .8-1 .4-3.1-.5-4.1-.9-.9-2.1-.3-2.9.7-4.9 6-9.1 12.7-12.2 19.8C2.4 28.6.1 36.6 0 44.7c0 1.9 2.1 3 3.6 2.1 2.4-1.4 4.2-4 5.6-6.3 1.3-2.2 2.4-4.5 3.3-6.9.6-1.6 1.2-3.3 1.6-5 3.3 5 6.8 9.9 11.1 13.9 4.4 4.1 12.1 9.5 16.7 4.8 1.7-1.7 1.5-5.4-2.4-4.1zm-30-15.5C9 29.5 8.3 31.4 7.6 33c-.6 1.3-1.3 2.8-2 4.2.8-4.3 2.1-8.4 3.7-12.4.1.1.2.3.4.4v.6c0 .7 0 1.1-.2 1.9z"/><path class="st0" d="M25.7 31.5c.9.9 2.6 1.4 3.5.7 3.3-2.7 5.5-5.2 7.9-7.9-1 2.8-1.9 5.7-2.4 8.6-.3 2-.4 4.2 1.9 5.5 1.1.6 2.4-.1 3.3-.9 1.5-1.4.7-2.8-.5-3.5v-.3c.2-1.4.6-2.7 1-4 1.7-5.8 4.4-11.4 6.5-17.1.4-1.1-.5-2.7-1.5-3.2-1.1-.7-2.1.1-2.9 1-2.8 3.2-5.6 6.5-8.5 9.7-.5.6-1.1 1.2-1.6 1.9.5-1.4 1.1-3 1.8-4.7 1.2-2.9-2.5-6.5-3.7-3.7-2 5.4-3.5 10.7-5.2 16-.3.9-.1 1.4.4 1.9zM70 8.3c2.6 0 12.6-.2 20.7-1.9 3.4-.7 4.8-6 1.4-5.2-7.6 1.9-15.2 2-23 2.2-2.3.1-1.5 4.9.9 4.9z"/><path class="st0" d="M150.9 40.8c-6-5.3-12.1-13-17.5-21.1-.1-.1-.1-.2-.2-.3 3-1.4 6-2.9 8.8-4.9 1.1-.7 1.4-2.5.4-4.1-.9-1.3-1.7-.8-2.8-.1-2.8 2-5.8 3.5-8.9 4.9l.9-2.4c.5-1.2-1.2-2.7-2.4-3-1.4-.4-1.8.5-2.3 1.7-.4.9-.7 1.9-1 2.8l-.1.1c-1.6 3.5-3.6 6.9-5.6 10.2-2.4 4.1-4.8 8.1-7.5 12-.4.6-.9 1.3-1.4 1.9 0 0-.5.6-1.2 1.2 0-.7.1-1.3.2-1.9.4-2.3 1.1-4.5 1.9-6.7.3-.8.5-1.6.8-2.3.3-.8.4-1.1.9-2.1 1-2.2 2.1-4.5 3.3-6.6.6-1 1.3-2 1.9-3 .7-1 1.8-2.4 2.4-3 1.3-1.2 1.3-2.5.5-3.6-.7-.9-1.2-1.3-2.4-.8-4.2 1.5-8.3 3-12.7 4-1-2.4-3.4-3.4-5.9-2.7h-.1c-.3 0-.6.1-.9.3-2.7 1.6-4.7 4-6.3 6.7l-.4.4c-1.4 1.8-2.9 3.6-4.4 5.3.3-1.5.6-3 .8-4.5.4-2 1.7-6-1.2-6.8-2.2-.6-3.8 2-4.9 3.4-1.3 1.7-2.6 3.4-3.8 5.1.1-.3.1-.6.2-.8.4-1.9 1.2-4.1 1.1-6.1-.2-3.1-3.3-3.7-5.7-2.5-.9.5-1.8 1-2.5 1.7-.1-.3-.3-.5-.5-.8-1.1-1.2-3.6-1.2-4.3.8-1.7 4.9-4.9 9.3-8.7 12.9-1.6 1.5-3.3 2.8-5.2 3.9-.7.4-1.7.9-2.1 1.1-.4.1-.8.3-1.2.4-.2.1-1 .2-.9.2h-.8c-.1-.1-.2-.1-.1-.1-.3-.3-.4-.6-.5-1-.4-2.6 1.1-5.5 2.2-7.7s2.2-4.4 3.4-6.5c1-1.6 2-3.4 3.4-4.7v.1c-.1 2.8-1.4 5.6-2.9 8l-.4.6c-.8 1.2-.3 2.7.8 3.8s2.2.5 3.1-1c.2-.3.4-.6.5-.8 1.2-1.8 2.6-3.5 3.9-5.1.8-1 1.3-2.2 0-3.4-.1-.1-.3-.2-.5-.3.1-.3.1-.6.1-1 .3-2.5-.2-5.7-3.1-6.3-2.6-.6-4.8 1.5-6.3 3.3-2 2.4-3.5 5.1-4.9 7.9-1.6 3-3.3 6.2-4 9.5-.7 3.2-.4 7.1 2.7 8.9 4 2.3 9.5-1.1 12.6-3.4 1.2-.9 2.4-1.9 3.5-3L61.2 34c-.3 1-.3 1.5.5 2.1 2.7 1.9 3.7.4 4.2-.8 1.5-4 3.2-8 5.3-11.8.9-1.6 1.9-3.3 3-4.8.4-.5.8-1 1.3-1.4 0 .2-.1.4-.1.6-.3 1.6-.6 3.2-.9 4.7-.6 3.4-1.4 6.7-2.2 10-.2.8-.6 2 .2 2.6 2.2 1.6 3.2 1.1 4.2-.7 2-3.8 4.6-7.4 7.1-10.9.1-.1.1-.2.2-.3l-1.2 7.2c-.2 1.3-.3 2.3.5 2.6.9.3 2.4 1.1 3.9-.6 1.2-1.3 2.3-2.5 3.5-3.8.3 1.9 1.2 3.6 3.1 4.5 2.6 1.1 5.4-.6 7.3-2.4 2.7-2.6 4.4-6.2 5.3-9.8.2-.8.4-1.6.6-2.5 2.1-.4 4.1-1 6.2-1.6-1.2 1.9-2.2 4-3.2 6.1-2 4.3-3.7 8.8-4.6 13.4-.4 2.3-.9 5.3.8 7.2 2.4 2.7 6.1.9 8-1.4 2.3-2.7 4.2-5.8 6.1-8.8.3.7 1.4 1.8 2.2 2.1 1.3.5 2.2-.8 2.6-2 1.2-3.7 2.4-7.3 3.6-11 0-.2.1-.5.2-.7v-.1c0 .1.1.2.1.2 5.8 8.9 10 15 18.7 22.3 1.4 1.2 3.2.5 4.2-.3 1.5-.7.3-2-1-3.1zM96.2 29.1s.1 0 0 0c.1.1 0 0 0 0zm4.9-6c-1.1 2.4-2.7 4.7-4.7 5.7-.1 0-.2.1-.2.1-.1-.1-.1-.3-.2-.3-.1-.4-.2-.7-.2-1.1 0-.9.2-1.8.4-2.7.4-1.3 1-2.6 1.7-3.9 0-.1.1-.1.1-.2 1-1.8 2.4-3.4 4-4.6-.1.4-.1.9 0 1.3s.3.7.5 1c-.3 1.6-.7 3.3-1.4 4.7z"/><path d="M69.3 54.9h-.8v-4.6h.7l1.8 2.3 1.7-2.3h.7v4.6h-.8v-3.4L71 53.7l-1.7-2.1v3.3zm5.8-3.6l-.2-.7c.5-.3 1-.4 1.5-.4.6 0 1.1.2 1.4.5s.4.8.4 1.4v2.8h-.8v-.6c-.3.5-.8.7-1.4.7-.4 0-.8-.1-1-.4s-.4-.6-.4-1c0-.5.2-.8.5-1.1s.7-.4 1.3-.4c.5 0 .9.1 1.1.3 0-.5-.1-.9-.2-1.1-.1-.2-.4-.3-.8-.3-.5 0-.9.1-1.4.3zm1.2 3c.5 0 .9-.2 1.2-.6v-.6c-.3-.2-.6-.3-1-.3-.3 0-.5.1-.7.2s-.3.3-.3.6c0 .2.1.4.2.5.1.1.3.2.6.2zm7.5.6H83V53h-2.6v1.9h-.8v-4.6h.8v1.9H83v-1.9h.8v4.6zm5-3.4l-2.7 3.4h-.8v-4.6h.8v3.4l2.7-3.4h.8v4.6h-.8v-3.4zm3.1 3.4h-.8v-4.6h.8v4.6zm2.1-4.6h1.1l-2 2.2 2.2 2.4h-1.1l-2.1-2.4 1.9-2.2zm3 4.6h-.9v-4.6h.9v1.8h1c.1-.6.4-1.1.8-1.4.4-.4.9-.5 1.6-.5s1.3.2 1.7.7c.4.5.7 1 .7 1.7s-.2 1.3-.7 1.7c-.4.5-1 .7-1.7.7-.6 0-1.2-.2-1.6-.6-.4-.4-.7-.9-.7-1.5h-1v2H97zm2.3-3.4c-.3.3-.4.7-.4 1.1 0 .5.1.9.4 1.1.3.3.6.4 1.1.4s.8-.1 1-.4c.3-.3.4-.7.4-1.2s-.1-.9-.4-1.1c-.3-.3-.6-.4-1.1-.4-.3 0-.7.2-1 .5zm5.5 5.5h-.8v-6.7h.8v.5c.2-.2.4-.3.7-.5.3-.1.6-.2.9-.2.7 0 1.2.2 1.5.7.4.4.6 1 .6 1.7s-.2 1.3-.7 1.8c-.4.5-1 .7-1.7.7-.6 0-1-.1-1.3-.3V57zm1.3-6c-.5 0-1 .2-1.3.6v2.3c.4.2.8.4 1.2.4.5 0 .9-.2 1.2-.5s.4-.7.4-1.2-.1-.9-.4-1.2c-.3-.3-.7-.4-1.1-.4zm9.3.5l-2.7 3.4h-.8v-4.6h.8v3.4l2.7-3.4h.8v4.6h-.8v-3.4zm8.8 3.4h-.8v-3.8h-2.5v3.8h-.9v-4.6h4.1l.1 4.6zm5.1-1.1l.3.6c-.4.4-1 .6-1.7.6-.8 0-1.3-.2-1.8-.7-.5-.4-.7-1-.7-1.8 0-.7.2-1.3.6-1.7.4-.5 1-.7 1.7-.7.6 0 1.1.2 1.5.6.4.4.6.9.6 1.5 0 .2 0 .4-.1.6h-3.5c0 .4.2.8.5 1s.7.4 1.1.4c.7.1 1.1-.1 1.5-.4zm-1.6-2.8c-.4 0-.7.1-1 .3s-.4.5-.5.9h2.8c0-.4-.1-.7-.4-.9-.2-.2-.5-.3-.9-.3zm3.2 5h-.8v-1.9h.6c.2-.2.3-.6.5-1 .1-.5.2-1 .3-1.6l.1-1.2h3.1v3.8h.8V56h-.8v-1.1H131V56h-.1zm1.4-4.9l-.1.8c0 .5-.1 1-.2 1.4-.1.4-.2.7-.4.9h2.2v-3.1h-1.5zm7.5.4l-2.7 3.4h-.8v-4.6h.8v3.4l2.7-3.4h.8v4.6h-.8v-3.4zm3.1 3.4h-.8v-4.6h.8v4.6zm2.1-4.6h1.1l-2 2.2 2.2 2.4h-1.1l-2.1-2.4 1.9-2.2zm3.1 4.6h-.9v-4.6h.9v1.8h1c.1-.6.4-1.1.8-1.4.4-.4.9-.5 1.6-.5.7 0 1.3.2 1.7.7s.7 1 .7 1.7-.2 1.3-.7 1.7c-.4.5-1 .7-1.7.7-.6 0-1.2-.2-1.6-.6-.4-.4-.7-.9-.7-1.5h-1v2h-.1zm2.3-3.4c-.3.3-.4.7-.4 1.1 0 .5.1.9.4 1.1.3.3.6.4 1.1.4s.8-.1 1-.4c.3-.3.4-.7.4-1.2s-.1-.9-.4-1.1c-.3-.3-.6-.4-1.1-.4-.4 0-.8.2-1 .5zm5.4 5.5h-.8v-6.7h.8v.5c.2-.2.4-.3.7-.5.3-.1.6-.2.9-.2.7 0 1.2.2 1.5.7.4.4.6 1 .6 1.7s-.2 1.3-.7 1.8c-.4.5-1 .7-1.7.7-.6 0-1-.1-1.3-.3V57zm1.3-6c-.5 0-1 .2-1.3.6v2.3c.4.2.8.4 1.2.4.5 0 .9-.2 1.2-.5s.4-.7.4-1.2-.1-.9-.4-1.2c-.3-.3-.6-.4-1.1-.4z" fill="#eec5b4"/><circle cx="61.5" cy="52.6" r="3.6" fill="#e280a8"/></svg>
