<?xml version="1.0" encoding="utf-8"?>
<!-- Generator: Adobe Illustrator 25.0.0, SVG Export Plug-In . SVG Version: 6.00 Build 0)  -->
<svg version="1.1" id="Layer_1" xmlns="http://www.w3.org/2000/svg" xmlns:xlink="http://www.w3.org/1999/xlink" x="0px" y="0px"
	 viewBox="0 0 480 455" style="enable-background:new 0 0 480 455;" xml:space="preserve">
<style type="text/css">
	.st0{fill:#59585A;}
	.st1{fill:#EC2027;}
</style>
<g>
	<g>
		<g>
			<path class="st0" d="M0.95,191.15c6.9-43.52,13.81-87.04,20.71-130.56c9.9,20.29,19.74,40.61,29.52,60.96
				c6.39,13.29,12.75,26.6,19.08,39.93c5.94-13.37,12-26.83,18.19-40.36c9.48-20.73,19.01-41.13,28.58-61.19
				c6.85,43.69,13.7,87.38,20.54,131.06c-5.29,0.06-10.58,0.11-15.87,0.17c-3.79-27.68-7.57-55.36-11.36-83.04
				c-13.36,29.4-26.72,58.81-40.08,88.21l0,0c-13.47-29.35-26.95-58.7-40.42-88.04c-4.29,27.62-8.57,55.25-12.86,82.87
				C11.64,191.15,6.3,191.15,0.95,191.15z"/>
		</g>
		<g>
			<path class="st0" d="M0.27,291.4L22.29,260l-21.1-29.56h19.72l10.81,16.76l11.38-16.76h18.97l-20.7,28.87l22.59,32.09H44.14
				l-12.42-18.89L19.19,291.4H0.27z"/>
			<path class="st0" d="M68.02,260.06c0-5.36,1.32-10.54,3.97-15.56c2.64-5.01,6.39-8.84,11.24-11.48
				c4.85-2.64,10.26-3.96,16.24-3.96c9.24,0,16.81,2.99,22.71,8.98c5.9,5.99,8.85,13.56,8.85,22.7c0,9.22-2.98,16.87-8.94,22.93
				c-5.96,6.07-13.46,9.1-22.51,9.1c-5.6,0-10.93-1.26-16.01-3.79c-5.08-2.53-8.94-6.23-11.58-11.11
				C69.35,273,68.02,267.06,68.02,260.06z M84.58,260.92c0,6.05,1.44,10.68,4.31,13.89c2.87,3.21,6.42,4.82,10.64,4.82
				c4.22,0,7.75-1.61,10.61-4.82c2.85-3.21,4.28-7.88,4.28-14.01c0-5.97-1.43-10.56-4.28-13.78c-2.86-3.21-6.39-4.82-10.61-4.82
				c-4.22,0-7.76,1.61-10.64,4.82C86.02,250.24,84.58,254.87,84.58,260.92z"/>
			<path class="st0" d="M146.3,230.44h54.1v60.96h-16.1v-47.87h-22.02v27.38c0,6.96-0.8,11.85-2.41,14.67
				c-1.61,2.81-3.39,4.66-5.35,5.54c-1.95,0.88-5.1,1.32-9.43,1.32c-2.57,0-5.96-0.34-10.18-1.03v-11.88c0.34,0,1.25,0.04,2.7,0.11
				c1.69,0.11,2.99,0.17,3.91,0.17c2.18,0,3.53-0.72,4.02-2.15c0.5-1.44,0.75-5.42,0.75-11.97V230.44z"/>
			<path class="st0" d="M268.38,291.4h-46.22v16.07h-13.11V278.2h6.61c2.76-3.06,5.04-7.84,6.84-14.35
				c1.8-6.51,2.87-17.64,3.22-33.41H275v47.76h6.55v29.27h-13.17V291.4z M259.01,278.2l0.06-34.5h-19.55
				c-0.65,16.84-3.33,28.34-8.05,34.5H259.01z"/>
			<path class="st0" d="M293.42,230.44h15.52v38.29l24.84-38.29h15.87v60.96h-15.52v-38.98l-25.18,38.98h-15.52V230.44z"/>
			<path class="st0" d="M366.75,230.44h16.16v22.33h23.11v-22.33h16.21v60.96h-16.21v-25.6h-23.11v25.6h-16.16V230.44z"/>
			<path class="st0" d="M439.05,230.44h41.22v13.03H455.2v47.93h-16.16V230.44z"/>
		</g>
		<g>
			<g>
				<path class="st0" d="M105.34,339.12h8.34l6.32,17.7l6.37-17.7h8.31v25.4h-5.73V347.8l-6.2,16.72h-5.75l-5.92-16.72v16.72h-5.75
					V339.12z"/>
				<path class="st0" d="M139.73,351.46c0-2.23,0.55-4.39,1.65-6.48c1.1-2.09,2.66-3.68,4.68-4.78c2.02-1.1,4.28-1.65,6.77-1.65
					c3.85,0,7,1.25,9.46,3.74c2.46,2.5,3.69,5.65,3.69,9.46c0,3.84-1.24,7.03-3.73,9.55c-2.48,2.53-5.61,3.79-9.38,3.79
					c-2.33,0-4.56-0.53-6.67-1.58c-2.12-1.05-3.73-2.6-4.83-4.63C140.28,356.85,139.73,354.38,139.73,351.46z M146.63,351.82
					c0,2.52,0.6,4.45,1.8,5.79c1.2,1.34,2.67,2.01,4.43,2.01c1.76,0,3.23-0.67,4.42-2.01c1.19-1.34,1.78-3.28,1.78-5.84
					c0-2.49-0.6-4.4-1.78-5.74c-1.19-1.34-2.66-2.01-4.42-2.01c-1.76,0-3.23,0.67-4.43,2.01S146.63,349.3,146.63,351.82z"/>
				<path class="st0" d="M190.84,328.64h4.58c-0.14,2.03-0.68,3.56-1.59,4.6c-0.92,1.04-3.18,1.57-6.79,1.57
					c-0.43,0-0.86-0.01-1.29-0.02h-0.86c-2.14,0-3.88,0.24-5.22,0.71c-1.34,0.47-2.44,1.38-3.29,2.74c-0.85,1.36-1.3,3.54-1.33,6.55
					c0.99-1.87,2.27-3.26,3.84-4.19c1.57-0.93,3.45-1.39,5.62-1.39c3.34,0,6.16,1.3,8.48,3.89c2.32,2.59,3.47,5.59,3.47,9.01
					c0,3.56-1.22,6.61-3.65,9.16c-2.44,2.55-5.62,3.83-9.55,3.83c-2.7,0-5.07-0.65-7.11-1.94c-2.04-1.29-3.51-3.06-4.38-5.3
					c-0.88-2.24-1.32-5.95-1.32-11.13c0-6.09,1.12-10.47,3.37-13.13c2.24-2.66,6.16-3.99,11.75-3.99h3.4
					C189.88,329.6,190.52,329.28,190.84,328.64z M177.28,352.01c0,2.31,0.58,4.14,1.74,5.49c1.16,1.35,2.58,2.02,4.25,2.02
					c1.8,0,3.29-0.7,4.44-2.09c1.16-1.39,1.74-3.19,1.74-5.39c0-2.25-0.59-4.06-1.76-5.44c-1.17-1.38-2.62-2.07-4.35-2.07
					c-1.68,0-3.11,0.68-4.29,2.03C177.87,347.91,177.28,349.73,177.28,352.01z"/>
				<path class="st0" d="M202.37,339.12h6.47v15.95l10.35-15.95h6.61v25.4h-6.47v-16.24l-10.49,16.24h-6.47V339.12z"/>
				<path class="st0" d="M235.01,339.12h22.54v25.4h-6.71v-19.95h-9.17v11.41c0,2.9-0.34,4.94-1.01,6.11
					c-0.67,1.17-1.41,1.94-2.23,2.31c-0.81,0.37-2.12,0.55-3.93,0.55c-1.07,0-2.48-0.14-4.24-0.43v-4.95c0.14,0,0.52,0.02,1.13,0.05
					c0.7,0.05,1.25,0.07,1.63,0.07c0.91,0,1.47-0.3,1.68-0.9c0.21-0.6,0.31-2.26,0.31-4.99V339.12z"/>
				<path class="st0" d="M264.99,339.12h6.73v10.55h6.76c2.65,0,4.69,0.19,6.11,0.57c1.42,0.38,2.6,1.21,3.55,2.47
					c0.94,1.27,1.41,2.74,1.41,4.41c0,2.46-0.84,4.3-2.53,5.54c-1.68,1.24-4.21,1.85-7.58,1.85h-14.45V339.12z M271.72,360.26H278
					c1.96,0,3.22-0.32,3.77-0.96c0.55-0.64,0.83-1.39,0.83-2.27c0-1.23-0.48-2.07-1.43-2.54c-0.95-0.46-2.64-0.69-5.07-0.69h-4.38
					V360.26z"/>
				<path class="st0" d="M295.23,339.12h6.73v9.3h9.63v-9.3h6.76v25.4h-6.76v-10.67h-9.63v10.67h-6.73V339.12z"/>
				<path class="st0" d="M325.67,339.12h6.73v10.55h6.76c2.65,0,4.68,0.19,6.07,0.56c1.4,0.38,2.58,1.19,3.55,2.45
					c0.97,1.26,1.45,2.74,1.45,4.45c0,2.46-0.85,4.3-2.54,5.54c-1.69,1.24-4.23,1.85-7.62,1.85h-14.4V339.12z M332.4,360.26h6.25
					c1.63,0,2.81-0.26,3.55-0.77c0.73-0.51,1.1-1.34,1.1-2.49c0-1.23-0.48-2.07-1.42-2.52c-0.95-0.45-2.66-0.68-5.11-0.68h-4.36
					V360.26z M354.05,339.12h6.73v25.4h-6.73V339.12z"/>
				<path class="st0" d="M382.74,356.44l6.71,1.12c-0.86,2.46-2.22,4.33-4.08,5.61c-1.86,1.28-4.19,1.93-6.98,1.93
					c-4.42,0-7.7-1.44-9.82-4.33c-1.68-2.31-2.52-5.23-2.52-8.75c0-4.21,1.1-7.51,3.31-9.89c2.2-2.38,4.99-3.58,8.36-3.58
					c3.78,0,6.77,1.25,8.96,3.74c2.19,2.5,3.23,6.32,3.14,11.47h-16.86c0.05,1.99,0.59,3.54,1.63,4.65
					c1.04,1.11,2.33,1.66,3.88,1.66c1.05,0,1.94-0.29,2.66-0.86C381.83,358.64,382.37,357.71,382.74,356.44z M383.12,349.64
					c-0.05-1.94-0.55-3.42-1.51-4.44c-0.96-1.01-2.12-1.52-3.5-1.52c-1.47,0-2.68,0.53-3.64,1.6c-0.96,1.07-1.43,2.52-1.41,4.35
					H383.12z"/>
			</g>
			<g>
				<path class="st0" d="M127.06,449.08h-18.1v6.3h-5.13v-11.47h2.59c1.08-1.2,1.97-3.07,2.68-5.62c0.71-2.55,1.13-6.91,1.26-13.08
					h19.3v18.71h2.57v11.47h-5.16V449.08z M123.39,443.91l0.02-13.51h-7.66c-0.25,6.59-1.31,11.1-3.15,13.51H123.39z"/>
				<path class="st0" d="M136.87,425.21h6.08v15l9.73-15h6.21v23.88h-6.08v-15.26l-9.86,15.26h-6.08V425.21z"/>
				<path class="st0" d="M170.56,432.49l-5.74-1.03c0.64-2.31,1.76-4.02,3.33-5.13c1.58-1.11,3.92-1.66,7.03-1.66
					c2.82,0,4.92,0.33,6.31,1c1.38,0.67,2.35,1.51,2.92,2.54c0.56,1.03,0.84,2.91,0.84,5.65l-0.07,7.37c0,2.1,0.1,3.65,0.3,4.64
					c0.2,1,0.58,2.07,1.14,3.2h-6.26c-0.17-0.42-0.37-1.04-0.61-1.87c-0.11-0.38-0.18-0.62-0.23-0.74
					c-1.08,1.05-2.24,1.84-3.47,2.36c-1.23,0.52-2.54,0.79-3.94,0.79c-2.46,0-4.4-0.67-5.82-2c-1.42-1.33-2.13-3.02-2.13-5.06
					c0-1.35,0.32-2.55,0.97-3.61c0.64-1.06,1.55-1.87,2.71-2.43c1.16-0.56,2.84-1.05,5.03-1.47c2.96-0.55,5.01-1.07,6.15-1.55v-0.63
					c0-1.21-0.3-2.08-0.9-2.6c-0.6-0.52-1.73-0.77-3.4-0.77c-1.13,0-2,0.22-2.64,0.66C171.47,430.61,170.95,431.38,170.56,432.49z
					 M179.03,437.62c-0.81,0.27-2.09,0.59-3.85,0.97s-2.91,0.74-3.45,1.1c-0.83,0.58-1.24,1.33-1.24,2.23
					c0,0.88,0.33,1.65,0.99,2.29c0.66,0.64,1.5,0.97,2.52,0.97c1.14,0,2.23-0.37,3.26-1.12c0.77-0.57,1.27-1.27,1.51-2.09
					c0.16-0.54,0.25-1.57,0.25-3.08V437.62z"/>
				<path class="st0" d="M191.7,425.21h16.14v5.1h-9.82v18.77h-6.33V425.21z"/>
				<path class="st0" d="M211.37,425.21h6.33v8.75h9.05v-8.75h6.35v23.88h-6.35v-10.03h-9.05v10.03h-6.33V425.21z"/>
				<path class="st0" d="M238.47,436.81c0-2.1,0.52-4.13,1.55-6.09c1.04-1.96,2.5-3.46,4.4-4.5c1.9-1.03,4.02-1.55,6.36-1.55
					c3.62,0,6.58,1.17,8.89,3.52c2.31,2.35,3.47,5.31,3.47,8.89c0,3.61-1.17,6.61-3.5,8.98c-2.33,2.38-5.27,3.56-8.82,3.56
					c-2.19,0-4.28-0.49-6.27-1.48c-1.99-0.99-3.5-2.44-4.54-4.35C238.99,441.88,238.47,439.55,238.47,436.81z M244.95,437.15
					c0,2.37,0.56,4.18,1.69,5.44s2.51,1.89,4.17,1.89s3.04-0.63,4.15-1.89c1.12-1.26,1.68-3.09,1.68-5.49c0-2.34-0.56-4.14-1.68-5.4
					c-1.12-1.26-2.5-1.89-4.15-1.89s-3.04,0.63-4.17,1.89S244.95,434.78,244.95,437.15z"/>
				<path class="st0" d="M288.81,432.27l-6.24,1.12c-0.21-1.24-0.69-2.18-1.43-2.81c-0.74-0.63-1.71-0.94-2.89-0.94
					c-1.58,0-2.83,0.54-3.77,1.63c-0.94,1.09-1.41,2.9-1.41,5.45c0,2.83,0.48,4.83,1.43,6c0.95,1.17,2.23,1.75,3.84,1.75
					c1.2,0,2.18-0.34,2.95-1.02c0.77-0.68,1.31-1.85,1.62-3.52l6.21,1.06c-0.65,2.85-1.88,5-3.72,6.45
					c-1.83,1.45-4.29,2.18-7.36,2.18c-3.5,0-6.29-1.1-8.37-3.3c-2.08-2.2-3.12-5.25-3.12-9.15c0-3.94,1.04-7.01,3.13-9.21
					c2.09-2.2,4.91-3.29,8.47-3.29c2.91,0,5.23,0.63,6.95,1.88C286.82,427.8,288.05,429.7,288.81,432.27z"/>
				<path class="st0" d="M291.23,425.21h21.64v5.1h-7.66v18.77h-6.33v-18.77h-7.66V425.21z"/>
				<path class="st0" d="M316.95,425.21h6.08v15l9.73-15h6.21v23.88h-6.08v-15.26l-9.86,15.26h-6.08V425.21z"/>
				<path class="st0" d="M345.67,425.21h6.31v9.76c1.05-0.12,1.79-0.44,2.23-0.97c0.44-0.52,0.96-1.67,1.58-3.44
					c0.81-2.35,1.7-3.86,2.66-4.52c0.96-0.66,2.22-0.99,3.78-0.99c0.48,0,1.31,0.04,2.5,0.11l0.02,4.18c-1.67,0-2.73,0.16-3.2,0.47
					c-0.47,0.33-0.97,1.31-1.51,2.94c-0.74,2.2-1.79,3.56-3.17,4.07c2,0.55,3.68,2.29,5.07,5.19c0.07,0.15,0.16,0.31,0.25,0.47
					l3.53,6.59h-6.8l-3.15-6.9c-0.65-1.39-1.2-2.29-1.68-2.69c-0.47-0.4-1.17-0.6-2.11-0.6v10.18h-6.31V425.21z"/>
				<path class="st0" d="M369.31,425.21h6.08v15l9.73-15h6.21v23.88h-6.08v-15.26l-9.86,15.26h-6.08V425.21z"/>
			</g>
			<g>
				<path class="st0" d="M129.54,389.57l-6.64,1.2c-0.22-1.32-0.73-2.32-1.52-2.99c-0.79-0.67-1.82-1-3.08-1
					c-1.68,0-3.01,0.58-4.01,1.73c-1,1.16-1.5,3.09-1.5,5.8c0,3.01,0.51,5.14,1.52,6.39c1.01,1.24,2.38,1.87,4.08,1.87
					c1.28,0,2.32-0.36,3.14-1.09c0.81-0.73,1.39-1.97,1.72-3.74l6.61,1.12c-0.69,3.03-2,5.32-3.95,6.86s-4.56,2.32-7.83,2.32
					c-3.72,0-6.69-1.17-8.9-3.52c-2.21-2.34-3.32-5.59-3.32-9.73c0-4.19,1.11-7.46,3.33-9.79c2.22-2.34,5.22-3.5,9.01-3.5
					c3.1,0,5.56,0.67,7.39,2C127.43,384.82,128.74,386.84,129.54,389.57z"/>
				<path class="st0" d="M146.99,382.06h6.47v15.95l10.35-15.95h6.61v25.4h-6.47v-16.24l-10.49,16.24h-6.47V382.06z"/>
				<path class="st0" d="M212.01,389.57l-6.64,1.2c-0.22-1.32-0.73-2.32-1.52-2.99c-0.79-0.67-1.82-1-3.08-1
					c-1.68,0-3.01,0.58-4.01,1.73c-1,1.16-1.5,3.09-1.5,5.8c0,3.01,0.51,5.14,1.52,6.39c1.01,1.24,2.38,1.87,4.08,1.87
					c1.28,0,2.32-0.36,3.14-1.09c0.81-0.73,1.39-1.97,1.72-3.74l6.61,1.12c-0.69,3.03-2,5.32-3.95,6.86
					c-1.95,1.55-4.56,2.32-7.83,2.32c-3.72,0-6.69-1.17-8.9-3.52c-2.21-2.34-3.32-5.59-3.32-9.73c0-4.19,1.11-7.46,3.33-9.79
					c2.22-2.34,5.22-3.5,9.01-3.5c3.1,0,5.56,0.67,7.39,2C209.9,384.82,211.21,386.84,212.01,389.57z"/>
				<path class="st0" d="M226.6,382.06h23.02v5.43h-8.14v19.97h-6.73v-19.97h-8.14V382.06z"/>
				<path class="st0" d="M280.89,399.38l6.71,1.12c-0.86,2.46-2.22,4.33-4.08,5.61c-1.86,1.28-4.19,1.93-6.98,1.93
					c-4.42,0-7.7-1.44-9.82-4.33c-1.68-2.31-2.52-5.23-2.52-8.75c0-4.21,1.1-7.51,3.31-9.89c2.2-2.38,4.99-3.58,8.36-3.58
					c3.78,0,6.77,1.25,8.96,3.74c2.19,2.5,3.23,6.32,3.14,11.47h-16.86c0.05,1.99,0.59,3.54,1.63,4.65
					c1.04,1.11,2.33,1.66,3.88,1.66c1.05,0,1.94-0.29,2.66-0.86C279.98,401.58,280.52,400.65,280.89,399.38z M281.27,392.58
					c-0.05-1.94-0.55-3.42-1.51-4.44c-0.96-1.01-2.12-1.52-3.5-1.52c-1.47,0-2.68,0.53-3.64,1.6c-0.96,1.07-1.43,2.52-1.41,4.35
					H281.27z"/>
				<path class="st0" d="M305.5,382.06h8.34l6.32,17.7l6.37-17.7h8.31v25.4h-5.73v-16.72l-6.2,16.72h-5.75l-5.92-16.72v16.72h-5.75
					V382.06z"/>
				<path class="st0" d="M354.16,382.06h6.73v10.55h6.76c2.65,0,4.68,0.19,6.07,0.56c1.4,0.38,2.58,1.19,3.55,2.45
					c0.97,1.26,1.45,2.74,1.45,4.45c0,2.46-0.85,4.3-2.54,5.54c-1.69,1.24-4.23,1.85-7.62,1.85h-14.4V382.06z M360.89,403.2h6.25
					c1.63,0,2.81-0.26,3.55-0.77c0.73-0.51,1.1-1.34,1.1-2.49c0-1.23-0.48-2.07-1.42-2.52c-0.95-0.45-2.66-0.68-5.11-0.68h-4.36
					V403.2z M382.55,382.06h6.73v25.4h-6.73V382.06z"/>
			</g>
		</g>
		<g>
			<path class="st0" d="M315.06,155.21c0.02,8.87,0.03,17.73,0.05,26.6c-3.77,2.63-9.12,6.03-15.87,9.34
				c-7.31,3.58-24.9,11.97-48.54,12.29c-10.73,0.15-31.36,0.28-51.71-12.92c-13.28-8.62-23.39-21.1-30.32-37.44
				c-6.93-16.34-10.4-33.89-10.4-52.64c0-20.45,3.91-38.28,11.74-53.51c7.82-15.22,18.96-26.79,33.4-34.69
				c4.19-2.29,8.5-4.25,12.94-5.88c3.35-1.23,16.34-5.72,34.75-5.97c8.57-0.12,30.65-0.16,53.82,12.33
				c4.64,2.5,8.27,4.94,10.69,6.67c0,8.73,0,17.45,0,26.18c-5.29-5-14.36-12.34-27.39-17.68c-17.78-7.28-33.05-6.77-37.58-6.5
				c-7.11,0.41-23.27,1.55-37.97,12.08c-6.19,4.44-10.09,9.08-11.08,10.29c-4.47,5.43-7.91,11.71-10.32,18.84
				c-4.11,12.19-6.17,24.76-6.17,37.7c0,16.7,2.44,31.27,7.31,43.73c4.87,12.46,12.45,21.76,22.74,27.93
				c5.16,3.09,10.54,5.41,16.14,6.95c1.38,0.38,8.08,2.17,17.27,2.29c12.76,0.16,22.39-3.12,28.47-5.24
				c7.3-2.54,12.43-5.27,17.87-8.17C303.43,163.26,310.2,158.74,315.06,155.21z"/>
		</g>
		<g>
			<path class="st0" d="M378.95,60.5h72.65v105.15h10.75v41.88h-14.09v-27.81h-78.92v27.81h-14.09v-41.88h9.29
				c9.61-14.47,14.42-43.72,14.42-87.74V60.5z M435.8,74.57h-41.62v6.1c0,10.14-0.91,24-2.73,41.59
				c-1.82,17.59-5.39,32.05-10.71,43.38h55.06V74.57z"/>
		</g>
	</g>
</g>
<rect x="274.36" y="65.09" class="st1" width="71.65" height="71.54"/>
</svg>
