<svg width="93" height="93" viewBox="0 0 93 93" fill="none" xmlns="http://www.w3.org/2000/svg">
<path fill-rule="evenodd" clip-rule="evenodd" d="M81.375 5.8125H11.625C10.0834 5.8125 8.605 6.42489 7.51494 7.51494C6.42489 8.605 5.8125 10.0834 5.8125 11.625V81.375C5.8125 82.9166 6.42489 84.395 7.51494 85.4851C8.605 86.5751 10.0834 87.1875 11.625 87.1875H81.375C82.9166 87.1875 84.395 86.5751 85.4851 85.4851C86.5751 84.395 87.1875 82.9166 87.1875 81.375V11.625C87.1875 10.0834 86.5751 8.605 85.4851 7.51494C84.395 6.42489 82.9166 5.8125 81.375 5.8125ZM11.625 0C8.54186 0 5.58499 1.22477 3.40488 3.40488C1.22477 5.58499 0 8.54186 0 11.625L0 81.375C0 84.4581 1.22477 87.415 3.40488 89.5951C5.58499 91.7752 8.54186 93 11.625 93H81.375C84.4581 93 87.415 91.7752 89.5951 89.5951C91.7752 87.415 93 84.4581 93 81.375V11.625C93 8.54186 91.7752 5.58499 89.5951 3.40488C87.415 1.22477 84.4581 0 81.375 0L11.625 0Z" fill="#A32D1F"/>
<path fill-rule="evenodd" clip-rule="evenodd" d="M44.4417 65.9953C44.1711 65.7253 43.9563 65.4046 43.8098 65.0515C43.6633 64.6984 43.5879 64.3199 43.5879 63.9376C43.5879 63.5554 43.6633 63.1769 43.8098 62.8238C43.9563 62.4707 44.1711 62.15 44.4417 61.88L59.8274 46.5001L44.4417 31.1203C44.1715 30.85 43.9572 30.5293 43.8109 30.1762C43.6647 29.8232 43.5894 29.4448 43.5894 29.0626C43.5894 28.6805 43.6647 28.3021 43.8109 27.9491C43.9572 27.596 44.1715 27.2752 44.4417 27.005C44.7119 26.7348 45.0327 26.5205 45.3858 26.3742C45.7388 26.228 46.1172 26.1527 46.4993 26.1527C46.8815 26.1527 47.2599 26.228 47.6129 26.3742C47.966 26.5205 48.2867 26.7348 48.557 27.005L65.9945 44.4425C66.2651 44.7125 66.4798 45.0332 66.6264 45.3863C66.7729 45.7393 66.8483 46.1179 66.8483 46.5001C66.8483 46.8824 66.7729 47.2609 66.6264 47.614C66.4798 47.9671 66.2651 48.2878 65.9945 48.5578L48.557 65.9953C48.287 66.2659 47.9663 66.4806 47.6132 66.6272C47.2601 66.7737 46.8816 66.8491 46.4993 66.8491C46.1171 66.8491 45.7385 66.7737 45.3855 66.6272C45.0324 66.4806 44.7117 66.2659 44.4417 65.9953Z" fill="#A32D1F"/>
<path fill-rule="evenodd" clip-rule="evenodd" d="M26.1562 46.5C26.1562 45.7292 26.4624 44.99 27.0075 44.445C27.5525 43.8999 28.2917 43.5938 29.0625 43.5938H58.125C58.8958 43.5938 59.635 43.8999 60.18 44.445C60.7251 44.99 61.0312 45.7292 61.0312 46.5C61.0312 47.2708 60.7251 48.01 60.18 48.555C59.635 49.1001 58.8958 49.4062 58.125 49.4062H29.0625C28.2917 49.4062 27.5525 49.1001 27.0075 48.555C26.4624 48.01 26.1562 47.2708 26.1562 46.5Z" fill="#A32D1F"/>
</svg>
