<svg width="93" height="93" viewBox="0 0 93 93" fill="none" xmlns="http://www.w3.org/2000/svg">
<path fill-rule="evenodd" clip-rule="evenodd" d="M81.375 5.8125H11.625C10.0834 5.8125 8.605 6.42489 7.51494 7.51494C6.42489 8.605 5.8125 10.0834 5.8125 11.625V81.375C5.8125 82.9166 6.42489 84.395 7.51494 85.4851C8.605 86.5751 10.0834 87.1875 11.625 87.1875H81.375C82.9166 87.1875 84.395 86.5751 85.4851 85.4851C86.5751 84.395 87.1875 82.9166 87.1875 81.375V11.625C87.1875 10.0834 86.5751 8.605 85.4851 7.51494C84.395 6.42489 82.9166 5.8125 81.375 5.8125ZM11.625 0C8.54186 0 5.58499 1.22477 3.40488 3.40488C1.22477 5.58499 0 8.54186 0 11.625L0 81.375C0 84.4581 1.22477 87.415 3.40488 89.5951C5.58499 91.7752 8.54186 93 11.625 93H81.375C84.4581 93 87.415 91.7752 89.5951 89.5951C91.7752 87.415 93 84.4581 93 81.375V11.625C93 8.54186 91.7752 5.58499 89.5951 3.40488C87.415 1.22477 84.4581 0 81.375 0L11.625 0Z" fill="#A32D1F"/>
<path fill-rule="evenodd" clip-rule="evenodd" d="M48.557 65.9953C48.8276 65.7253 49.0423 65.4046 49.1889 65.0515C49.3354 64.6984 49.4108 64.3199 49.4108 63.9376C49.4108 63.5554 49.3354 63.1769 49.1889 62.8238C49.0423 62.4707 48.8276 62.15 48.557 61.88L33.1713 46.5001L48.557 31.1203C48.8272 30.85 49.0415 30.5293 49.1878 30.1762C49.334 29.8232 49.4093 29.4448 49.4093 29.0626C49.4093 28.6805 49.334 28.3021 49.1878 27.9491C49.0415 27.596 48.8272 27.2752 48.557 27.005C48.2867 26.7348 47.966 26.5205 47.6129 26.3742C47.2599 26.228 46.8815 26.1527 46.4993 26.1527C46.1172 26.1527 45.7388 26.228 45.3858 26.3742C45.0327 26.5205 44.7119 26.7348 44.4417 27.005L27.0042 44.4425C26.7336 44.7125 26.5188 45.0332 26.3723 45.3863C26.2258 45.7393 26.1504 46.1179 26.1504 46.5001C26.1504 46.8824 26.2258 47.2609 26.3723 47.614C26.5188 47.9671 26.7336 48.2878 27.0042 48.5578L44.4417 65.9953C44.7117 66.2659 45.0324 66.4806 45.3855 66.6272C45.7385 66.7737 46.1171 66.8491 46.4993 66.8491C46.8816 66.8491 47.2601 66.7737 47.6132 66.6272C47.9663 66.4806 48.287 66.2659 48.557 65.9953Z" fill="#A32D1F"/>
<path fill-rule="evenodd" clip-rule="evenodd" d="M66.8438 46.5C66.8438 45.7292 66.5376 44.99 65.9925 44.445C65.4475 43.8999 64.7083 43.5938 63.9375 43.5938H34.875C34.1042 43.5938 33.365 43.8999 32.82 44.445C32.2749 44.99 31.9688 45.7292 31.9688 46.5C31.9688 47.2708 32.2749 48.01 32.82 48.555C33.365 49.1001 34.1042 49.4062 34.875 49.4062H63.9375C64.7083 49.4062 65.4475 49.1001 65.9925 48.555C66.5376 48.01 66.8438 47.2708 66.8438 46.5Z" fill="#A32D1F"/>
</svg>
