<svg width="25" height="23" viewBox="0 0 25 23" fill="none" xmlns="http://www.w3.org/2000/svg">
<path d="M24.1396 5.03166C23.76 4.1527 23.2127 3.3562 22.5282 2.68674C21.8432 2.01528 21.0356 1.48168 20.1493 1.11496C19.2303 0.733184 18.2445 0.537768 17.2493 0.540059C15.8531 0.540059 14.4909 0.922383 13.3071 1.64455C13.0239 1.8173 12.7549 2.00705 12.5 2.21379C12.2451 2.00705 11.9761 1.8173 11.6929 1.64455C10.5091 0.922383 9.14687 0.540059 7.75068 0.540059C6.74531 0.540059 5.77109 0.732637 4.85068 1.11496C3.96143 1.48313 3.15996 2.01272 2.47178 2.68674C1.78642 3.35544 1.23893 4.15214 0.860352 5.03166C0.466699 5.94641 0.265625 6.91779 0.265625 7.9175C0.265625 8.86057 0.458203 9.84328 0.840527 10.843C1.16055 11.6784 1.61934 12.545 2.20557 13.4201C3.13447 14.805 4.41172 16.2493 5.99766 17.7135C8.62578 20.1405 11.2284 21.8171 11.3389 21.8851L12.0101 22.3155C12.3074 22.5053 12.6897 22.5053 12.9871 22.3155L13.6583 21.8851C13.7688 21.8143 16.3686 20.1405 18.9995 17.7135C20.5854 16.2493 21.8627 14.805 22.7916 13.4201C23.3778 12.545 23.8395 11.6784 24.1566 10.843C24.539 9.84328 24.7315 8.86057 24.7315 7.9175C24.7344 6.91779 24.5333 5.94641 24.1396 5.03166ZM12.5 20.0754C12.5 20.0754 2.41797 13.6155 2.41797 7.9175C2.41797 5.03166 4.80537 2.6924 7.75068 2.6924C9.8209 2.6924 11.6164 3.84787 12.5 5.53576C13.3836 3.84787 15.1791 2.6924 17.2493 2.6924C20.1946 2.6924 22.582 5.03166 22.582 7.9175C22.582 13.6155 12.5 20.0754 12.5 20.0754Z" fill="#2D2D2D"/>
</svg>
