<svg width="38" height="38" viewBox="0 0 38 38" fill="none" xmlns="http://www.w3.org/2000/svg">
<path fill-rule="evenodd" clip-rule="evenodd" d="M25.6654 14C25.6654 15.7682 24.963 17.4638 23.7127 18.7141C22.4625 19.9643 20.7668 20.6667 18.9987 20.6667C17.2306 20.6667 15.5349 19.9643 14.2847 18.7141C13.0344 17.4638 12.332 15.7682 12.332 14C12.332 12.2319 13.0344 10.5362 14.2847 9.286C15.5349 8.03575 17.2306 7.33337 18.9987 7.33337C20.7668 7.33337 22.4625 8.03575 23.7127 9.286C24.963 10.5362 25.6654 12.2319 25.6654 14ZM22.332 14C22.332 14.8841 21.9808 15.7319 21.3557 16.3571C20.7306 16.9822 19.8828 17.3334 18.9987 17.3334C18.1146 17.3334 17.2668 16.9822 16.6417 16.3571C16.0166 15.7319 15.6654 14.8841 15.6654 14C15.6654 13.116 16.0166 12.2681 16.6417 11.643C17.2668 11.0179 18.1146 10.6667 18.9987 10.6667C19.8828 10.6667 20.7306 11.0179 21.3557 11.643C21.9808 12.2681 22.332 13.116 22.332 14Z" fill="#A32D1F"/>
<path fill-rule="evenodd" clip-rule="evenodd" d="M18.9993 0.666687C8.87435 0.666687 0.666016 8.87502 0.666016 19C0.666016 29.125 8.87435 37.3334 18.9993 37.3334C29.1243 37.3334 37.3327 29.125 37.3327 19C37.3327 8.87502 29.1243 0.666687 18.9993 0.666687ZM3.99935 19C3.99935 22.4834 5.18768 25.69 7.17935 28.2367C8.57807 26.3999 10.3825 24.9113 12.4517 23.8872C14.521 22.8631 16.7989 22.3314 19.1077 22.3334C21.3866 22.3312 23.6359 22.8492 25.6842 23.848C27.7326 24.8468 29.526 26.2999 30.9277 28.0967C32.3718 26.2027 33.3441 23.992 33.7642 21.6477C34.1843 19.3033 34.0401 16.8926 33.3435 14.615C32.6469 12.3374 31.418 10.2584 29.7585 8.55008C28.0989 6.84173 26.0564 5.55312 23.8 4.79087C21.5435 4.02862 19.138 3.81464 16.7824 4.16664C14.4269 4.51864 12.189 5.42651 10.254 6.81511C8.31893 8.20371 6.74237 10.0331 5.65473 12.152C4.56709 14.2709 3.99965 16.6183 3.99935 19ZM18.9993 34C15.5559 34.0052 12.2165 32.8206 9.54602 30.6467C10.6209 29.1079 12.0516 27.8516 13.7163 26.9845C15.3811 26.1174 17.2307 25.6654 19.1077 25.6667C20.9613 25.6652 22.7885 26.106 24.4376 26.9524C26.0866 27.7988 27.51 29.0265 28.5893 30.5334C25.8982 32.7779 22.5037 34.0049 18.9993 34Z" fill="#A32D1F"/>
</svg>
