<svg width="24" height="18" viewBox="0 0 24 18" fill="none" xmlns="http://www.w3.org/2000/svg">
<path d="M0.00390625 2.826L11.9994 8.823L23.9949 2.826C23.9505 2.06167 23.6155 1.34323 23.0586 0.81784C22.5017 0.292448 21.765 -0.000140377 20.9994 5.05251e-08H2.99941C2.23378 -0.000140377 1.49708 0.292448 0.940173 0.81784C0.383269 1.34323 0.0483124 2.06167 0.00390625 2.826Z" fill="#2D2D2D"/>
<path d="M24 6.177L12 12.177L0 6.177V15C0 15.7957 0.31607 16.5587 0.87868 17.1213C1.44129 17.6839 2.20435 18 3 18H21C21.7956 18 22.5587 17.6839 23.1213 17.1213C23.6839 16.5587 24 15.7957 24 15V6.177Z" fill="#2D2D2D"/>
</svg>
