<svg width="27" height="27" viewBox="0 0 27 27" fill="none" xmlns="http://www.w3.org/2000/svg">
<path d="M26.2021 24.1313L21.2438 19.1875C22.8435 17.1494 23.7116 14.6326 23.7083 12.0417C23.7083 9.73422 23.0241 7.47859 21.7421 5.56002C20.4602 3.64145 18.6381 2.1461 16.5063 1.26308C14.3745 0.380055 12.0287 0.149016 9.76562 0.599177C7.50251 1.04934 5.42371 2.16048 3.79209 3.79209C2.16048 5.42371 1.04934 7.50251 0.599177 9.76562C0.149016 12.0287 0.380055 14.3745 1.26308 16.5063C2.1461 18.6381 3.64145 20.4602 5.56002 21.7421C7.47859 23.0241 9.73422 23.7083 12.0417 23.7083C14.6326 23.7116 17.1494 22.8435 19.1875 21.2438L24.1313 26.2021C24.2668 26.3388 24.4281 26.4473 24.6058 26.5213C24.7835 26.5953 24.9742 26.6335 25.1667 26.6335C25.3592 26.6335 25.5498 26.5953 25.7275 26.5213C25.9052 26.4473 26.0665 26.3388 26.2021 26.2021C26.3388 26.0665 26.4473 25.9052 26.5213 25.7275C26.5953 25.5498 26.6335 25.3592 26.6335 25.1667C26.6335 24.9742 26.5953 24.7835 26.5213 24.6058C26.4473 24.4281 26.3388 24.2668 26.2021 24.1313ZM3.29167 12.0417C3.29167 10.3111 3.80485 8.61936 4.76631 7.18043C5.72777 5.7415 7.09434 4.61999 8.69319 3.95773C10.292 3.29546 12.0514 3.12218 13.7487 3.4598C15.446 3.79742 17.0051 4.63078 18.2289 5.85449C19.4526 7.0782 20.2859 8.6373 20.6235 10.3346C20.9612 12.032 20.7879 13.7913 20.1256 15.3902C19.4634 16.989 18.3418 18.3556 16.9029 19.317C15.464 20.2785 13.7723 20.7917 12.0417 20.7917C9.72103 20.7917 7.49543 19.8698 5.85449 18.2289C4.21354 16.5879 3.29167 14.3623 3.29167 12.0417Z" fill="#A32D1F"/>
</svg>
