<svg width="34" height="31" viewBox="0 0 34 31" fill="none" xmlns="http://www.w3.org/2000/svg">
<path fill-rule="evenodd" clip-rule="evenodd" d="M33.527 29.1125C34.1355 28.1906 33.9513 26.8578 33.1156 26.1355L21.2391 15.8709L33.1627 5.68082C34.0024 4.9632 34.1937 3.63162 33.59 2.70665L32.9749 1.76436C32.3712 0.839394 31.201 0.671306 30.3613 1.38893L17.3494 12.5091L4.38911 1.3078C3.55342 0.585521 2.38266 0.747303 1.77416 1.66915L1.15616 2.60538C0.547652 3.52723 0.731831 4.86005 1.56753 5.58233L13.4439 15.8468L1.5203 26.037C0.680604 26.7546 0.489322 28.0862 1.09306 29.0112L1.7081 29.9535C2.31185 30.8784 3.48199 31.0465 4.32169 30.3289L17.3336 19.2086L30.2941 30.4101C31.1298 31.1323 32.3005 30.9705 32.909 30.0487L33.527 29.1125Z" fill="white"/>
</svg>
