<svg width="1920" height="218" viewBox="0 0 1920 218" fill="none" xmlns="http://www.w3.org/2000/svg">
<path fill-rule="evenodd" clip-rule="evenodd" d="M1920 218V0H1852.76C1784.24 0 1649.76 0 1514 30.7939C1471.79 40.1233 1429.7 52.4298 1387.66 64.7228C1294.49 91.9654 1201.55 119.141 1108 113.701C1046.46 110.479 985.172 93.1392 923.912 75.8063C850.044 54.9059 776.212 34.0155 702 37.9002C619.246 42.7134 536.963 78.3336 454.577 113.998C401.811 136.841 349.002 159.702 296 174.499C200.252 201.23 105.135 201.645 9.75916 202.061C6.50641 202.075 3.25336 202.089 0 202.105V218H1920Z" fill="white"/>
</svg>
