<svg width="103" height="104" viewBox="0 0 103 104" fill="none" xmlns="http://www.w3.org/2000/svg">
<path d="M102.1 98.4141L71.0003 66.625C77.2003 59.1094 80.3003 50.4427 80.3003 40.625C80.3003 33.2448 78.517 26.4401 74.9503 20.2109C71.3836 13.9818 66.517 9.05599 60.3503 5.43359C54.1836 1.8112 47.4836 0 40.2503 0C33.017 0 26.3336 1.8112 20.2003 5.43359C14.067 9.05599 9.21696 13.9818 5.65029 20.2109C2.08363 26.4401 0.300293 33.2448 0.300293 40.625C0.300293 48.0052 2.08363 54.8099 5.65029 61.0391C9.21696 67.2682 14.067 72.194 20.2003 75.8164C26.3336 79.4388 33.0336 81.25 40.3003 81.25C50.2336 81.25 58.967 77.9323 66.5003 71.2969L97.5003 102.984C98.167 103.661 98.9336 104 99.8003 104C100.667 104 101.417 103.678 102.05 103.035C102.684 102.392 103 101.613 103 100.699C103 99.7852 102.7 99.0234 102.1 98.4141ZM40.3003 74.8516C34.167 74.8516 28.517 73.3112 23.3503 70.2305C18.1836 67.1497 14.1003 62.9857 11.1003 57.7383C8.10029 52.4909 6.60029 46.7865 6.60029 40.625C6.60029 34.4635 8.10029 28.7591 11.1003 23.5117C14.1003 18.2643 18.1836 14.1003 23.3503 11.0195C28.517 7.9388 34.1503 6.39844 40.2503 6.39844C46.3503 6.39844 51.9836 7.9388 57.1503 11.0195C62.317 14.1003 66.4003 18.2643 69.4003 23.5117C72.4003 28.7591 73.9003 34.4635 73.9003 40.625C73.9003 43.2656 73.6003 45.8724 73.0003 48.4453C72.4003 51.0182 71.5503 53.4219 70.4503 55.6562C69.3503 57.8906 68.0336 60.0065 66.5003 62.0039C64.967 64.0013 63.2336 65.7786 61.3003 67.3359C59.367 68.8932 57.3003 70.2305 55.1003 71.3477C52.9003 72.4648 50.5336 73.3281 48.0003 73.9375C45.467 74.5469 42.9003 74.8516 40.3003 74.8516Z" fill="white"/>
</svg>
