<svg width="67" height="90" viewBox="0 0 67 90" fill="none" xmlns="http://www.w3.org/2000/svg">
<path fill-rule="evenodd" clip-rule="evenodd" d="M35.3365 0.411747C43.5553 0.839017 51.3245 4.29554 57.1446 10.1142C62.5434 15.513 65.9223 22.6035 66.715 30.1972C67.5076 37.7909 65.6659 45.4264 61.4986 51.8237L38.3554 87.3512C37.8404 88.1418 37.1363 88.7913 36.3068 89.2409C35.4773 89.6905 34.5487 89.926 33.6052 89.926C32.6617 89.926 31.7331 89.6905 30.9036 89.2409C30.0741 88.7913 29.37 88.1418 28.855 87.3512L5.71263 51.8237C1.22136 44.9274 -0.556178 36.6119 0.723087 28.482C2.00235 20.3522 6.24773 12.9843 12.6399 7.80054C19.032 2.61675 27.1177 -0.0155221 35.3365 0.411747ZM33.6053 83.4216L56.3666 48.4804C63.3338 37.7849 61.8396 23.4715 52.8137 14.4452C50.2912 11.9226 47.2966 9.92165 44.0008 8.55647C40.7051 7.19128 37.1726 6.48863 33.6053 6.48863C30.038 6.48863 26.5056 7.19128 23.2098 8.55647C19.914 9.92165 16.9194 11.9226 14.3969 14.4452C5.37097 23.4715 3.87666 37.7849 10.8438 48.4804L33.6053 83.4216ZM26.7997 23.4864C28.8142 22.1403 31.1827 21.4219 33.6055 21.4219C36.8532 21.4256 39.9669 22.7174 42.2635 25.0139C44.56 27.3104 45.8518 30.4241 45.8555 33.6719C45.8555 36.0947 45.137 38.4631 43.791 40.4776C42.4449 42.4921 40.5317 44.0622 38.2934 44.9894C36.055 45.9166 33.5919 46.1592 31.2156 45.6865C28.8394 45.2138 26.6566 44.0471 24.9434 42.3339C23.2302 40.6207 22.0635 38.438 21.5909 36.0617C21.1182 33.6855 21.3608 31.2224 22.288 28.984C23.2151 26.7456 24.7852 24.8324 26.7997 23.4864ZM30.2026 38.7646C31.2099 39.4376 32.3941 39.7969 33.6055 39.7969C35.2294 39.795 36.7862 39.1491 37.9344 38.0008C39.0827 36.8526 39.7286 35.2957 39.7305 33.6719C39.7305 32.4605 39.3713 31.2763 38.6982 30.269C38.0252 29.2618 37.0686 28.4767 35.9494 28.0131C34.8302 27.5495 33.5987 27.4282 32.4105 27.6646C31.2224 27.9009 30.131 28.4842 29.2744 29.3408C28.4179 30.1974 27.8345 31.2888 27.5982 32.4769C27.3618 33.6651 27.4831 34.8966 27.9467 36.0158C28.4103 37.135 29.1954 38.0916 30.2026 38.7646Z" fill="white"/>
</svg>
