<svg width="183" height="205" viewBox="0 0 183 205" fill="none" xmlns="http://www.w3.org/2000/svg">
<path fill-rule="evenodd" clip-rule="evenodd" d="M43.1916 32.3203C49.1624 32.3203 51.5877 30.1685 51.5877 24.8932V7.5082C51.5877 2.22715 49.1624 0.0782471 43.1916 0.0782471C37.2038 0.0782471 34.7784 2.23 34.7784 7.5082V24.896C34.7784 30.1714 37.2038 32.3203 43.1916 32.3203ZM160.081 16.1988H178.66C180.661 16.1988 182.268 17.809 182.268 19.8012V56.4493C182.268 58.4443 180.661 60.0574 178.657 60.0574H4.33686C2.34471 60.0574 0.72876 58.4443 0.72876 56.4493V19.8012C0.72876 17.809 2.34471 16.1988 4.33686 16.1988H23.1383V24.8941C23.1383 34.1139 28.4108 43.9606 43.1909 43.9606C57.9682 43.9606 63.2264 34.1139 63.2264 24.8941V16.1988H120.007V24.8941C120.007 34.1139 125.268 43.9606 140.045 43.9606C154.823 43.9606 160.081 34.1139 160.081 24.8941V16.1988ZM4.33686 72.5532H178.66C180.661 72.5532 182.268 74.1634 182.268 76.1556V201.316C182.268 203.306 180.661 204.919 178.657 204.919H4.33686C2.34471 204.919 0.72876 203.306 0.72876 201.316V76.1556C0.72876 74.1634 2.34471 72.5532 4.33686 72.5532ZM43.4189 175.293C48.5489 177.322 55.1951 178.53 61.2115 178.53C80.2039 178.53 92.4646 169.094 92.4646 154.496C92.4646 144.265 85.4023 139.428 78.491 136.764C86.5423 132.967 90.4667 127.382 90.4667 119.792C90.4667 109.672 80.6285 102.871 65.9881 102.871C57.7744 102.871 50.8232 104.163 45.3142 106.71C44.9649 106.874 44.6771 107.145 44.493 107.484C44.3089 107.823 44.2381 108.212 44.291 108.594L45.9668 120.826C46.0047 121.109 46.1093 121.379 46.2721 121.613C46.4349 121.847 46.6512 122.039 46.9031 122.173C47.1549 122.307 47.435 122.379 47.7202 122.384C48.0055 122.388 48.2876 122.324 48.5432 122.197C53.2742 119.883 57.8713 118.703 62.2004 118.703C70.2944 118.703 70.2944 121.753 70.2944 123.574C70.2944 126.264 68.9122 129.941 56.9564 130.784C56.0159 130.853 55.2892 131.639 55.2892 132.586V144.821C55.2877 145.281 55.4628 145.723 55.7783 146.058C56.0938 146.393 56.5257 146.593 56.9849 146.619C70.8673 147.411 73.4066 150.227 73.4066 155.491C73.4066 159.732 69.0347 162.696 62.759 162.696C56.7712 162.696 52.0288 161.824 46.3886 159.695C46.1343 159.6 45.8621 159.564 45.5919 159.588C45.3218 159.612 45.0604 159.697 44.8268 159.834C44.5951 159.972 44.3978 160.161 44.2497 160.386C44.1016 160.611 44.0065 160.867 43.9718 161.134L42.2903 173.372C42.2357 173.772 42.3173 174.179 42.522 174.528C42.7267 174.876 43.0426 175.146 43.4189 175.293ZM136.828 176.889C137.167 176.551 137.357 176.093 137.358 175.615H137.361V105.79C137.361 104.792 136.551 103.986 135.557 103.986H128.115C127.837 103.987 127.562 104.05 127.312 104.171L105.956 114.733C105.618 114.899 105.34 115.168 105.163 115.501C104.986 115.834 104.919 116.215 104.97 116.589L106.638 128.826C106.672 129.095 106.767 129.353 106.917 129.579C107.067 129.805 107.267 129.993 107.501 130.129C107.734 130.269 107.996 130.354 108.266 130.377C108.537 130.401 108.809 130.363 109.063 130.266L118.853 126.532V175.615C118.853 175.852 118.899 176.086 118.99 176.305C119.081 176.524 119.214 176.722 119.381 176.89C119.549 177.057 119.748 177.189 119.967 177.28C120.185 177.37 120.42 177.416 120.657 177.416H135.554C136.032 177.416 136.49 177.226 136.828 176.889ZM148.442 24.8932C148.442 30.1685 146.017 32.3203 140.046 32.3203C134.059 32.3203 131.647 30.1714 131.65 24.896V7.5082C131.65 2.23 134.059 0.0782471 140.046 0.0782471C146.017 0.0782471 148.442 2.22715 148.442 7.5082V24.8932Z" fill="#FF5722"/>
</svg>
