<svg width="167" height="45" viewBox="0 0 167 45" fill="none" xmlns="http://www.w3.org/2000/svg">
<path d="M63.9367 18.0965L58.49 6.22874C58.1733 5.5941 58.015 5.53064 57.6983 5.53064C57.3183 5.53064 57.0017 5.72103 57.0017 6.4826V20.286H54.025V6.89511C54.025 3.97577 55.45 2.76996 57.8567 2.76996C59.5667 2.76996 60.4533 3.53153 61.1183 4.99119L66.5967 17.1763C66.7867 17.6522 66.9767 17.7474 67.2617 17.7474C67.5467 17.7474 67.705 17.684 67.9267 17.1763L73.405 4.99119C74.0383 3.53153 74.9567 2.76996 76.6667 2.76996C79.0733 2.76996 80.4983 3.97577 80.4983 6.89511V20.286H77.5217V6.4826C77.5217 5.6893 77.205 5.53064 76.825 5.53064C76.5083 5.53064 76.3183 5.5941 76.0333 6.22874L70.5867 18.0965C69.6367 20.1908 68.94 20.6668 67.2617 20.6668C65.5833 20.6668 64.855 20.1908 63.9367 18.0965Z" fill="#0B3249"/>
<path d="M100.385 17.0158H87.4017L86.135 19.713L85.945 20.2842H82.4617C82.525 19.9986 82.62 19.8082 82.7467 19.5226L89.27 6.00478C90.3783 3.75181 91.5183 2.73639 93.7667 2.73639C95.7933 2.73639 96.9967 3.56142 97.8833 5.27495L104.977 19.5226C105.167 19.8082 105.167 20.062 105.262 20.2842H101.905C101.842 20.0938 101.778 19.9351 101.715 19.713L100.385 17.0158ZM88.6367 14.3503H99.055L95.255 6.54422C94.9383 5.84612 94.4317 5.5288 93.7983 5.5288C93.1017 5.5288 92.7217 5.78266 92.3417 6.51249L88.6367 14.3503Z" fill="#0B3249"/>
<path d="M130.183 3.11716C130.057 3.27582 129.867 3.43448 129.645 3.68833L121.158 11.2405L130.595 19.7447C130.817 19.9351 130.975 20.1255 131.102 20.2842H126.605C126.478 20.0938 126.32 19.9034 126.162 19.7764L118.783 13.0175L111.278 19.8082C111.088 19.9986 110.93 20.1255 110.803 20.3159H106.497C106.687 20.1255 106.782 19.9986 107.003 19.7764L116.598 11.2088L108.302 3.72006C108.08 3.52967 107.89 3.33928 107.763 3.14889H112.228C112.355 3.33928 112.513 3.49794 112.703 3.68833L119.005 9.46355L125.37 3.68833C125.592 3.49794 125.75 3.30755 125.877 3.14889H130.183V3.11716Z" fill="#0B3249"/>
<path d="M136.137 3.11716V20.2842H133.16V3.11716H136.137Z" fill="#0B3249"/>
<path d="M148.835 18.0947L143.388 6.22691C143.072 5.59227 142.913 5.52881 142.597 5.52881C142.217 5.52881 141.9 5.7192 141.9 6.48077V20.2842H138.923V6.89328C138.923 3.97394 140.348 2.76813 142.755 2.76813C144.465 2.76813 145.352 3.52969 146.017 4.98936L151.495 17.1744C151.685 17.6504 151.875 17.7456 152.16 17.7456C152.445 17.7456 152.603 17.6821 152.825 17.1744L158.303 4.98936C158.937 3.52969 159.855 2.76813 161.565 2.76813C163.972 2.76813 165.397 3.97394 165.397 6.89328V20.2842H162.42V6.48077C162.42 5.68747 162.103 5.52881 161.723 5.52881C161.407 5.52881 161.217 5.59227 160.932 6.22691L155.485 18.0947C154.535 20.189 153.838 20.6649 152.16 20.6649C150.482 20.6649 149.785 20.189 148.835 18.0947Z" fill="#0B3249"/>
<path d="M53.74 27.17H56.4C57.7933 27.17 58.6483 27.8681 58.6483 29.0739C58.6483 30.0894 58.015 30.5336 57.54 30.6605C58.0783 30.8509 58.87 31.3269 58.87 32.5645C58.87 34.0241 57.7933 34.8174 56.305 34.8174H53.74V27.17ZM56.1783 30.3432C57.255 30.3432 57.6983 29.899 57.6983 29.1374C57.6983 28.4393 57.255 27.9316 56.2733 27.9316H54.69V30.3432H56.1783ZM54.6583 34.0876H56.21C57.16 34.0876 57.8883 33.6116 57.8883 32.5962C57.8883 31.676 57.3183 31.1048 56.115 31.1048H54.6583V34.0876Z" fill="#0B3249"/>
<path d="M61.53 27.17V32.0567C61.53 33.2626 61.9733 34.151 63.335 34.151C64.6966 34.151 65.1083 33.326 65.1083 32.0567V27.17H66.09V32.0885C66.09 33.7068 65.425 34.9443 63.335 34.9443C61.4033 34.9443 60.6116 33.9289 60.6116 32.1519V27.17H61.53Z" fill="#0B3249"/>
<path d="M68.5916 32.6596C68.75 33.6433 69.415 34.1193 70.3333 34.1193C71.2516 34.1193 71.8533 33.6433 71.8533 32.7866C71.8533 31.9298 71.4416 31.5808 70.1116 31.1682C68.4966 30.6923 67.895 30.1528 67.895 29.0422C67.895 27.8364 68.8133 27.0431 70.2383 27.0431C71.885 27.0431 72.5816 28.0268 72.6766 29.1057H71.7266C71.6 28.3124 71.1566 27.8364 70.2066 27.8364C69.32 27.8364 68.8766 28.2806 68.8766 28.9787C68.8766 29.7086 69.2883 29.9942 70.4916 30.3432C72.3916 30.9144 72.835 31.6442 72.835 32.6914C72.835 33.9607 71.9483 34.9126 70.3016 34.9126C68.7183 34.9126 67.7683 34.0559 67.6733 32.6596H68.5916Z" fill="#0B3249"/>
<path d="M75.5583 27.17V34.8492H74.6083V27.17H75.5583Z" fill="#0B3249"/>
<path d="M77.9016 34.8492V27.17H79.1683C82.2083 32.6279 82.62 33.3577 82.7783 33.6751C82.715 32.6596 82.6833 31.4221 82.6833 30.1846V27.17H83.57V34.8492H82.3983C79.1366 28.947 78.8833 28.471 78.725 28.1537C78.7883 29.1374 78.7566 30.4384 78.7566 31.8029V34.8492H77.9016Z" fill="#0B3249"/>
<path d="M90.2833 31.2317H86.8316V34.0241H90.6316L90.505 34.8492H85.9133V27.17H90.4416V27.995H86.8316V30.4067H90.2833V31.2317Z" fill="#0B3249"/>
<path d="M92.88 32.6596C93.0383 33.6433 93.7033 34.1193 94.6216 34.1193C95.54 34.1193 96.1416 33.6433 96.1416 32.7866C96.1416 31.9298 95.73 31.5808 94.4 31.1682C92.785 30.6923 92.1833 30.1528 92.1833 29.0422C92.1833 27.8364 93.1016 27.0431 94.5266 27.0431C96.1733 27.0431 96.87 28.0268 96.965 29.1057H96.015C95.8883 28.3124 95.445 27.8364 94.495 27.8364C93.6083 27.8364 93.165 28.2806 93.165 28.9787C93.165 29.7086 93.5766 29.9942 94.78 30.3432C96.68 30.9144 97.1233 31.6442 97.1233 32.6914C97.1233 33.9607 96.2366 34.9126 94.59 34.9126C93.0066 34.9126 92.0566 34.0559 91.9616 32.6596H92.88Z" fill="#0B3249"/>
<path d="M99.435 32.6596C99.5933 33.6433 100.258 34.1193 101.177 34.1193C102.095 34.1193 102.697 33.6433 102.697 32.7866C102.697 31.9298 102.285 31.5808 100.955 31.1682C99.34 30.6923 98.7383 30.1528 98.7383 29.0422C98.7383 27.8364 99.6567 27.0431 101.082 27.0431C102.728 27.0431 103.425 28.0268 103.52 29.1057H102.57C102.443 28.3124 102 27.8364 101.05 27.8364C100.163 27.8364 99.72 28.2806 99.72 28.9787C99.72 29.7086 100.132 29.9942 101.335 30.3432C103.235 30.9144 103.678 31.6442 103.678 32.6914C103.678 33.9607 102.792 34.9126 101.145 34.9126C99.5617 34.9126 98.6117 34.0559 98.5167 32.6596H99.435Z" fill="#0B3249"/>
<path d="M108.872 32.6596C109.03 33.6433 109.695 34.1193 110.613 34.1193C111.532 34.1193 112.133 33.6433 112.133 32.7866C112.133 31.9298 111.722 31.5808 110.392 31.1682C108.777 30.6923 108.175 30.1528 108.175 29.0422C108.175 27.8364 109.093 27.0431 110.518 27.0431C112.165 27.0431 112.862 28.0268 112.957 29.1057H112.007C111.88 28.3124 111.437 27.8364 110.487 27.8364C109.6 27.8364 109.157 28.2806 109.157 28.9787C109.157 29.7086 109.568 29.9942 110.772 30.3432C112.672 30.9144 113.115 31.6442 113.115 32.6914C113.115 33.9607 112.228 34.9126 110.582 34.9126C108.998 34.9126 108.048 34.0559 107.953 32.6596H108.872Z" fill="#0B3249"/>
<path d="M120.937 30.9461C120.937 33.1356 119.923 34.9443 117.675 34.9443C115.553 34.9443 114.508 33.2625 114.508 30.9461C114.508 28.947 115.553 27.0431 117.77 27.0431C119.892 27.0748 120.937 28.7566 120.937 30.9461ZM115.49 30.9461C115.49 32.7548 116.218 34.151 117.738 34.151C119.322 34.151 119.987 32.7548 119.987 30.9779C119.987 29.2326 119.29 27.8681 117.738 27.8681C116.187 27.8681 115.49 29.2643 115.49 30.9461Z" fill="#0B3249"/>
<path d="M122.868 27.17H123.818V34.0241H127.492L127.365 34.8492H122.868V27.17Z" fill="#0B3249"/>
<path d="M129.582 27.17V32.0567C129.582 33.2626 130.025 34.151 131.387 34.151C132.748 34.151 133.16 33.326 133.16 32.0567V27.17H134.142V32.0885C134.142 33.7068 133.477 34.9443 131.387 34.9443C129.455 34.9443 128.663 33.9289 128.663 32.1519V27.17H129.582Z" fill="#0B3249"/>
<path d="M137.815 27.995H135.567V27.17H141.013V27.995H138.765V34.8492H137.815V27.995Z" fill="#0B3249"/>
<path d="M143.388 27.17V34.8492H142.438V27.17H143.388Z" fill="#0B3249"/>
<path d="M151.748 30.9461C151.748 33.1356 150.735 34.9443 148.487 34.9443C146.365 34.9443 145.32 33.2625 145.32 30.9461C145.32 28.947 146.365 27.0431 148.582 27.0431C150.703 27.0748 151.748 28.7566 151.748 30.9461ZM146.302 30.9461C146.302 32.7548 147.03 34.151 148.55 34.151C150.133 34.151 150.798 32.7548 150.798 30.9779C150.798 29.2326 150.102 27.8681 148.55 27.8681C146.998 27.8681 146.302 29.2643 146.302 30.9461Z" fill="#0B3249"/>
<path d="M153.68 34.8492V27.17H154.947C157.987 32.6279 158.398 33.3577 158.557 33.6751C158.493 32.6596 158.462 31.4221 158.462 30.1846V27.17H159.348V34.8492H158.177C154.915 28.947 154.662 28.471 154.503 28.1537C154.567 29.1374 154.535 30.4384 154.535 31.8029V34.8492H153.68Z" fill="#0B3249"/>
<path d="M162.008 32.6596C162.167 33.6433 162.832 34.1193 163.75 34.1193C164.668 34.1193 165.27 33.6433 165.27 32.7866C165.27 31.9298 164.858 31.5808 163.528 31.1682C161.913 30.6923 161.312 30.1528 161.312 29.0422C161.312 27.8364 162.23 27.0431 163.655 27.0431C165.302 27.0431 165.998 28.0268 166.093 29.1057H165.143C165.017 28.3124 164.573 27.8364 163.623 27.8364C162.737 27.8364 162.293 28.2806 162.293 28.9787C162.293 29.7086 162.705 29.9942 163.908 30.3432C165.808 30.9144 166.252 31.6442 166.252 32.6914C166.252 33.9607 165.365 34.9126 163.718 34.9126C162.135 34.9126 161.185 34.0559 161.09 32.6596H162.008Z" fill="#0B3249"/>
<path d="M9.47 4.60858V16.0638H21.6933V27.7729H32.5867V4.60858H9.47Z" fill="white"/>
<path d="M6.01832 0.927673V16.0956H9.59665V14.1599H9.65999V4.57685H32.7766V27.7412H21.9466V31.3904H36.4183V0.927673H6.01832Z" fill="#FC5A00"/>
<path d="M19.255 38.4349H0.254993V19.3957H19.255V38.4349ZM2.78833 35.8963H16.7217V21.9342H2.78833V35.8963Z" fill="#0B3249"/>
<path d="M29.23 23.6795L13.7133 8.13083H29.23V23.6795Z" fill="#0B3249"/>
<path d="M27.33 34.151H21.3133V40.1801H27.33V34.151Z" fill="#0B3249"/>
<path d="M19.92 40.4974H17.07V43.3533H19.92V40.4974Z" fill="#FC5A00"/>
<path d="M25.05 42.084H22.77V44.3687H25.05V42.084Z" fill="#0B3249"/>
</svg>
