<svg width="1124" height="179" viewBox="0 0 1124 179" fill="none" xmlns="http://www.w3.org/2000/svg">
<path fill-rule="evenodd" clip-rule="evenodd" d="M181.421 62.9305L125.384 54.7866L100.335 4.00279C99.6504 2.61237 98.5248 1.48678 97.1344 0.802599C93.6473 -0.918885 89.4098 0.515685 87.6662 4.00279L62.6164 54.7866L6.57987 62.9305C5.03495 63.1512 3.62245 63.8796 2.541 64.9831C1.2336 66.3269 0.513154 68.1347 0.537985 70.0094C0.562815 71.8841 1.33088 73.6722 2.67342 74.9809L43.2166 114.509L33.6381 170.325C33.4135 171.623 33.5571 172.958 34.0528 174.179C34.5485 175.4 35.3764 176.458 36.4425 177.232C37.5087 178.007 38.7705 178.467 40.0848 178.56C41.3992 178.654 42.7135 178.378 43.8787 177.762L94.0004 151.41L144.122 177.762C145.49 178.491 147.079 178.733 148.602 178.469C152.443 177.807 155.025 174.165 154.363 170.325L144.784 114.509L185.327 74.9809C186.431 73.8995 187.159 72.487 187.38 70.9421C187.976 67.0798 185.283 63.5044 181.421 62.9305ZM127.724 108.947L135.691 155.361L94.0004 133.467L52.3096 155.383L60.2769 108.969L26.5535 76.0844L73.166 69.3089L94.0004 27.0883L114.835 69.3089L161.447 76.0844L127.724 108.947ZM415.421 62.9305L359.384 54.7866L334.335 4.00279C333.65 2.61237 332.525 1.48678 331.134 0.802599C327.647 -0.918885 323.41 0.515685 321.666 4.00279L296.616 54.7866L240.58 62.9305C239.035 63.1512 237.622 63.8796 236.541 64.9831C235.234 66.3269 234.513 68.1347 234.538 70.0094C234.563 71.8841 235.331 73.6722 236.673 74.9809L277.217 114.509L267.638 170.325C267.413 171.623 267.557 172.958 268.053 174.179C268.549 175.4 269.376 176.458 270.443 177.232C271.509 178.007 272.77 178.467 274.085 178.56C275.399 178.654 276.713 178.378 277.879 177.762L328 151.41L378.122 177.762C379.49 178.491 381.079 178.733 382.602 178.469C386.443 177.807 389.025 174.165 388.363 170.325L378.784 114.509L419.327 74.9809C420.431 73.8995 421.159 72.487 421.38 70.9421C421.976 67.0798 419.283 63.5044 415.421 62.9305ZM361.724 108.947L369.691 155.361L328 133.467L286.31 155.383L294.277 108.969L260.553 76.0844L307.166 69.3089L328 27.0883L348.835 69.3089L395.447 76.0844L361.724 108.947ZM593.384 54.7866L649.421 62.9305C653.283 63.5044 655.976 67.0798 655.38 70.9421C655.159 72.487 654.431 73.8995 653.327 74.9809L612.784 114.509L622.363 170.325C623.025 174.165 620.443 177.807 616.602 178.469C615.079 178.733 613.49 178.491 612.122 177.762L562 151.41L511.879 177.762C510.713 178.378 509.399 178.654 508.085 178.56C506.77 178.467 505.509 178.007 504.443 177.232C503.376 176.458 502.548 175.4 502.053 174.179C501.557 172.958 501.413 171.623 501.638 170.325L511.217 114.509L470.673 74.9809C469.331 73.6722 468.563 71.8841 468.538 70.0094C468.513 68.1347 469.234 66.3269 470.541 64.9831C471.622 63.8796 473.035 63.1512 474.58 62.9305L530.616 54.7866L555.666 4.00279C557.41 0.515685 561.647 -0.918885 565.134 0.802599C566.525 1.48678 567.65 2.61237 568.335 4.00279L593.384 54.7866ZM603.691 155.361L595.724 108.947L629.447 76.0844L582.835 69.3089L562 27.0883L541.166 69.3089L494.553 76.0844L528.277 108.969L520.31 155.383L562 133.467L603.691 155.361ZM883.421 62.9305L827.384 54.7866L802.335 4.00279C801.65 2.61237 800.525 1.48678 799.134 0.802599C795.647 -0.918885 791.41 0.515685 789.666 4.00279L764.616 54.7866L708.58 62.9305C707.035 63.1512 705.622 63.8796 704.541 64.9831C703.234 66.3269 702.513 68.1347 702.538 70.0094C702.563 71.8841 703.331 73.6722 704.673 74.9809L745.217 114.509L735.638 170.325C735.413 171.623 735.557 172.958 736.053 174.179C736.549 175.4 737.376 176.458 738.443 177.232C739.509 178.007 740.77 178.467 742.085 178.56C743.399 178.654 744.713 178.378 745.879 177.762L796 151.41L846.122 177.762C847.49 178.491 849.079 178.733 850.602 178.469C854.443 177.807 857.025 174.165 856.363 170.325L846.784 114.509L887.327 74.9809C888.431 73.8995 889.159 72.487 889.38 70.9421C889.976 67.0798 887.283 63.5044 883.421 62.9305ZM829.724 108.947L837.691 155.361L796 133.467L754.31 155.383L762.277 108.969L728.553 76.0844L775.166 69.3089L796 27.0883L816.835 69.3089L863.447 76.0844L829.724 108.947ZM1061.38 54.7866L1117.42 62.9305C1121.28 63.5044 1123.98 67.0798 1123.38 70.9421C1123.16 72.487 1122.43 73.8995 1121.33 74.9809L1080.78 114.509L1090.36 170.325C1091.02 174.165 1088.44 177.807 1084.6 178.469C1083.08 178.733 1081.49 178.491 1080.12 177.762L1030 151.41L979.879 177.762C978.713 178.378 977.399 178.654 976.085 178.56C974.77 178.467 973.509 178.007 972.443 177.232C971.376 176.458 970.549 175.4 970.053 174.179C969.557 172.958 969.413 171.623 969.638 170.325L979.217 114.509L938.673 74.9809C937.331 73.6722 936.563 71.8841 936.538 70.0094C936.513 68.1347 937.234 66.3269 938.541 64.9831C939.622 63.8796 941.035 63.1512 942.58 62.9305L998.616 54.7866L1023.67 4.00279C1025.41 0.515685 1029.65 -0.918885 1033.13 0.802599C1034.52 1.48678 1035.65 2.61237 1036.33 4.00279L1061.38 54.7866ZM1071.69 155.361L1063.72 108.947L1097.45 76.0844L1050.83 69.3089L1030 27.0883L1009.17 69.3089L962.553 76.0844L996.277 108.969L988.31 155.383L1030 133.467L1071.69 155.361Z" fill="#FF5722" fill-opacity="0.4"/>
</svg>
