<svg width="34" height="75" viewBox="0 0 34 75" fill="none" xmlns="http://www.w3.org/2000/svg">
<path fill-rule="evenodd" clip-rule="evenodd" d="M11.3933 10.4853L20.9393 0.939339C21.525 0.353554 22.4748 0.353554 23.0606 0.939339L32.6065 10.4853C33.1923 11.0711 33.1923 12.0208 32.6065 12.6066C32.0207 13.1924 31.071 13.1924 30.4852 12.6066L23.4999 5.62132L23.4999 75H20.4999L20.4999 5.62132L13.5146 12.6066C12.9289 13.1924 11.9791 13.1924 11.3933 12.6066C10.8075 12.0208 10.8075 11.0711 11.3933 10.4853Z" fill="url(#paint0_linear)"/>
<path d="M0.999926 30.84H13.4799V26.5H14.9999V36.8H13.4799V32.48H0.999926V30.84Z" fill="#FF5722"/>
<path d="M2.25993 44.1533C2.25993 45.3666 2.74659 46.3533 3.71993 47.1133C4.69326 47.8733 6.13326 48.2533 8.03993 48.2533C9.87993 48.2533 11.2866 47.8599 12.2599 47.0733C13.2333 46.2999 13.7199 45.3266 13.7199 44.1533C13.7199 42.9533 13.2466 41.9533 12.2999 41.1533C11.3533 40.3666 9.95993 39.9733 8.11993 39.9733C6.19993 39.9733 4.73993 40.3599 3.73993 41.1333C2.75326 41.9066 2.25993 42.9133 2.25993 44.1533ZM0.699926 44.1533C0.699926 43.3666 0.839926 42.6266 1.11993 41.9333C1.39993 41.2533 1.81993 40.6266 2.37993 40.0533C2.95326 39.4933 3.72659 39.0466 4.69993 38.7133C5.68659 38.3799 6.82659 38.2133 8.11993 38.2133C10.3999 38.2133 12.1666 38.7933 13.4199 39.9533C14.6733 41.1133 15.2999 42.5133 15.2999 44.1533C15.2999 45.7533 14.6599 47.1266 13.3799 48.2733C12.0999 49.4333 10.3199 50.0133 8.03993 50.0133C6.74659 50.0133 5.61326 49.8466 4.63993 49.5133C3.66659 49.1933 2.89993 48.7533 2.33993 48.1933C1.79326 47.6333 1.37993 47.0133 1.09993 46.3333C0.833259 45.6533 0.699926 44.9266 0.699926 44.1533Z" fill="#FF5722"/>
<path d="M0.999926 53.0172H14.9999V58.3972C14.9999 59.8105 14.6199 60.9439 13.8599 61.7972C13.1133 62.6505 12.0533 63.0772 10.6799 63.0772C9.31993 63.0772 8.26659 62.6572 7.51993 61.8172C6.77326 60.9772 6.39993 59.8505 6.39993 58.4372V54.6772H0.999926V53.0172ZM7.91993 54.6772V58.3372C7.91993 59.2172 8.15326 59.9439 8.61993 60.5172C9.08659 61.1039 9.77326 61.3972 10.6799 61.3972C11.6266 61.3972 12.3266 61.1039 12.7799 60.5172C13.2466 59.9305 13.4799 59.1905 13.4799 58.2972V54.6772H7.91993Z" fill="#FF5722"/>
<defs>
<linearGradient id="paint0_linear" x1="22" y1="12" x2="22" y2="75" gradientUnits="userSpaceOnUse">
<stop stop-color="#FF5722"/>
<stop offset="1" stop-color="#FF5722" stop-opacity="0"/>
</linearGradient>
</defs>
</svg>
