<svg width="112" height="112" viewBox="0 0 112 112" fill="none" xmlns="http://www.w3.org/2000/svg">
<path fill-rule="evenodd" clip-rule="evenodd" d="M102.25 111.5C102.25 111.5 111.5 111.5 111.5 102.25C111.5 93 102.25 65.25 56 65.25C9.75 65.25 0.5 93 0.5 102.25C0.5 111.5 9.75 111.5 9.75 111.5H102.25ZM9.79625 102.768V102.749V102.768ZM9.9535 102.25H102.046C102.09 102.245 102.133 102.239 102.176 102.231L102.25 102.213C102.241 99.9375 100.826 93.0925 94.554 86.821C88.523 80.79 77.1732 74.5 56 74.5C34.8175 74.5 23.477 80.79 17.446 86.821C11.1745 93.0925 9.7685 99.9375 9.75 102.213C9.8177 102.226 9.88554 102.238 9.9535 102.25ZM102.213 102.768V102.749V102.768ZM56 46.75C60.9065 46.75 65.612 44.8009 69.0815 41.3315C72.5509 37.8621 74.5 33.1565 74.5 28.25C74.5 23.3435 72.5509 18.6379 69.0815 15.1685C65.612 11.6991 60.9065 9.75 56 9.75C51.0935 9.75 46.3879 11.6991 42.9185 15.1685C39.4491 18.6379 37.5 23.3435 37.5 28.25C37.5 33.1565 39.4491 37.8621 42.9185 41.3315C46.3879 44.8009 51.0935 46.75 56 46.75ZM83.75 28.25C83.75 35.6098 80.8264 42.6681 75.6222 47.8722C70.4181 53.0763 63.3598 56 56 56C48.6402 56 41.5819 53.0763 36.3778 47.8722C31.1737 42.6681 28.25 35.6098 28.25 28.25C28.25 20.8902 31.1737 13.8319 36.3778 8.62779C41.5819 3.42365 48.6402 0.5 56 0.5C63.3598 0.5 70.4181 3.42365 75.6222 8.62779C80.8264 13.8319 83.75 20.8902 83.75 28.25Z" fill="url(#paint0_linear)"/>
<defs>
<linearGradient id="paint0_linear" x1="56" y1="0.5" x2="56" y2="111.5" gradientUnits="userSpaceOnUse">
<stop stop-color="#FC6F21"/>
<stop offset="1" stop-color="#FFBB0B"/>
</linearGradient>
</defs>
</svg>
