<svg width="116" height="116" viewBox="0 0 116 116" fill="none" xmlns="http://www.w3.org/2000/svg">
<path fill-rule="evenodd" clip-rule="evenodd" d="M58 0.25H107.5C109.687 0.252184 111.785 1.12208 113.331 2.66878C114.878 4.21548 115.748 6.31263 115.75 8.5V115.75H0.25V58C0.252184 55.8126 1.12208 53.7155 2.66878 52.1688C4.21548 50.6221 6.31263 49.7522 8.5 49.75H49.75V8.5C49.7522 6.31263 50.6221 4.21548 52.1688 2.66878C53.7155 1.12208 55.8126 0.252184 58 0.25ZM29.125 78.625V107.5H45.625V78.625H29.125ZM53.875 107.5H107.5V8.5H58V58H8.5V107.5H20.875V74.5C20.875 73.406 21.3096 72.3568 22.0832 71.5832C22.8568 70.8096 23.906 70.375 25 70.375H49.75C50.844 70.375 51.8932 70.8096 52.6668 71.5832C53.4404 72.3568 53.875 73.406 53.875 74.5V107.5ZM74.5 25H66.25V33.25H74.5V25ZM91 25H99.25V33.25H91V25ZM74.5 49.75H66.25V58H74.5V49.75ZM91 49.75H99.25V58H91V49.75ZM74.5 74.5H66.25V82.75H74.5V74.5ZM91 74.5H99.25V82.75H91V74.5ZM20.875 33.25H0.25V41.5H20.875V33.25ZM33.25 0.25H41.5V20.875H33.25V0.25ZM14.3328 8.5L8.5 14.3328L23.2881 29.125L29.125 23.2881L14.3328 8.5Z" fill="url(#paint0_linear)"/>
<defs>
<linearGradient id="paint0_linear" x1="18.8125" y1="8.5" x2="18.8125" y2="116" gradientUnits="userSpaceOnUse">
<stop stop-color="#FC6F21"/>
<stop offset="1" stop-color="#FFBB0B"/>
</linearGradient>
</defs>
</svg>
