<svg width="94" height="117" viewBox="0 0 94 117" fill="none" xmlns="http://www.w3.org/2000/svg">
<path fill-rule="evenodd" clip-rule="evenodd" d="M37.7353 10.9783C38.2187 4.02425 44.8158 -1.35307 51.926 0.41706L53.8672 0.907935C57.3108 1.77068 60.3676 4.29943 61.3939 8.08512C63.0302 14.1541 65.3581 26.7607 61.8551 41.6282C62.9503 41.4769 64.0489 41.3505 65.1499 41.2489C70.4528 40.7655 77.5631 40.7134 83.8626 42.8108C87.7153 44.0975 91.2555 47.8757 92.7876 52.2787C94.1561 56.2355 93.9776 60.9211 91.0473 65.1679C91.4786 66.053 91.8133 66.9678 92.0736 67.8677C92.6463 69.8759 92.9141 72.0848 92.9141 74.2342C92.9141 76.3837 92.6463 78.5926 92.0736 80.6007C91.7836 81.6048 91.4043 82.6312 90.8836 83.6055C92.1406 86.4838 91.6794 89.6968 90.8613 92.1437C90.0237 94.5599 88.7978 96.8233 87.2318 98.8449C87.6334 99.9754 87.7971 101.165 87.7971 102.303C87.7971 104.572 87.1351 106.952 85.9154 109.086C83.4313 113.445 78.5002 117 71.5313 117V109.562C75.7186 109.562 78.2324 107.539 79.4596 105.397C80.0172 104.459 80.3269 103.394 80.3596 102.303C80.3596 101.411 80.0993 101.076 80.0621 101.039L77.4292 98.4061L80.0546 95.7732C81.557 94.2783 83.0817 91.9727 83.8106 89.7935C84.5841 87.473 84.1304 86.5135 83.7734 86.164L81.1479 83.5311L83.7734 80.8982C84.0932 80.5859 84.5543 79.857 84.9188 78.5554C85.2758 77.3134 85.4766 75.8036 85.4766 74.2342C85.4766 72.6649 85.2758 71.1551 84.9188 69.913C84.5469 68.6189 84.0932 67.8826 83.7734 67.5702L81.1479 64.9374L83.7734 62.3045C86.3988 59.6865 86.5476 57.0016 85.7592 54.7182C84.8518 52.1151 82.8139 50.3078 81.5124 49.869C76.6557 48.2551 70.7503 48.203 65.8193 48.6492C63.0833 48.904 60.3658 49.3288 57.6826 49.9211L57.5785 49.9434L57.5562 49.9508C56.9102 50.1113 56.2329 50.0954 55.5951 49.9048C54.9573 49.7143 54.3824 49.356 53.9302 48.8674C53.4781 48.3789 53.1655 47.7779 53.0249 47.1272C52.8843 46.4766 52.9209 45.8002 53.1309 45.1685C56.8736 33.8013 57.2481 21.5941 54.2093 10.0189C53.9862 9.19331 53.2573 8.41981 52.0673 8.12231L50.1187 7.63887C47.8428 7.06618 45.3438 8.79912 45.1579 11.4915C44.6001 19.5389 43.3803 27.4821 41.573 32.6884C40.2789 36.422 37.0882 42.1191 32.3654 47.3923C27.6277 52.6878 21.0678 57.8792 12.9237 60.0956C9.99337 60.8988 8.3125 63.0408 8.3125 64.9299V94.6948C8.3125 96.6285 9.94875 98.5251 12.4254 98.7854C22.0421 99.8044 26.8244 102.727 30.9523 105.241L31.2498 105.427C33.2579 106.647 34.9313 107.629 37.0213 108.35C39.0814 109.057 41.7069 109.562 45.5 109.562H71.5313V117H45.5C41.0003 117 37.5419 116.397 34.5966 115.378C32.0641 114.454 29.644 113.246 27.3823 111.779L27.0252 111.556C23.2768 109.272 19.5952 107.026 11.6445 106.186C5.94738 105.576 0.875 100.979 0.875 94.6874V64.9374C0.875 58.6155 5.96969 54.2869 10.9677 52.9258C17.2821 51.2003 22.6743 47.0725 26.8244 42.4389C30.9894 37.7756 33.6223 32.9189 34.552 30.2489C36.0321 25.9723 37.1998 18.8026 37.7353 10.9857V10.9783Z" fill="url(#paint0_linear)"/>
<defs>
<linearGradient id="paint0_linear" x1="47.2433" y1="0.0768433" x2="47.2433" y2="117" gradientUnits="userSpaceOnUse">
<stop stop-color="#FC6F21"/>
<stop offset="1" stop-color="#FFBB0B"/>
</linearGradient>
</defs>
</svg>
