<svg width="119" height="113" viewBox="0 0 119 113" fill="none" xmlns="http://www.w3.org/2000/svg">
<path d="M90.676 112.889C89.1047 112.887 87.5695 112.417 86.2671 111.538L59.7427 93.76C59.612 93.6698 59.457 93.6215 59.2982 93.6215C59.1395 93.6215 58.9845 93.6698 58.8538 93.76L32.3294 111.538C30.9974 112.427 29.4265 112.89 27.8251 112.866C26.2237 112.841 24.6677 112.33 23.3637 111.4C22.0596 110.47 21.0693 109.166 20.5242 107.66C19.979 106.154 19.9049 104.518 20.3116 102.969L29.0227 72.2489C29.0639 72.0944 29.0589 71.9313 29.0083 71.7796C28.9578 71.6279 28.8639 71.4944 28.7382 71.3956L3.63602 51.6622C2.31456 50.6778 1.33432 49.3045 0.832765 47.7348C0.331207 46.1651 0.333477 44.4779 0.839255 42.9096C1.34503 41.3413 2.32896 39.9706 3.65306 38.9897C4.97717 38.0088 6.57506 37.4669 8.22269 37.44L40.2227 36.2311C40.38 36.2203 40.5309 36.1641 40.657 36.0695C40.7832 35.9749 40.8793 35.8458 40.9338 35.6978L51.956 5.72445C52.5116 4.20494 53.5207 2.89287 54.8467 1.96586C56.1727 1.03885 57.7515 0.541687 59.3694 0.541687C60.9872 0.541687 62.5661 1.03885 63.892 1.96586C65.218 2.89287 66.2271 4.20494 66.7827 5.72445L77.8049 35.6978C77.8594 35.8458 77.9555 35.9749 78.0817 36.0695C78.2078 36.1641 78.3587 36.2203 78.516 36.2311L110.516 37.44C112.164 37.4669 113.762 38.0088 115.086 38.9897C116.41 39.9706 117.394 41.3413 117.899 42.9096C118.405 44.4779 118.407 46.1651 117.906 47.7348C117.404 49.3045 116.424 50.6778 115.103 51.6622L90.0005 71.3956C89.871 71.4912 89.7742 71.6245 89.7233 71.7773C89.6724 71.93 89.6699 72.0947 89.716 72.2489L98.4271 102.969C98.7329 104.147 98.7632 105.38 98.5158 106.572C98.2683 107.764 97.7498 108.883 97.0002 109.842C96.2507 110.801 95.2904 111.575 94.1937 112.104C93.097 112.632 91.8933 112.901 90.676 112.889ZM59.316 86.5067C60.8905 86.5548 62.4142 87.0751 63.6894 88L90.2138 105.778C90.3482 105.88 90.5121 105.936 90.6809 105.937C90.8498 105.939 91.0145 105.885 91.1505 105.785C91.2865 105.685 91.3866 105.544 91.4356 105.382C91.4847 105.221 91.4801 105.048 91.4227 104.889L82.7116 74.1689C82.2829 72.6619 82.3145 71.0612 82.8024 69.5723C83.2902 68.0835 84.212 66.7744 85.4494 65.8133L110.552 46.08C110.689 45.9838 110.791 45.8463 110.844 45.6875C110.897 45.5288 110.898 45.3573 110.846 45.1981C110.794 45.039 110.693 44.9006 110.557 44.8034C110.42 44.7061 110.257 44.6551 110.089 44.6578L78.0894 43.4489C76.5225 43.3878 75.0093 42.8614 73.7428 41.9369C72.4763 41.0123 71.5139 39.7315 70.9782 38.2578L59.956 8.28445C59.9063 8.1253 59.8071 7.9862 59.6728 7.88742C59.5384 7.78865 59.3761 7.73538 59.2094 7.73538C59.0426 7.73538 58.8803 7.78865 58.746 7.88742C58.6116 7.9862 58.5124 8.1253 58.4627 8.28445L47.5471 38.2222C47.0115 39.696 46.0491 40.9768 44.7826 41.9013C43.5161 42.8259 42.0029 43.3523 40.436 43.4133L8.43602 44.6222C8.26871 44.6195 8.10493 44.6706 7.96876 44.7678C7.83259 44.8651 7.7312 45.0034 7.67948 45.1626C7.62776 45.3217 7.62843 45.4932 7.68141 45.652C7.73438 45.8107 7.83686 45.9483 7.9738 46.0444L33.1116 65.8133C34.3451 66.7775 35.2641 68.0868 35.7516 69.5746C36.2391 71.0625 36.2731 72.6617 35.8494 74.1689L27.1738 104.889C27.122 105.043 27.1218 105.209 27.1731 105.363C27.2244 105.517 27.3245 105.65 27.4582 105.742C27.587 105.852 27.751 105.913 27.9205 105.913C28.09 105.913 28.2539 105.852 28.3827 105.742L54.9071 87.9645C56.2034 87.1046 57.7249 86.6469 59.2805 86.6489L59.316 86.5067Z" fill="url(#paint0_linear)"/>
<defs>
<linearGradient id="paint0_linear" x1="59.3694" y1="0.541687" x2="59.3694" y2="112.889" gradientUnits="userSpaceOnUse">
<stop stop-color="#FC6F21"/>
<stop offset="1" stop-color="#FFBB0B"/>
</linearGradient>
</defs>
</svg>
