<svg width="139" height="165" viewBox="0 0 139 165" fill="none" xmlns="http://www.w3.org/2000/svg">
<path d="M132.888 26.9537C132.048 26.6881 131.225 26.6941 130.421 26.9716C129.617 27.2491 128.921 27.7339 128.332 28.4262L108.191 53.332L83.3941 34.8196L100.566 7.24232C101.6 5.58122 101.588 3.93655 100.531 2.3083C100.018 1.5915 99.3612 1.07211 98.5616 0.75013C97.762 0.428146 96.9242 0.336764 96.0482 0.475983L94.8802 0.66161C90.8895 1.29583 87.1129 2.02079 83.5502 2.83647C79.9875 3.65215 75.973 4.76418 71.5066 6.17255C67.0402 7.58092 63.0123 9.39362 59.4229 11.6106C55.8334 13.8277 53.0641 16.3385 51.1148 19.1431L49.3956 21.5119C46.5458 25.5573 44.6394 30.2013 43.6763 35.4437C42.7132 40.6862 42.7351 45.8469 43.7418 50.926C44.7486 56.0051 46.5889 60.6772 49.2626 64.9425L3.99012 128.57C0.976597 132.841 -0.116372 137.58 0.711213 142.787C1.5388 147.995 4.04717 152.162 8.23632 155.288L15.8737 160.96C20.1447 163.973 24.8352 165.074 29.9452 164.262C35.0552 163.45 39.1734 160.949 42.2997 156.76L88.133 92.8938C89.6039 93.3586 91.1402 93.7631 92.7416 94.1074C94.3431 94.4516 95.9535 94.6946 97.5727 94.8365C99.1919 94.9783 100.824 95.0433 102.469 95.0313C104.113 95.0194 105.666 94.8975 107.126 94.6654C116.956 93.1031 124.893 88.0996 130.935 79.6548L132.508 77.3092C134.325 74.9249 135.696 71.9377 136.623 68.3477C137.549 64.7576 138.129 61.4971 138.361 58.5662C138.594 55.6352 138.54 52.0013 138.2 47.6645C137.861 43.3277 137.572 40.2551 137.334 38.4467C137.097 36.6383 136.707 34.0307 136.166 30.6241C135.775 28.7902 134.682 27.5668 132.888 26.9537ZM125.087 72.0521L123.66 74.3746C122.186 76.405 120.496 78.1705 118.589 79.6711C116.682 81.1717 114.655 82.3919 112.509 83.3317C110.363 84.2715 108.074 84.9347 105.641 85.3214C103.791 85.6153 101.765 85.7378 99.5617 85.6888C97.3585 85.6397 95.4318 85.447 93.7816 85.1105C90.6606 84.3092 87.7054 82.9826 84.9163 81.1307L34.6624 151.088C33.1069 153.231 31.0396 154.508 28.4602 154.918C25.8809 155.328 23.5196 154.755 21.3763 153.2L13.739 147.528C12.3854 146.545 11.3619 145.286 10.6687 143.75C9.97545 142.213 9.71635 140.583 9.89138 138.859C10.0664 137.134 10.6451 135.595 11.6275 134.242L60.6834 65.2231C58.401 62.7917 56.551 59.9422 55.1336 56.6748C53.9418 53.5711 53.0995 50.312 52.6068 46.8976C52.1141 43.4832 52.2014 39.9516 52.869 36.3029C53.5365 32.6542 54.804 29.484 56.6714 26.7922L58.3905 24.4233C60.5854 21.2803 64.478 18.616 70.0682 16.4302C75.6585 14.2445 81.4887 12.4697 87.5588 11.1058L73.6092 33.5306C72.9698 34.5304 72.7711 35.6347 73.0131 36.8437C73.2551 38.0526 73.8273 38.9845 74.7298 39.6395L106.148 63.0869C107.164 63.8237 108.259 64.1236 109.435 63.9866C110.611 63.8497 111.575 63.3222 112.327 62.4044L128.715 42.1367C130.031 56.6967 128.822 66.6686 125.087 72.0521Z" fill="white"/>
</svg>
