<svg width="213" height="283" viewBox="0 0 213 283" fill="none" xmlns="http://www.w3.org/2000/svg">
<path fill-rule="evenodd" clip-rule="evenodd" d="M35.75 17.6875H177.25C181.941 17.6875 186.44 19.551 189.757 22.868C193.074 26.1851 194.938 30.684 194.938 35.375V243.292C194.938 243.292 177.25 212.25 106.5 212.25C35.75 212.25 18.0625 243.292 18.0625 243.292V35.375C18.0625 30.684 19.926 26.1851 23.243 22.868C26.5601 19.551 31.059 17.6875 35.75 17.6875ZM10.7361 10.3611C17.3702 3.727 26.368 0 35.75 0H177.25C186.632 0 195.63 3.727 202.264 10.3611C208.898 16.9952 212.625 25.993 212.625 35.375V247.625C212.625 257.007 208.898 266.005 202.264 272.639C195.63 279.273 186.632 283 177.25 283H35.75C26.368 283 17.3702 279.273 10.7361 272.639C4.102 266.005 0.375 257.007 0.375 247.625V35.375C0.375 25.993 4.102 16.9952 10.7361 10.3611ZM144.021 179.021C134.07 188.972 120.573 194.562 106.5 194.562C92.4269 194.562 78.9303 188.972 68.9791 179.021C59.028 169.07 53.4375 155.573 53.4375 141.5C53.4375 127.427 59.028 113.93 68.9791 103.979C78.9303 94.028 92.4269 88.4375 106.5 88.4375C120.573 88.4375 134.07 94.028 144.021 103.979C153.972 113.93 159.562 127.427 159.562 141.5C159.562 155.573 153.972 169.07 144.021 179.021ZM73.7153 37.9653C72.0567 39.6238 71.125 41.8732 71.125 44.2188C71.125 46.5643 72.0567 48.8137 73.7153 50.4722C75.3738 52.1307 77.6232 53.0625 79.9688 53.0625H133.031C135.377 53.0625 137.626 52.1307 139.285 50.4722C140.943 48.8137 141.875 46.5643 141.875 44.2188C141.875 41.8732 140.943 39.6238 139.285 37.9653C137.626 36.3068 135.377 35.375 133.031 35.375H79.9688C77.6232 35.375 75.3738 36.3068 73.7153 37.9653Z" fill="#033351"/>
</svg>
