<svg width="188" height="298" viewBox="0 0 188 298" fill="none" xmlns="http://www.w3.org/2000/svg">
<path fill-rule="evenodd" clip-rule="evenodd" d="M38.125 18.625H149.875C154.815 18.625 159.552 20.5873 163.045 24.0801C166.538 27.573 168.5 32.3103 168.5 37.25V260.75C168.5 265.69 166.538 270.427 163.045 273.92C159.552 277.413 154.815 279.375 149.875 279.375H38.125C33.1853 279.375 28.448 277.413 24.9551 273.92C21.4623 270.427 19.5 265.69 19.5 260.75V37.25C19.5 32.3103 21.4623 27.573 24.9551 24.0801C28.448 20.5873 33.1853 18.625 38.125 18.625ZM11.7853 10.9103C18.771 3.92454 28.2457 0 38.125 0H149.875C159.754 0 169.229 3.92454 176.215 10.9103C183.2 17.896 187.125 27.3707 187.125 37.25V260.75C187.125 270.629 183.2 280.104 176.215 287.09C169.229 294.075 159.754 298 149.875 298H38.125C28.2457 298 18.771 294.075 11.7853 287.09C4.79954 280.104 0.875 270.629 0.875 260.75V37.25C0.875 27.3707 4.79954 17.896 11.7853 10.9103ZM107.17 255.295C103.677 258.788 98.9397 260.75 94 260.75C89.0603 260.75 84.323 258.788 80.8301 255.295C77.3373 251.802 75.375 247.065 75.375 242.125C75.375 237.185 77.3373 232.448 80.8301 228.955C84.323 225.462 89.0603 223.5 94 223.5C98.9397 223.5 103.677 225.462 107.17 228.955C110.663 232.448 112.625 237.185 112.625 242.125C112.625 247.065 110.663 251.802 107.17 255.295Z" fill="#033351"/>
</svg>
