<svg width="254" height="267" viewBox="0 0 254 267" fill="none" xmlns="http://www.w3.org/2000/svg">
<path d="M91.4996 36.2498H162.5V53.9998H91.4996V36.2498ZM91.4996 142.75H162.5V160.5H91.4996V142.75ZM91.4996 178.25H162.5V196H91.4996V178.25ZM253.735 267H0.264648L22.4521 178.25H55.9996V18.4998C55.9849 16.1623 56.4564 13.8472 57.3841 11.7016C58.3071 9.57156 59.5674 7.69007 61.1294 6.02157C62.7258 4.33783 64.6619 3.01277 66.8094 2.13431C69.0078 1.21624 71.3672 0.745576 73.7496 0.749815H180.25C182.587 0.735115 184.902 1.20659 187.048 2.13431C189.178 3.05731 191.059 4.31756 192.728 5.87957C194.412 7.47594 195.737 9.41208 196.615 11.5596C197.538 13.7783 198 16.1036 198 18.4998V178.25H231.547L253.735 267ZM73.7496 213.75H180.25V18.4998H73.7496V213.75ZM231.015 249.25L217.702 196H198V231.5H55.9996V196H36.2972L22.9846 249.25H231.015Z" fill="#033351"/>
</svg>
