<svg width="124" height="194" viewBox="0 0 124 194" fill="none" xmlns="http://www.w3.org/2000/svg">
<path d="M110.222 0.555534H13.7778C10.1237 0.555534 6.61925 2.00712 4.03542 4.59095C1.45159 7.17479 0 10.6792 0 14.3333V179.667C0 183.321 1.45159 186.825 4.03542 189.409C6.61925 191.993 10.1237 193.444 13.7778 193.444H110.222C113.876 193.444 117.381 191.993 119.965 189.409C122.548 186.825 124 183.321 124 179.667V14.3333C124 10.6792 122.548 7.17479 119.965 4.59095C117.381 2.00712 113.876 0.555534 110.222 0.555534ZM68.8889 179.667H55.1111V165.889H68.8889V179.667ZM13.7778 152.111V14.3333H110.222V152.111H13.7778Z" fill="#033351"/>
</svg>
