<svg width="656" height="645" viewBox="0 0 656 645" fill="none" xmlns="http://www.w3.org/2000/svg">
<path d="M237.244 300.72C235.324 300.72 233.532 300.384 231.868 299.712C230.204 299.04 228.684 298.032 227.308 296.688C225.964 295.312 224.892 293.456 224.092 291.12C223.292 288.752 222.892 286.016 222.892 282.912C222.892 277.44 224.284 273.2 227.068 270.192C229.884 267.184 233.276 265.68 237.244 265.68C240.796 265.68 243.724 266.752 246.028 268.896C248.364 271.04 249.756 273.92 250.204 277.536L245.308 278.352C244.444 272.912 241.756 270.192 237.244 270.192C234.556 270.192 232.332 271.28 230.572 273.456C228.812 275.6 227.932 278.752 227.932 282.912C227.932 287.36 228.796 290.688 230.524 292.896C232.252 295.104 234.492 296.208 237.244 296.208C241.916 296.208 244.54 293.2 245.116 287.184L250.252 288C249.932 291.904 248.62 295.008 246.316 297.312C244.012 299.584 240.988 300.72 237.244 300.72Z" fill="#FF5722"/>
<path d="M269.166 296.256C271.886 296.256 274.094 295.168 275.79 292.992C277.486 290.816 278.334 287.504 278.334 283.056C278.334 278.896 277.454 275.712 275.694 273.504C273.966 271.296 271.79 270.192 269.166 270.192C266.478 270.192 264.254 271.28 262.494 273.456C260.734 275.6 259.854 278.752 259.854 282.912C259.854 287.36 260.718 290.704 262.446 292.944C264.174 295.152 266.414 296.256 269.166 296.256ZM269.166 300.72C267.246 300.72 265.454 300.384 263.79 299.712C262.126 299.04 260.606 298.032 259.23 296.688C257.886 295.312 256.814 293.456 256.014 291.12C255.214 288.752 254.814 286.016 254.814 282.912C254.814 277.44 256.206 273.2 258.99 270.192C261.806 267.184 265.198 265.68 269.166 265.68C273.07 265.68 276.414 267.216 279.198 270.288C281.982 273.328 283.374 277.584 283.374 283.056C283.374 286.16 282.974 288.88 282.174 291.216C281.406 293.552 280.334 295.392 278.958 296.736C277.614 298.08 276.11 299.088 274.446 299.76C272.814 300.4 271.054 300.72 269.166 300.72Z" fill="#FF5722"/>
<path d="M290.109 300V266.4H295.053L309.501 291.456H309.597V266.4H314.445V300H309.597L295.005 274.944H294.909V300H290.109Z" fill="#FF5722"/>
<path d="M329.878 300V270.864H319.702V266.4H344.902V270.864H334.678V300H329.878Z" fill="#FF5722"/>
<path d="M350.203 300V266.4H370.747V270.864H355.003V280.608H369.403V284.88H355.003V295.584H370.747V300H350.203Z" fill="#FF5722"/>
<path d="M378.187 300V266.4H383.131L397.579 291.456H397.675V266.4H402.523V300H397.675L383.083 274.944H382.987V300H378.187Z" fill="#FF5722"/>
<path d="M417.956 300V270.864H407.78V266.4H432.98V270.864H422.756V300H417.956Z" fill="#FF5722"/>
<path d="M198.023 350V316.4H204.119L214.343 340.88H214.439L224.711 316.4H230.759V350H225.959V324.464H225.863L214.967 350H213.815L202.919 324.464H202.823V350H198.023Z" fill="#FF5722"/>
<path d="M259.574 350L257.366 343.808H242.966L240.806 350H235.814L247.958 316.4H252.566L264.662 350H259.574ZM250.118 323.312L244.406 339.68H255.926L250.214 323.312H250.118Z" fill="#FF5722"/>
<path d="M269.695 350V316.4H282.847C286.303 316.4 289.055 317.296 291.103 319.088C293.151 320.848 294.175 323.36 294.175 326.624C294.175 329.472 293.503 331.664 292.159 333.2C290.815 334.736 288.863 335.776 286.303 336.32L293.647 350H288.367L281.263 336.704H274.495V350H269.695ZM274.495 332.432H282.463C284.543 332.432 286.207 331.968 287.455 331.04C288.703 330.112 289.327 328.64 289.327 326.624C289.327 322.72 287.023 320.768 282.415 320.768H274.495V332.432Z" fill="#FF5722"/>
<path d="M299.918 350V316.4H304.718V332.048H304.862L317.918 316.4H323.87L311.534 331.136L325.262 350H319.454L308.222 334.592H308.126L304.718 338.768V350H299.918Z" fill="#FF5722"/>
<path d="M329.601 350V316.4H350.145V320.864H334.401V330.608H348.801V334.88H334.401V345.584H350.145V350H329.601Z" fill="#FF5722"/>
<path d="M364.402 350V320.864H354.226V316.4H379.426V320.864H369.202V350H364.402Z" fill="#FF5722"/>
<path d="M384.966 350V316.4H389.766V350H384.966Z" fill="#FF5722"/>
<path d="M398.648 350V316.4H403.592L418.04 341.456H418.136V316.4H422.984V350H418.136L403.544 324.944H403.448V350H398.648Z" fill="#FF5722"/>
<path d="M444.033 350.72C442.049 350.72 440.209 350.384 438.513 349.712C436.849 349.008 435.345 347.968 434.001 346.592C432.657 345.216 431.601 343.36 430.833 341.024C430.065 338.656 429.681 335.92 429.681 332.816C429.681 330.064 430.081 327.584 430.881 325.376C431.681 323.136 432.753 321.328 434.097 319.952C435.441 318.576 436.961 317.52 438.657 316.784C440.353 316.048 442.129 315.68 443.985 315.68C447.313 315.68 450.129 316.704 452.433 318.752C454.737 320.8 456.161 323.504 456.705 326.864L451.809 327.728C450.785 322.704 448.193 320.192 444.033 320.192C441.377 320.192 439.153 321.28 437.361 323.456C435.569 325.6 434.673 328.72 434.673 332.816C434.673 337.232 435.537 340.576 437.265 342.848C439.025 345.088 441.281 346.208 444.033 346.208C446.593 346.208 448.593 345.44 450.033 343.904C451.505 342.368 452.225 340.224 452.193 337.472H444.465V333.2H456.897V336.848C456.897 341.168 455.713 344.56 453.345 347.024C450.977 349.488 447.873 350.72 444.033 350.72Z" fill="#FF5722"/>
<path d="M272.846 400.72C270.926 400.72 269.134 400.384 267.47 399.712C265.806 399.04 264.286 398.032 262.91 396.688C261.566 395.312 260.494 393.456 259.694 391.12C258.894 388.752 258.494 386.016 258.494 382.912C258.494 377.44 259.886 373.2 262.67 370.192C265.486 367.184 268.878 365.68 272.846 365.68C276.398 365.68 279.326 366.752 281.63 368.896C283.966 371.04 285.358 373.92 285.806 377.536L280.91 378.352C280.046 372.912 277.358 370.192 272.846 370.192C270.158 370.192 267.934 371.28 266.174 373.456C264.414 375.6 263.534 378.752 263.534 382.912C263.534 387.36 264.398 390.688 266.126 392.896C267.854 395.104 270.094 396.208 272.846 396.208C277.518 396.208 280.142 393.2 280.718 387.184L285.854 388C285.534 391.904 284.222 395.008 281.918 397.312C279.614 399.584 276.59 400.72 272.846 400.72Z" fill="#FF5722"/>
<path d="M298.035 400V385.84L287.043 366.4H292.227L300.339 381.424H300.435L308.595 366.4H313.779L302.739 385.84V400H298.035Z" fill="#FF5722"/>
<path d="M329.096 400.72C327.176 400.72 325.384 400.384 323.72 399.712C322.056 399.04 320.536 398.032 319.16 396.688C317.816 395.312 316.744 393.456 315.944 391.12C315.144 388.752 314.744 386.016 314.744 382.912C314.744 377.44 316.136 373.2 318.92 370.192C321.736 367.184 325.128 365.68 329.096 365.68C332.648 365.68 335.576 366.752 337.88 368.896C340.216 371.04 341.608 373.92 342.056 377.536L337.16 378.352C336.296 372.912 333.608 370.192 329.096 370.192C326.408 370.192 324.184 371.28 322.424 373.456C320.664 375.6 319.784 378.752 319.784 382.912C319.784 387.36 320.648 390.688 322.376 392.896C324.104 395.104 326.344 396.208 329.096 396.208C333.768 396.208 336.392 393.2 336.968 387.184L342.104 388C341.784 391.904 340.472 395.008 338.168 397.312C335.864 399.584 332.84 400.72 329.096 400.72Z" fill="#FF5722"/>
<path d="M348.586 400V366.4H353.386V395.584H367.738V400H348.586Z" fill="#FF5722"/>
<path d="M373.242 400V366.4H393.786V370.864H378.042V380.608H392.442V384.88H378.042V395.584H393.786V400H373.242Z" fill="#FF5722"/>
<path fill-rule="evenodd" clip-rule="evenodd" d="M328 575C463.31 575 573 465.31 573 330C573 194.69 463.31 85 328 85C192.69 85 83 194.69 83 330C83 465.31 192.69 575 328 575ZM328 645C501.97 645 643 503.97 643 330C643 156.03 501.97 15 328 15C154.03 15 13 156.03 13 330C13 503.97 154.03 645 328 645Z" fill="#033351" fill-opacity="0.1"/>
<path fill-rule="evenodd" clip-rule="evenodd" d="M322.5 491C414.455 491 489 416.455 489 324.5C489 232.545 414.455 158 322.5 158C230.545 158 156 232.545 156 324.5C156 416.455 230.545 491 322.5 491ZM322.5 561C453.115 561 559 455.115 559 324.5C559 193.885 453.115 88 322.5 88C191.885 88 86 193.885 86 324.5C86 455.115 191.885 561 322.5 561Z" fill="#033351" fill-opacity="0.3"/>
<path fill-rule="evenodd" clip-rule="evenodd" d="M323 551C447.816 551 549 449.816 549 325C549 200.184 447.816 99 323 99C198.184 99 97 200.184 97 325C97 449.816 198.184 551 323 551ZM323 601C475.431 601 599 477.431 599 325C599 172.569 475.431 49 323 49C170.569 49 47 172.569 47 325C47 477.431 170.569 601 323 601Z" fill="#033351"/>
<path d="M435.561 98.2999L350.8 155.327L372.621 17.8319L435.561 98.2999Z" fill="#FF5722"/>
<path d="M566.175 404.135L502.03 324.624L640.898 334.471L566.175 404.135Z" fill="#FF5722"/>
<path d="M354.096 578.02L404.552 489.19L446.305 621.997L354.096 578.02Z" fill="#FF5722"/>
<path d="M106.024 455.924L207.468 467.986L101.243 557.971L106.024 455.924Z" fill="#FF5722"/>
<path d="M405 85C405 131.944 366.944 170 320 170C273.056 170 235 131.944 235 85C235 38.0558 273.056 0 320 0C366.944 0 405 38.0558 405 85Z" fill="#FF5722"/>
<path fill-rule="evenodd" clip-rule="evenodd" d="M141.868 223.824L118.426 174.942L68.072 203.686C29.238 211.533 0 245.852 0 287C0 333.944 38.0558 372 85 372C131.944 372 170 333.944 170 287C170 261.923 159.141 239.382 141.868 223.824Z" fill="#FF5722"/>
<path d="M656 287C656 333.944 617.944 372 571 372C524.056 372 486 333.944 486 287C486 240.056 524.056 202 571 202C617.944 202 656 240.056 656 287Z" fill="#FF5722"/>
<path d="M266 543C266 589.944 227.944 628 181 628C134.056 628 96 589.944 96 543C96 496.056 134.056 458 181 458C227.944 458 266 496.056 266 543Z" fill="#FF5722"/>
<path d="M547 543C547 589.944 508.944 628 462 628C415.056 628 377 589.944 377 543C377 496.056 415.056 458 462 458C508.944 458 547 496.056 547 543Z" fill="#FF5722"/>
<path d="M30.3594 275.764C32.2074 275.764 33.6954 276.436 34.8234 277.78C35.9754 279.1 36.5514 280.84 36.5514 283C36.5514 285.112 35.9994 286.816 34.8954 288.112C33.7914 289.408 32.3394 290.056 30.5394 290.056H27.1554C27.0594 290.056 27.0114 290.104 27.0114 290.2V300.64C27.0114 300.88 26.8914 301 26.6514 301H23.9154C23.6754 301 23.5554 300.88 23.5554 300.64V276.124C23.5554 275.884 23.6754 275.764 23.9154 275.764H30.3594ZM29.8194 287.284C30.8034 287.284 31.5954 286.912 32.1954 286.168C32.7954 285.4 33.0954 284.368 33.0954 283.072C33.0954 281.752 32.7954 280.708 32.1954 279.94C31.5954 279.148 30.8034 278.752 29.8194 278.752H27.1554C27.0594 278.752 27.0114 278.8 27.0114 278.896V287.14C27.0114 287.236 27.0594 287.284 27.1554 287.284H29.8194Z" fill="white"/>
<path d="M40.1936 301C39.9536 301 39.8336 300.88 39.8336 300.64V276.16C39.8336 275.92 39.9536 275.8 40.1936 275.8H42.9296C43.1696 275.8 43.2896 275.92 43.2896 276.16V297.868C43.2896 297.964 43.3376 298.012 43.4336 298.012H51.4976C51.7376 298.012 51.8576 298.132 51.8576 298.372V300.64C51.8576 300.88 51.7376 301 51.4976 301H40.1936Z" fill="white"/>
<path d="M65.5882 301C65.3722 301 65.2402 300.892 65.1922 300.676L64.4002 296.536C64.4002 296.488 64.3762 296.452 64.3282 296.428C64.3042 296.404 64.2682 296.392 64.2202 296.392H58.3522C58.3042 296.392 58.2562 296.404 58.2082 296.428C58.1842 296.452 58.1722 296.488 58.1722 296.536L57.4162 300.676C57.3922 300.892 57.2602 301 57.0202 301H54.2842C54.1642 301 54.0682 300.964 53.9962 300.892C53.9482 300.82 53.9362 300.724 53.9602 300.604L59.3242 276.124C59.3722 275.908 59.5042 275.8 59.7202 275.8H62.9242C63.1642 275.8 63.2962 275.908 63.3202 276.124L68.7202 300.604V300.676C68.7202 300.892 68.6122 301 68.3962 301H65.5882ZM58.7842 293.512C58.7842 293.608 58.8202 293.656 58.8922 293.656H63.6802C63.7522 293.656 63.7882 293.608 63.7882 293.512L61.3402 280.732C61.3162 280.684 61.2922 280.66 61.2682 280.66C61.2442 280.66 61.2202 280.684 61.1962 280.732L58.7842 293.512Z" fill="white"/>
<path d="M81.5559 276.16C81.5559 275.92 81.6759 275.8 81.9159 275.8H84.6159C84.8559 275.8 84.9759 275.92 84.9759 276.16V300.64C84.9759 300.88 84.8559 301 84.6159 301H81.5199C81.3279 301 81.1959 300.904 81.1239 300.712L75.0039 284.26C74.9799 284.212 74.9439 284.2 74.8959 284.224C74.8479 284.224 74.8239 284.248 74.8239 284.296L74.8599 300.64C74.8599 300.88 74.7399 301 74.4999 301H71.7639C71.5239 301 71.4039 300.88 71.4039 300.64V276.16C71.4039 275.92 71.5239 275.8 71.7639 275.8H74.8239C75.0159 275.8 75.1479 275.896 75.2199 276.088L81.3759 292.54C81.3999 292.612 81.4359 292.648 81.4839 292.648C81.5319 292.624 81.5559 292.576 81.5559 292.504V276.16Z" fill="white"/>
<path d="M99.591 276.16C99.591 275.92 99.711 275.8 99.951 275.8H102.651C102.891 275.8 103.011 275.92 103.011 276.16V300.64C103.011 300.88 102.891 301 102.651 301H99.555C99.363 301 99.231 300.904 99.159 300.712L93.039 284.26C93.015 284.212 92.979 284.2 92.931 284.224C92.883 284.224 92.859 284.248 92.859 284.296L92.895 300.64C92.895 300.88 92.775 301 92.535 301H89.799C89.559 301 89.439 300.88 89.439 300.64V276.16C89.439 275.92 89.559 275.8 89.799 275.8H92.859C93.051 275.8 93.183 275.896 93.255 276.088L99.411 292.54C99.435 292.612 99.471 292.648 99.519 292.648C99.567 292.624 99.591 292.576 99.591 292.504V276.16Z" fill="white"/>
<path d="M107.834 301C107.594 301 107.474 300.88 107.474 300.64V276.16C107.474 275.92 107.594 275.8 107.834 275.8H110.57C110.81 275.8 110.93 275.92 110.93 276.16V300.64C110.93 300.88 110.81 301 110.57 301H107.834Z" fill="white"/>
<path d="M125.536 276.16C125.536 275.92 125.656 275.8 125.896 275.8H128.596C128.836 275.8 128.956 275.92 128.956 276.16V300.64C128.956 300.88 128.836 301 128.596 301H125.5C125.308 301 125.176 300.904 125.104 300.712L118.984 284.26C118.96 284.212 118.924 284.2 118.876 284.224C118.828 284.224 118.804 284.248 118.804 284.296L118.84 300.64C118.84 300.88 118.72 301 118.48 301H115.744C115.504 301 115.384 300.88 115.384 300.64V276.16C115.384 275.92 115.504 275.8 115.744 275.8H118.804C118.996 275.8 119.128 275.896 119.2 276.088L125.356 292.54C125.38 292.612 125.416 292.648 125.464 292.648C125.512 292.624 125.536 292.576 125.536 292.504V276.16Z" fill="white"/>
<path d="M139.396 301.288C137.451 301.288 135.879 300.712 134.679 299.56C133.503 298.408 132.915 296.884 132.915 294.988V281.812C132.915 279.916 133.503 278.392 134.679 277.24C135.879 276.088 137.451 275.512 139.396 275.512C141.34 275.512 142.912 276.088 144.112 277.24C145.312 278.392 145.911 279.928 145.911 281.848V283.36C145.911 283.6 145.791 283.72 145.551 283.72H142.815C142.575 283.72 142.455 283.6 142.455 283.36V281.776C142.455 280.792 142.167 280 141.591 279.4C141.039 278.8 140.307 278.5 139.396 278.5C138.484 278.5 137.739 278.8 137.163 279.4C136.611 280 136.336 280.792 136.336 281.776V295.024C136.336 296.008 136.611 296.8 137.163 297.4C137.739 298 138.484 298.3 139.396 298.3C140.307 298.3 141.039 298 141.591 297.4C142.167 296.8 142.455 296.008 142.455 295.024V291.064C142.455 290.968 142.408 290.92 142.312 290.92H139.576C139.336 290.92 139.215 290.8 139.215 290.56V288.328C139.215 288.088 139.336 287.968 139.576 287.968H145.551C145.791 287.968 145.911 288.088 145.911 288.328V294.988C145.911 296.884 145.312 298.408 144.112 299.56C142.912 300.712 141.34 301.288 139.396 301.288Z" fill="white"/>
<path d="M247.601 97C247.401 97 247.301 96.9 247.301 96.7V76.3C247.301 76.1 247.401 76 247.601 76H252.521C254.181 76 255.501 76.51 256.481 77.53C257.461 78.55 257.951 79.93 257.951 81.67V91.33C257.951 93.07 257.461 94.45 256.481 95.47C255.501 96.49 254.181 97 252.521 97H247.601ZM250.181 94.39C250.181 94.47 250.221 94.51 250.301 94.51L252.491 94.48C253.251 94.48 253.861 94.19 254.321 93.61C254.781 93.01 255.021 92.2 255.041 91.18V81.82C255.041 80.8 254.811 79.99 254.351 79.39C253.891 78.79 253.271 78.49 252.491 78.49H250.301C250.221 78.49 250.181 78.53 250.181 78.61V94.39Z" fill="white"/>
<path d="M271.238 78.19C271.238 78.39 271.138 78.49 270.938 78.49H264.188C264.108 78.49 264.068 78.53 264.068 78.61V85.12C264.068 85.2 264.108 85.24 264.188 85.24H268.328C268.528 85.24 268.628 85.34 268.628 85.54V87.43C268.628 87.63 268.528 87.73 268.328 87.73H264.188C264.108 87.73 264.068 87.77 264.068 87.85V94.39C264.068 94.47 264.108 94.51 264.188 94.51H270.938C271.138 94.51 271.238 94.61 271.238 94.81V96.7C271.238 96.9 271.138 97 270.938 97H261.488C261.288 97 261.188 96.9 261.188 96.7V76.3C261.188 76.1 261.288 76 261.488 76H270.938C271.138 76 271.238 76.1 271.238 76.3V78.19Z" fill="white"/>
<path d="M277.857 97C277.677 97 277.567 96.91 277.527 96.73L273.207 76.33V76.27C273.207 76.09 273.297 76 273.477 76H275.967C276.167 76 276.277 76.09 276.297 76.27L279.147 91.84C279.167 91.88 279.187 91.9 279.207 91.9C279.227 91.9 279.247 91.88 279.267 91.84L282.057 76.27C282.097 76.09 282.207 76 282.387 76H284.787C285.007 76 285.097 76.11 285.057 76.33L280.737 96.73C280.717 96.91 280.607 97 280.407 97H277.857Z" fill="white"/>
<path d="M297.898 78.19C297.898 78.39 297.798 78.49 297.598 78.49H290.848C290.768 78.49 290.728 78.53 290.728 78.61V85.12C290.728 85.2 290.768 85.24 290.848 85.24H294.988C295.188 85.24 295.288 85.34 295.288 85.54V87.43C295.288 87.63 295.188 87.73 294.988 87.73H290.848C290.768 87.73 290.728 87.77 290.728 87.85V94.39C290.728 94.47 290.768 94.51 290.848 94.51H297.598C297.798 94.51 297.898 94.61 297.898 94.81V96.7C297.898 96.9 297.798 97 297.598 97H288.148C287.948 97 287.848 96.9 287.848 96.7V76.3C287.848 76.1 287.948 76 288.148 76H297.598C297.798 76 297.898 76.1 297.898 76.3V78.19Z" fill="white"/>
<path d="M301.097 97C300.897 97 300.797 96.9 300.797 96.7V76.3C300.797 76.1 300.897 76 301.097 76H303.377C303.577 76 303.677 76.1 303.677 76.3V94.39C303.677 94.47 303.717 94.51 303.797 94.51H310.517C310.717 94.51 310.817 94.61 310.817 94.81V96.7C310.817 96.9 310.717 97 310.517 97H301.097Z" fill="white"/>
<path d="M317.996 97.24C316.356 97.24 315.036 96.74 314.036 95.74C313.036 94.74 312.536 93.41 312.536 91.75V81.28C312.536 79.62 313.036 78.29 314.036 77.29C315.036 76.27 316.356 75.76 317.996 75.76C319.656 75.76 320.986 76.27 321.986 77.29C323.006 78.29 323.516 79.62 323.516 81.28V91.75C323.516 93.41 323.006 94.74 321.986 95.74C320.986 96.74 319.656 97.24 317.996 97.24ZM317.996 94.75C318.796 94.75 319.436 94.49 319.916 93.97C320.396 93.43 320.636 92.73 320.636 91.87V81.13C320.636 80.27 320.396 79.58 319.916 79.06C319.436 78.52 318.796 78.25 317.996 78.25C317.216 78.25 316.586 78.52 316.106 79.06C315.646 79.58 315.416 80.27 315.416 81.13V91.87C315.416 92.73 315.646 93.43 316.106 93.97C316.586 94.49 317.216 94.75 317.996 94.75Z" fill="white"/>
<path d="M332.453 75.97C333.993 75.97 335.233 76.53 336.173 77.65C337.133 78.75 337.613 80.2 337.613 82C337.613 83.76 337.153 85.18 336.233 86.26C335.313 87.34 334.103 87.88 332.603 87.88H329.783C329.703 87.88 329.663 87.92 329.663 88V96.7C329.663 96.9 329.563 97 329.363 97H327.083C326.883 97 326.783 96.9 326.783 96.7V76.27C326.783 76.07 326.883 75.97 327.083 75.97H332.453ZM332.003 85.57C332.823 85.57 333.483 85.26 333.983 84.64C334.483 84 334.733 83.14 334.733 82.06C334.733 80.96 334.483 80.09 333.983 79.45C333.483 78.79 332.823 78.46 332.003 78.46H329.783C329.703 78.46 329.663 78.5 329.663 78.58V85.45C329.663 85.53 329.703 85.57 329.783 85.57H332.003Z" fill="white"/>
<path d="M349.678 76.21C349.758 76.07 349.878 76 350.038 76H352.318C352.518 76 352.618 76.1 352.618 76.3V96.7C352.618 96.9 352.518 97 352.318 97H350.038C349.838 97 349.738 96.9 349.738 96.7V81.82C349.738 81.76 349.718 81.73 349.678 81.73C349.658 81.73 349.628 81.75 349.588 81.79L346.708 87.16C346.648 87.3 346.558 87.37 346.438 87.37C346.318 87.37 346.228 87.3 346.168 87.16L343.318 81.82C343.278 81.78 343.238 81.76 343.198 81.76C343.178 81.76 343.168 81.79 343.168 81.85V96.7C343.168 96.9 343.068 97 342.868 97H340.588C340.388 97 340.288 96.9 340.288 96.7V76.3C340.288 76.1 340.388 76 340.588 76H342.868C343.008 76 343.128 76.07 343.228 76.21L346.378 81.85C346.398 81.87 346.428 81.88 346.468 81.88C346.508 81.88 346.538 81.87 346.558 81.85L349.678 76.21Z" fill="white"/>
<path d="M366.306 78.19C366.306 78.39 366.206 78.49 366.006 78.49H359.256C359.176 78.49 359.136 78.53 359.136 78.61V85.12C359.136 85.2 359.176 85.24 359.256 85.24H363.396C363.596 85.24 363.696 85.34 363.696 85.54V87.43C363.696 87.63 363.596 87.73 363.396 87.73H359.256C359.176 87.73 359.136 87.77 359.136 87.85V94.39C359.136 94.47 359.176 94.51 359.256 94.51H366.006C366.206 94.51 366.306 94.61 366.306 94.81V96.7C366.306 96.9 366.206 97 366.006 97H356.556C356.356 97 356.256 96.9 356.256 96.7V76.3C356.256 76.1 356.356 76 356.556 76H366.006C366.206 76 366.306 76.1 366.306 76.3V78.19Z" fill="white"/>
<path d="M377.666 76.3C377.666 76.1 377.766 76 377.966 76H380.216C380.416 76 380.516 76.1 380.516 76.3V96.7C380.516 96.9 380.416 97 380.216 97H377.636C377.476 97 377.366 96.92 377.306 96.76L372.206 83.05C372.186 83.01 372.156 83 372.116 83.02C372.076 83.02 372.056 83.04 372.056 83.08L372.086 96.7C372.086 96.9 371.986 97 371.786 97H369.506C369.306 97 369.206 96.9 369.206 96.7V76.3C369.206 76.1 369.306 76 369.506 76H372.056C372.216 76 372.326 76.08 372.386 76.24L377.516 89.95C377.536 90.01 377.566 90.04 377.606 90.04C377.646 90.02 377.666 89.98 377.666 89.92V76.3Z" fill="white"/>
<path d="M394.345 76C394.545 76 394.645 76.1 394.645 76.3V78.19C394.645 78.39 394.545 78.49 394.345 78.49H390.415C390.335 78.49 390.295 78.53 390.295 78.61V96.7C390.295 96.9 390.195 97 389.995 97H387.715C387.515 97 387.415 96.9 387.415 96.7V78.61C387.415 78.53 387.375 78.49 387.295 78.49H383.575C383.375 78.49 383.275 78.39 383.275 78.19V76.3C383.275 76.1 383.375 76 383.575 76H394.345Z" fill="white"/>
<path d="M507.075 299.24C505.435 299.24 504.115 298.74 503.115 297.74C502.115 296.74 501.615 295.41 501.615 293.75V283.28C501.615 281.62 502.115 280.29 503.115 279.29C504.115 278.27 505.435 277.76 507.075 277.76C508.735 277.76 510.065 278.27 511.065 279.29C512.085 280.29 512.595 281.62 512.595 283.28V293.75C512.595 295.41 512.085 296.74 511.065 297.74C510.065 298.74 508.735 299.24 507.075 299.24ZM507.075 296.75C507.875 296.75 508.515 296.49 508.995 295.97C509.475 295.43 509.715 294.73 509.715 293.87V283.13C509.715 282.27 509.475 281.58 508.995 281.06C508.515 280.52 507.875 280.25 507.075 280.25C506.295 280.25 505.665 280.52 505.185 281.06C504.725 281.58 504.495 282.27 504.495 283.13V293.87C504.495 294.73 504.725 295.43 505.185 295.97C505.665 296.49 506.295 296.75 507.075 296.75Z" fill="white"/>
<path d="M521.532 277.97C523.072 277.97 524.312 278.53 525.252 279.65C526.212 280.75 526.692 282.2 526.692 284C526.692 285.76 526.232 287.18 525.312 288.26C524.392 289.34 523.182 289.88 521.682 289.88H518.862C518.782 289.88 518.742 289.92 518.742 290V298.7C518.742 298.9 518.642 299 518.442 299H516.162C515.962 299 515.862 298.9 515.862 298.7V278.27C515.862 278.07 515.962 277.97 516.162 277.97H521.532ZM521.082 287.57C521.902 287.57 522.562 287.26 523.062 286.64C523.562 286 523.812 285.14 523.812 284.06C523.812 282.96 523.562 282.09 523.062 281.45C522.562 280.79 521.902 280.46 521.082 280.46H518.862C518.782 280.46 518.742 280.5 518.742 280.58V287.45C518.742 287.53 518.782 287.57 518.862 287.57H521.082Z" fill="white"/>
<path d="M539.537 278C539.737 278 539.837 278.1 539.837 278.3V280.19C539.837 280.39 539.737 280.49 539.537 280.49H535.607C535.527 280.49 535.487 280.53 535.487 280.61V298.7C535.487 298.9 535.387 299 535.187 299H532.907C532.707 299 532.607 298.9 532.607 298.7V280.61C532.607 280.53 532.567 280.49 532.487 280.49H528.767C528.567 280.49 528.467 280.39 528.467 280.19V278.3C528.467 278.1 528.567 278 528.767 278H539.537Z" fill="white"/>
<path d="M542.911 299C542.711 299 542.611 298.9 542.611 298.7V278.3C542.611 278.1 542.711 278 542.911 278H545.191C545.391 278 545.491 278.1 545.491 278.3V298.7C545.491 298.9 545.391 299 545.191 299H542.911Z" fill="white"/>
<path d="M558.533 278.21C558.613 278.07 558.733 278 558.893 278H561.173C561.373 278 561.473 278.1 561.473 278.3V298.7C561.473 298.9 561.373 299 561.173 299H558.893C558.693 299 558.593 298.9 558.593 298.7V283.82C558.593 283.76 558.573 283.73 558.533 283.73C558.513 283.73 558.483 283.75 558.443 283.79L555.563 289.16C555.503 289.3 555.413 289.37 555.293 289.37C555.173 289.37 555.083 289.3 555.023 289.16L552.173 283.82C552.133 283.78 552.093 283.76 552.053 283.76C552.033 283.76 552.023 283.79 552.023 283.85V298.7C552.023 298.9 551.923 299 551.723 299H549.443C549.243 299 549.143 298.9 549.143 298.7V278.3C549.143 278.1 549.243 278 549.443 278H551.723C551.863 278 551.983 278.07 552.083 278.21L555.233 283.85C555.253 283.87 555.283 283.88 555.323 283.88C555.363 283.88 555.393 283.87 555.413 283.85L558.533 278.21Z" fill="white"/>
<path d="M565.411 299C565.211 299 565.111 298.9 565.111 298.7V278.3C565.111 278.1 565.211 278 565.411 278H567.691C567.891 278 567.991 278.1 567.991 278.3V298.7C567.991 298.9 567.891 299 567.691 299H565.411Z" fill="white"/>
<path d="M571.013 299C570.813 299 570.713 298.9 570.713 298.7V296.69C570.713 296.59 570.743 296.47 570.803 296.33L577.763 280.64C577.783 280.6 577.783 280.57 577.763 280.55C577.743 280.51 577.713 280.49 577.673 280.49H571.013C570.813 280.49 570.713 280.39 570.713 280.19V278.3C570.713 278.1 570.813 278 571.013 278H580.583C580.783 278 580.883 278.1 580.883 278.3V280.31C580.883 280.39 580.853 280.51 580.793 280.67L573.803 296.36C573.783 296.4 573.783 296.44 573.803 296.48C573.823 296.5 573.853 296.51 573.893 296.51H580.583C580.783 296.51 580.883 296.61 580.883 296.81V298.7C580.883 298.9 580.783 299 580.583 299H571.013Z" fill="white"/>
<path d="M591.964 299C591.784 299 591.674 298.91 591.634 298.73L590.974 295.28C590.974 295.24 590.954 295.21 590.914 295.19C590.894 295.17 590.864 295.16 590.824 295.16H585.934C585.894 295.16 585.854 295.17 585.814 295.19C585.794 295.21 585.784 295.24 585.784 295.28L585.154 298.73C585.134 298.91 585.024 299 584.824 299H582.544C582.444 299 582.364 298.97 582.304 298.91C582.264 298.85 582.254 298.77 582.274 298.67L586.744 278.27C586.784 278.09 586.894 278 587.074 278H589.744C589.944 278 590.054 278.09 590.074 278.27L594.574 298.67V298.73C594.574 298.91 594.484 299 594.304 299H591.964ZM586.294 292.76C586.294 292.84 586.324 292.88 586.384 292.88H590.374C590.434 292.88 590.464 292.84 590.464 292.76L588.424 282.11C588.404 282.07 588.384 282.05 588.364 282.05C588.344 282.05 588.324 282.07 588.304 282.11L586.294 292.76Z" fill="white"/>
<path d="M605.133 278C605.333 278 605.433 278.1 605.433 278.3V280.19C605.433 280.39 605.333 280.49 605.133 280.49H601.203C601.123 280.49 601.083 280.53 601.083 280.61V298.7C601.083 298.9 600.983 299 600.783 299H598.503C598.303 299 598.203 298.9 598.203 298.7V280.61C598.203 280.53 598.163 280.49 598.083 280.49H594.363C594.163 280.49 594.063 280.39 594.063 280.19V278.3C594.063 278.1 594.163 278 594.363 278H605.133Z" fill="white"/>
<path d="M608.507 299C608.307 299 608.207 298.9 608.207 298.7V278.3C608.207 278.1 608.307 278 608.507 278H610.787C610.987 278 611.087 278.1 611.087 278.3V298.7C611.087 298.9 610.987 299 610.787 299H608.507Z" fill="white"/>
<path d="M619.838 299.24C618.198 299.24 616.878 298.74 615.878 297.74C614.878 296.74 614.378 295.41 614.378 293.75V283.28C614.378 281.62 614.878 280.29 615.878 279.29C616.878 278.27 618.198 277.76 619.838 277.76C621.498 277.76 622.828 278.27 623.828 279.29C624.848 280.29 625.358 281.62 625.358 283.28V293.75C625.358 295.41 624.848 296.74 623.828 297.74C622.828 298.74 621.498 299.24 619.838 299.24ZM619.838 296.75C620.638 296.75 621.278 296.49 621.758 295.97C622.238 295.43 622.478 294.73 622.478 293.87V283.13C622.478 282.27 622.238 281.58 621.758 281.06C621.278 280.52 620.638 280.25 619.838 280.25C619.058 280.25 618.428 280.52 617.948 281.06C617.488 281.58 617.258 282.27 617.258 283.13V293.87C617.258 294.73 617.488 295.43 617.948 295.97C618.428 296.49 619.058 296.75 619.838 296.75Z" fill="white"/>
<path d="M637.116 278.3C637.116 278.1 637.216 278 637.416 278H639.666C639.866 278 639.966 278.1 639.966 278.3V298.7C639.966 298.9 639.866 299 639.666 299H637.086C636.926 299 636.816 298.92 636.756 298.76L631.656 285.05C631.636 285.01 631.606 285 631.566 285.02C631.526 285.02 631.506 285.04 631.506 285.08L631.536 298.7C631.536 298.9 631.436 299 631.236 299H628.956C628.756 299 628.656 298.9 628.656 298.7V278.3C628.656 278.1 628.756 278 628.956 278H631.506C631.666 278 631.776 278.08 631.836 278.24L636.966 291.95C636.986 292.01 637.016 292.04 637.056 292.04C637.096 292.02 637.116 291.98 637.116 291.92V278.3Z" fill="white"/>
<path d="M392.602 555C392.402 555 392.302 554.9 392.302 554.7V534.3C392.302 534.1 392.402 534 392.602 534H397.522C399.182 534 400.502 534.51 401.482 535.53C402.462 536.55 402.952 537.93 402.952 539.67V549.33C402.952 551.07 402.462 552.45 401.482 553.47C400.502 554.49 399.182 555 397.522 555H392.602ZM395.182 552.39C395.182 552.47 395.222 552.51 395.302 552.51L397.492 552.48C398.252 552.48 398.862 552.19 399.322 551.61C399.782 551.01 400.022 550.2 400.042 549.18V539.82C400.042 538.8 399.812 537.99 399.352 537.39C398.892 536.79 398.272 536.49 397.492 536.49H395.302C395.222 536.49 395.182 536.53 395.182 536.61V552.39Z" fill="white"/>
<path d="M406.665 555C406.465 555 406.365 554.9 406.365 554.7V534.3C406.365 534.1 406.465 534 406.665 534H408.945C409.145 534 409.245 534.1 409.245 534.3V554.7C409.245 554.9 409.145 555 408.945 555H406.665Z" fill="white"/>
<path d="M417.517 555.24C415.937 555.24 414.657 554.75 413.677 553.77C412.717 552.77 412.237 551.47 412.237 549.87V549.09C412.237 548.89 412.337 548.79 412.537 548.79H414.757C414.957 548.79 415.057 548.89 415.057 549.09V549.72C415.057 550.64 415.287 551.38 415.747 551.94C416.207 552.48 416.797 552.75 417.517 552.75C418.237 552.75 418.827 552.49 419.287 551.97C419.767 551.43 420.007 550.73 420.007 549.87C420.007 549.29 419.877 548.78 419.617 548.34C419.377 547.9 419.047 547.51 418.627 547.17C418.227 546.81 417.567 546.29 416.647 545.61C415.627 544.85 414.827 544.2 414.247 543.66C413.667 543.12 413.177 542.47 412.777 541.71C412.377 540.95 412.177 540.06 412.177 539.04C412.177 537.42 412.657 536.14 413.617 535.2C414.577 534.24 415.827 533.76 417.367 533.76C418.967 533.76 420.247 534.27 421.207 535.29C422.187 536.31 422.677 537.65 422.677 539.31V540.06C422.677 540.26 422.577 540.36 422.377 540.36H420.157C419.957 540.36 419.857 540.26 419.857 540.06V539.25C419.857 538.35 419.627 537.63 419.167 537.09C418.707 536.53 418.107 536.25 417.367 536.25C416.667 536.25 416.097 536.5 415.657 537C415.217 537.48 414.997 538.16 414.997 539.04C414.997 539.84 415.217 540.52 415.657 541.08C416.097 541.62 416.947 542.35 418.207 543.27C419.407 544.17 420.307 544.9 420.907 545.46C421.527 546.02 421.997 546.64 422.317 547.32C422.657 547.98 422.827 548.77 422.827 549.69C422.827 551.37 422.337 552.72 421.357 553.74C420.377 554.74 419.097 555.24 417.517 555.24Z" fill="white"/>
<path d="M435.518 534C435.718 534 435.818 534.1 435.818 534.3V536.19C435.818 536.39 435.718 536.49 435.518 536.49H431.588C431.508 536.49 431.468 536.53 431.468 536.61V554.7C431.468 554.9 431.368 555 431.168 555H428.888C428.688 555 428.588 554.9 428.588 554.7V536.61C428.588 536.53 428.548 536.49 428.468 536.49H424.748C424.548 536.49 424.448 536.39 424.448 536.19V534.3C424.448 534.1 424.548 534 424.748 534H435.518Z" fill="white"/>
<path d="M446.931 555C446.751 555 446.631 554.92 446.571 554.76L443.811 545.82C443.791 545.76 443.751 545.73 443.691 545.73H441.591C441.511 545.73 441.471 545.77 441.471 545.85V554.7C441.471 554.9 441.371 555 441.171 555H438.891C438.691 555 438.591 554.9 438.591 554.7V534.3C438.591 534.1 438.691 534 438.891 534H444.261C445.281 534 446.181 534.25 446.961 534.75C447.741 535.25 448.341 535.96 448.761 536.88C449.201 537.78 449.421 538.81 449.421 539.97C449.421 541.23 449.161 542.33 448.641 543.27C448.121 544.19 447.411 544.86 446.511 545.28C446.451 545.34 446.431 545.4 446.451 545.46L449.511 554.67L449.541 554.79C449.541 554.93 449.451 555 449.271 555H446.931ZM441.591 536.49C441.511 536.49 441.471 536.53 441.471 536.61V543.33C441.471 543.41 441.511 543.45 441.591 543.45H443.811C444.631 543.45 445.291 543.14 445.791 542.52C446.291 541.88 446.541 541.04 446.541 540C446.541 538.92 446.291 538.07 445.791 537.45C445.291 536.81 444.631 536.49 443.811 536.49H441.591Z" fill="white"/>
<path d="M452.485 555C452.285 555 452.185 554.9 452.185 554.7V534.3C452.185 534.1 452.285 534 452.485 534H454.765C454.965 534 455.065 534.1 455.065 534.3V554.7C455.065 554.9 454.965 555 454.765 555H452.485Z" fill="white"/>
<path d="M469.697 549.27C469.697 551.09 469.177 552.5 468.137 553.5C467.117 554.5 465.767 555 464.087 555H459.077C458.877 555 458.777 554.9 458.777 554.7V534.3C458.777 534.1 458.877 534 459.077 534H463.667C465.487 534 466.907 534.48 467.927 535.44C468.967 536.38 469.487 537.76 469.487 539.58C469.487 541.74 468.717 543.23 467.177 544.05C467.077 544.11 467.067 544.16 467.147 544.2C467.947 544.68 468.567 545.35 469.007 546.21C469.467 547.07 469.697 548.09 469.697 549.27ZM461.777 536.49C461.697 536.49 461.657 536.53 461.657 536.61V542.97C461.657 543.05 461.697 543.09 461.777 543.09H463.697C464.637 543.09 465.367 542.81 465.887 542.25C466.407 541.67 466.667 540.87 466.667 539.85C466.667 538.79 466.407 537.97 465.887 537.39C465.367 536.79 464.637 536.49 463.697 536.49H461.777ZM463.847 552.48C464.767 552.48 465.487 552.17 466.007 551.55C466.547 550.93 466.817 550.05 466.817 548.91C466.817 547.75 466.557 546.85 466.037 546.21C465.517 545.55 464.797 545.22 463.877 545.22H461.777C461.697 545.22 461.657 545.26 461.657 545.34V552.36C461.657 552.44 461.697 552.48 461.777 552.48H463.847Z" fill="white"/>
<path d="M477.739 555.24C476.099 555.24 474.779 554.7 473.779 553.62C472.799 552.52 472.309 551.08 472.309 549.3V534.3C472.309 534.1 472.409 534 472.609 534H474.889C475.089 534 475.189 534.1 475.189 534.3V549.6C475.189 550.54 475.419 551.3 475.879 551.88C476.359 552.46 476.979 552.75 477.739 552.75C478.519 552.75 479.139 552.46 479.599 551.88C480.079 551.3 480.319 550.54 480.319 549.6V534.3C480.319 534.1 480.419 534 480.619 534H482.899C483.099 534 483.199 534.1 483.199 534.3V549.3C483.199 551.08 482.699 552.52 481.699 553.62C480.699 554.7 479.379 555.24 477.739 555.24Z" fill="white"/>
<path d="M496.865 534C497.065 534 497.165 534.1 497.165 534.3V536.19C497.165 536.39 497.065 536.49 496.865 536.49H492.935C492.855 536.49 492.815 536.53 492.815 536.61V554.7C492.815 554.9 492.715 555 492.515 555H490.235C490.035 555 489.935 554.9 489.935 554.7V536.61C489.935 536.53 489.895 536.49 489.815 536.49H486.095C485.895 536.49 485.795 536.39 485.795 536.19V534.3C485.795 534.1 485.895 534 486.095 534H496.865Z" fill="white"/>
<path d="M500.239 555C500.039 555 499.939 554.9 499.939 554.7V534.3C499.939 534.1 500.039 534 500.239 534H502.519C502.719 534 502.819 534.1 502.819 534.3V554.7C502.819 554.9 502.719 555 502.519 555H500.239Z" fill="white"/>
<path d="M511.571 555.24C509.931 555.24 508.611 554.74 507.611 553.74C506.611 552.74 506.111 551.41 506.111 549.75V539.28C506.111 537.62 506.611 536.29 507.611 535.29C508.611 534.27 509.931 533.76 511.571 533.76C513.231 533.76 514.561 534.27 515.561 535.29C516.581 536.29 517.091 537.62 517.091 539.28V549.75C517.091 551.41 516.581 552.74 515.561 553.74C514.561 554.74 513.231 555.24 511.571 555.24ZM511.571 552.75C512.371 552.75 513.011 552.49 513.491 551.97C513.971 551.43 514.211 550.73 514.211 549.87V539.13C514.211 538.27 513.971 537.58 513.491 537.06C513.011 536.52 512.371 536.25 511.571 536.25C510.791 536.25 510.161 536.52 509.681 537.06C509.221 537.58 508.991 538.27 508.991 539.13V549.87C508.991 550.73 509.221 551.43 509.681 551.97C510.161 552.49 510.791 552.75 511.571 552.75Z" fill="white"/>
<path d="M528.848 534.3C528.848 534.1 528.948 534 529.148 534H531.398C531.598 534 531.698 534.1 531.698 534.3V554.7C531.698 554.9 531.598 555 531.398 555H528.818C528.658 555 528.548 554.92 528.488 554.76L523.388 541.05C523.368 541.01 523.338 541 523.298 541.02C523.258 541.02 523.238 541.04 523.238 541.08L523.268 554.7C523.268 554.9 523.168 555 522.968 555H520.688C520.488 555 520.388 554.9 520.388 554.7V534.3C520.388 534.1 520.488 534 520.688 534H523.238C523.398 534 523.508 534.08 523.568 534.24L528.698 547.95C528.718 548.01 528.748 548.04 528.788 548.04C528.828 548.02 528.848 547.98 528.848 547.92V534.3Z" fill="white"/>
<path d="M115.386 534.21C115.466 534.07 115.586 534 115.746 534H118.026C118.226 534 118.326 534.1 118.326 534.3V554.7C118.326 554.9 118.226 555 118.026 555H115.746C115.546 555 115.446 554.9 115.446 554.7V539.82C115.446 539.76 115.426 539.73 115.386 539.73C115.366 539.73 115.336 539.75 115.296 539.79L112.416 545.16C112.356 545.3 112.266 545.37 112.146 545.37C112.026 545.37 111.936 545.3 111.876 545.16L109.026 539.82C108.986 539.78 108.946 539.76 108.906 539.76C108.886 539.76 108.876 539.79 108.876 539.85V554.7C108.876 554.9 108.776 555 108.576 555H106.296C106.096 555 105.996 554.9 105.996 554.7V534.3C105.996 534.1 106.096 534 106.296 534H108.576C108.716 534 108.836 534.07 108.936 534.21L112.086 539.85C112.106 539.87 112.136 539.88 112.176 539.88C112.216 539.88 112.246 539.87 112.266 539.85L115.386 534.21Z" fill="white"/>
<path d="M132.014 536.19C132.014 536.39 131.914 536.49 131.714 536.49H124.964C124.884 536.49 124.844 536.53 124.844 536.61V543.12C124.844 543.2 124.884 543.24 124.964 543.24H129.104C129.304 543.24 129.404 543.34 129.404 543.54V545.43C129.404 545.63 129.304 545.73 129.104 545.73H124.964C124.884 545.73 124.844 545.77 124.844 545.85V552.39C124.844 552.47 124.884 552.51 124.964 552.51H131.714C131.914 552.51 132.014 552.61 132.014 552.81V554.7C132.014 554.9 131.914 555 131.714 555H122.264C122.064 555 121.964 554.9 121.964 554.7V534.3C121.964 534.1 122.064 534 122.264 534H131.714C131.914 534 132.014 534.1 132.014 534.3V536.19Z" fill="white"/>
<path d="M143.778 555C143.598 555 143.488 554.91 143.448 554.73L142.788 551.28C142.788 551.24 142.768 551.21 142.728 551.19C142.708 551.17 142.678 551.16 142.638 551.16H137.748C137.708 551.16 137.668 551.17 137.628 551.19C137.608 551.21 137.598 551.24 137.598 551.28L136.968 554.73C136.948 554.91 136.838 555 136.638 555H134.358C134.258 555 134.178 554.97 134.118 554.91C134.078 554.85 134.068 554.77 134.088 554.67L138.558 534.27C138.598 534.09 138.708 534 138.888 534H141.558C141.758 534 141.868 534.09 141.888 534.27L146.388 554.67V554.73C146.388 554.91 146.298 555 146.118 555H143.778ZM138.108 548.76C138.108 548.84 138.138 548.88 138.198 548.88H142.188C142.248 548.88 142.278 548.84 142.278 548.76L140.238 538.11C140.218 538.07 140.198 538.05 140.178 538.05C140.158 538.05 140.138 538.07 140.118 538.11L138.108 548.76Z" fill="white"/>
<path d="M152.54 555.24C150.96 555.24 149.68 554.75 148.7 553.77C147.74 552.77 147.26 551.47 147.26 549.87V549.09C147.26 548.89 147.36 548.79 147.56 548.79H149.78C149.98 548.79 150.08 548.89 150.08 549.09V549.72C150.08 550.64 150.31 551.38 150.77 551.94C151.23 552.48 151.82 552.75 152.54 552.75C153.26 552.75 153.85 552.49 154.31 551.97C154.79 551.43 155.03 550.73 155.03 549.87C155.03 549.29 154.9 548.78 154.64 548.34C154.4 547.9 154.07 547.51 153.65 547.17C153.25 546.81 152.59 546.29 151.67 545.61C150.65 544.85 149.85 544.2 149.27 543.66C148.69 543.12 148.2 542.47 147.8 541.71C147.4 540.95 147.2 540.06 147.2 539.04C147.2 537.42 147.68 536.14 148.64 535.2C149.6 534.24 150.85 533.76 152.39 533.76C153.99 533.76 155.27 534.27 156.23 535.29C157.21 536.31 157.7 537.65 157.7 539.31V540.06C157.7 540.26 157.6 540.36 157.4 540.36H155.18C154.98 540.36 154.88 540.26 154.88 540.06V539.25C154.88 538.35 154.65 537.63 154.19 537.09C153.73 536.53 153.13 536.25 152.39 536.25C151.69 536.25 151.12 536.5 150.68 537C150.24 537.48 150.02 538.16 150.02 539.04C150.02 539.84 150.24 540.52 150.68 541.08C151.12 541.62 151.97 542.35 153.23 543.27C154.43 544.17 155.33 544.9 155.93 545.46C156.55 546.02 157.02 546.64 157.34 547.32C157.68 547.98 157.85 548.77 157.85 549.69C157.85 551.37 157.36 552.72 156.38 553.74C155.4 554.74 154.12 555.24 152.54 555.24Z" fill="white"/>
<path d="M166.034 555.24C164.394 555.24 163.074 554.7 162.074 553.62C161.094 552.52 160.604 551.08 160.604 549.3V534.3C160.604 534.1 160.704 534 160.904 534H163.184C163.384 534 163.484 534.1 163.484 534.3V549.6C163.484 550.54 163.714 551.3 164.174 551.88C164.654 552.46 165.274 552.75 166.034 552.75C166.814 552.75 167.434 552.46 167.894 551.88C168.374 551.3 168.614 550.54 168.614 549.6V534.3C168.614 534.1 168.714 534 168.914 534H171.194C171.394 534 171.494 534.1 171.494 534.3V549.3C171.494 551.08 170.994 552.52 169.994 553.62C168.994 554.7 167.674 555.24 166.034 555.24Z" fill="white"/>
<path d="M183.39 555C183.21 555 183.09 554.92 183.03 554.76L180.27 545.82C180.25 545.76 180.21 545.73 180.15 545.73H178.05C177.97 545.73 177.93 545.77 177.93 545.85V554.7C177.93 554.9 177.83 555 177.63 555H175.35C175.15 555 175.05 554.9 175.05 554.7V534.3C175.05 534.1 175.15 534 175.35 534H180.72C181.74 534 182.64 534.25 183.42 534.75C184.2 535.25 184.8 535.96 185.22 536.88C185.66 537.78 185.88 538.81 185.88 539.97C185.88 541.23 185.62 542.33 185.1 543.27C184.58 544.19 183.87 544.86 182.97 545.28C182.91 545.34 182.89 545.4 182.91 545.46L185.97 554.67L186 554.79C186 554.93 185.91 555 185.73 555H183.39ZM178.05 536.49C177.97 536.49 177.93 536.53 177.93 536.61V543.33C177.93 543.41 177.97 543.45 178.05 543.45H180.27C181.09 543.45 181.75 543.14 182.25 542.52C182.75 541.88 183 541.04 183 540C183 538.92 182.75 538.07 182.25 537.45C181.75 536.81 181.09 536.49 180.27 536.49H178.05Z" fill="white"/>
<path d="M198.694 536.19C198.694 536.39 198.594 536.49 198.394 536.49H191.644C191.564 536.49 191.524 536.53 191.524 536.61V543.12C191.524 543.2 191.564 543.24 191.644 543.24H195.784C195.984 543.24 196.084 543.34 196.084 543.54V545.43C196.084 545.63 195.984 545.73 195.784 545.73H191.644C191.564 545.73 191.524 545.77 191.524 545.85V552.39C191.524 552.47 191.564 552.51 191.644 552.51H198.394C198.594 552.51 198.694 552.61 198.694 552.81V554.7C198.694 554.9 198.594 555 198.394 555H188.944C188.744 555 188.644 554.9 188.644 554.7V534.3C188.644 534.1 188.744 534 188.944 534H198.394C198.594 534 198.694 534.1 198.694 534.3V536.19Z" fill="white"/>
<path d="M210.923 534.21C211.003 534.07 211.123 534 211.283 534H213.563C213.763 534 213.863 534.1 213.863 534.3V554.7C213.863 554.9 213.763 555 213.563 555H211.283C211.083 555 210.983 554.9 210.983 554.7V539.82C210.983 539.76 210.963 539.73 210.923 539.73C210.903 539.73 210.873 539.75 210.833 539.79L207.953 545.16C207.893 545.3 207.803 545.37 207.683 545.37C207.563 545.37 207.473 545.3 207.413 545.16L204.563 539.82C204.523 539.78 204.483 539.76 204.443 539.76C204.423 539.76 204.413 539.79 204.413 539.85V554.7C204.413 554.9 204.313 555 204.113 555H201.833C201.633 555 201.533 554.9 201.533 554.7V534.3C201.533 534.1 201.633 534 201.833 534H204.113C204.253 534 204.373 534.07 204.473 534.21L207.623 539.85C207.643 539.87 207.673 539.88 207.713 539.88C207.753 539.88 207.783 539.87 207.803 539.85L210.923 534.21Z" fill="white"/>
<path d="M227.552 536.19C227.552 536.39 227.452 536.49 227.252 536.49H220.502C220.422 536.49 220.382 536.53 220.382 536.61V543.12C220.382 543.2 220.422 543.24 220.502 543.24H224.642C224.842 543.24 224.942 543.34 224.942 543.54V545.43C224.942 545.63 224.842 545.73 224.642 545.73H220.502C220.422 545.73 220.382 545.77 220.382 545.85V552.39C220.382 552.47 220.422 552.51 220.502 552.51H227.252C227.452 552.51 227.552 552.61 227.552 552.81V554.7C227.552 554.9 227.452 555 227.252 555H217.802C217.602 555 217.502 554.9 217.502 554.7V534.3C217.502 534.1 217.602 534 217.802 534H227.252C227.452 534 227.552 534.1 227.552 534.3V536.19Z" fill="white"/>
<path d="M238.911 534.3C238.911 534.1 239.011 534 239.211 534H241.461C241.661 534 241.761 534.1 241.761 534.3V554.7C241.761 554.9 241.661 555 241.461 555H238.881C238.721 555 238.611 554.92 238.551 554.76L233.451 541.05C233.431 541.01 233.401 541 233.361 541.02C233.321 541.02 233.301 541.04 233.301 541.08L233.331 554.7C233.331 554.9 233.231 555 233.031 555H230.751C230.551 555 230.451 554.9 230.451 554.7V534.3C230.451 534.1 230.551 534 230.751 534H233.301C233.461 534 233.571 534.08 233.631 534.24L238.761 547.95C238.781 548.01 238.811 548.04 238.851 548.04C238.891 548.02 238.911 547.98 238.911 547.92V534.3Z" fill="white"/>
<path d="M255.59 534C255.79 534 255.89 534.1 255.89 534.3V536.19C255.89 536.39 255.79 536.49 255.59 536.49H251.66C251.58 536.49 251.54 536.53 251.54 536.61V554.7C251.54 554.9 251.44 555 251.24 555H248.96C248.76 555 248.66 554.9 248.66 554.7V536.61C248.66 536.53 248.62 536.49 248.54 536.49H244.82C244.62 536.49 244.52 536.39 244.52 536.19V534.3C244.52 534.1 244.62 534 244.82 534H255.59Z" fill="white"/>
<path d="M82.9974 266V239.6L75.7494 244.16V237.2L83.4774 232.4H89.1894V266H82.9974Z" fill="white"/>
<path d="M308.839 61.9999V57.1519C308.839 54.0799 309.575 51.6799 311.047 49.9519C312.263 48.5119 314.791 46.8319 318.631 44.9119C318.855 44.8159 319.175 44.6559 319.591 44.4319C320.871 43.8239 321.783 43.3599 322.327 43.0399C322.903 42.6879 323.543 42.2399 324.247 41.6959C324.951 41.1519 325.431 40.5759 325.687 39.9679C325.943 39.3279 326.071 38.5919 326.071 37.7599C326.071 36.5119 325.575 35.4879 324.583 34.6879C323.591 33.8559 322.263 33.4399 320.599 33.4399C317.111 33.4399 315.143 35.6159 314.695 39.9679L308.551 39.1519C308.775 35.4719 309.959 32.6399 312.103 30.6559C314.279 28.6719 317.223 27.6799 320.935 27.6799C324.199 27.6799 326.887 28.6239 328.999 30.5119C331.143 32.3679 332.215 34.9279 332.215 38.1919C332.215 39.5679 331.975 40.8319 331.495 41.9839C331.015 43.1039 330.311 44.1119 329.383 45.0079C328.487 45.8719 327.575 46.6079 326.647 47.2159C325.751 47.7919 324.663 48.3999 323.383 49.0399C320.919 50.2879 319.271 51.1519 318.439 51.6319C317.639 52.1119 317.047 52.6239 316.663 53.1679C316.215 53.8399 315.991 54.6719 315.991 55.6639H332.455V61.9999H308.839Z" fill="white"/>
<path d="M558.713 255.008L565.001 253.664C565.641 258.528 567.897 260.96 571.769 260.96C573.657 260.96 575.129 260.528 576.185 259.664C577.241 258.8 577.769 257.584 577.769 256.016C577.769 252.72 575.673 251.072 571.481 251.072H569.273V245.984H571.241C572.745 245.984 573.945 245.632 574.841 244.928C575.769 244.224 576.233 243.2 576.233 241.856C576.233 240.48 575.801 239.408 574.937 238.64C574.105 237.84 572.937 237.44 571.433 237.44C568.521 237.44 566.809 239.136 566.297 242.528L560.393 241.424C560.681 238.416 561.833 236.048 563.849 234.32C565.897 232.56 568.505 231.68 571.673 231.68C574.713 231.68 577.225 232.528 579.209 234.224C581.225 235.888 582.233 238.128 582.233 240.944C582.233 242.96 581.769 244.512 580.841 245.6C579.913 246.688 578.937 247.392 577.913 247.712V247.856C579.257 248.144 580.569 249.008 581.849 250.448C583.161 251.856 583.817 253.856 583.817 256.448C583.817 259.392 582.761 261.84 580.649 263.792C578.537 265.744 575.593 266.72 571.817 266.72C568.169 266.72 565.177 265.744 562.841 263.792C560.537 261.808 559.161 258.88 558.713 255.008Z" fill="white"/>
<path d="M448.233 516.568V510.52L461.001 489.4H470.841V510.568H474.777V516.568H470.841V523H464.745V516.568H448.233ZM454.761 510.568H464.745V494.152H464.649L454.761 510.568Z" fill="white"/>
<path d="M168.053 514.648L174.149 512.056C174.661 513.816 175.493 515.224 176.645 516.28C177.829 517.304 179.253 517.816 180.917 517.816C182.741 517.816 184.245 517.288 185.429 516.232C186.645 515.176 187.253 513.64 187.253 511.624C187.253 509.608 186.661 508.072 185.477 507.016C184.293 505.96 182.821 505.432 181.061 505.432C178.181 505.432 175.941 506.632 174.341 509.032L169.301 506.488L172.229 489.4H190.181V495.4H177.125L175.829 502.984L175.877 503.032C176.037 502.776 176.341 502.488 176.789 502.168C177.237 501.816 178.005 501.464 179.093 501.112C180.181 500.728 181.381 500.536 182.693 500.536C185.701 500.536 188.245 501.592 190.325 503.704C192.405 505.816 193.445 508.52 193.445 511.816C193.445 515.528 192.245 518.44 189.845 520.552C187.445 522.664 184.469 523.72 180.917 523.72C177.589 523.72 174.853 522.888 172.709 521.224C170.565 519.56 169.013 517.368 168.053 514.648Z" fill="white"/>
</svg>
