<svg width="166" height="192" viewBox="0 0 166 192" fill="none" xmlns="http://www.w3.org/2000/svg">
<path fill-rule="evenodd" clip-rule="evenodd" d="M9.82377 10.1568C15.7937 4.18687 23.8906 0.833008 32.3333 0.833008H133.667C142.109 0.833008 150.206 4.18687 156.176 10.1568C162.146 16.1267 165.5 24.2236 165.5 32.6663V121.333C165.5 129.776 162.146 137.873 156.176 143.843C150.206 149.812 142.109 153.166 133.667 153.166H102.167V172C102.167 177.083 100.147 181.958 96.5529 185.553C92.9584 189.147 88.0833 191.166 83 191.166C77.9167 191.166 73.0416 189.147 69.4471 185.553C65.8527 181.958 63.8333 177.083 63.8333 172V153.166H32.3333C23.8906 153.166 15.7937 149.812 9.82377 143.843C3.85386 137.873 0.5 129.776 0.5 121.333V32.6663C0.5 24.2236 3.85386 16.1267 9.82377 10.1568ZM13.5 102.5V121.333C13.5 126.328 15.4842 131.118 19.0162 134.65C22.5481 138.182 27.3384 140.166 32.3333 140.166H76.8333V172C76.8333 173.635 77.483 175.204 78.6395 176.36C79.796 177.517 81.3645 178.166 83 178.166C84.6355 178.166 86.204 177.517 87.3605 176.36C88.517 175.204 89.1667 173.635 89.1667 172V140.166H133.667C138.662 140.166 143.452 138.182 146.984 134.65C150.516 131.118 152.5 126.328 152.5 121.333V102.5H13.5ZM152.5 89.4997H13.5V32.6663C13.5 27.6714 15.4842 22.8811 19.0162 19.3492C22.5481 15.8172 27.3384 13.833 32.3333 13.833H51.1667V64.333H64.1667V13.833H76.5V38.9997H89.5V13.833H133.667C138.662 13.833 143.452 15.8172 146.984 19.3492C150.516 22.8811 152.5 27.6714 152.5 32.6663V89.4997Z" fill="#033351"/>
</svg>
