<svg width="174" height="174" viewBox="0 0 174 174" fill="none" xmlns="http://www.w3.org/2000/svg">
<path d="M120.781 0.176636L116.415 4.96248C106.637 15.7256 98.576 20.5381 91.8665 23.6865C85.157 26.8283 79.5192 27.7668 73.9812 32.0068C68.0771 36.5331 59.4972 45.2128 55.8828 60.7086C48.1349 62.3993 42.4638 65.368 37.9908 69.2352C33.5711 73.0559 30.2429 77.4025 26.1427 82.1351C26.1094 82.1883 26.1627 82.2881 26.1427 82.3414C20.2586 89.1041 15.1133 96.3861 5.12891 100.233L0.96875 101.897V173.033H127.857C135.132 172.64 140.178 167.601 143.246 162.629C146.308 157.664 148.005 152.285 148.864 147.866C151.074 136.603 155.101 104.181 155.101 104.181L155.314 103.562V102.936C155.101 98.4362 153.25 94.6155 150.941 91.0744L158.429 68.8225L170.29 50.9305L173.619 46.1447L169.245 42.1975L125.567 4.33679L120.781 0.176636ZM121.201 18.4813L155.933 48.6475L146.781 62.1596L146.162 62.792L145.949 63.8304L139.918 81.7157C136.77 80.4177 133.528 79.5058 129.934 79.639H129.514L87.5 79.8453H80.8438V105.638C79.9119 112.894 75.8782 115.703 70.8594 117.706C69.1953 118.378 68.989 118.012 67.5313 118.325V79.6456C66.4396 54.9709 75.2259 47.8687 82.0951 42.6169C83.9922 41.1592 89.5501 39.4751 97.4844 35.7543C104.114 32.6325 112.354 27.0413 121.201 18.488V18.4813ZM54.6381 75.6851C54.6115 77.1961 54.1389 78.2611 54.2188 79.8453V133.095H60.875C60.875 133.095 67.9972 133.015 75.6452 129.974C83.2866 126.932 92.5188 119.809 94.1563 107.302V93.1578L129.934 92.9515H130.14C133.062 92.7915 135.928 93.7957 138.111 95.7444C140.295 97.693 141.617 100.427 141.788 103.349C141.762 103.455 141.456 105.924 141.376 106.47H114.125V119.783H139.712C139.006 124.928 138.36 128.156 137.628 133.095H114.125V146.408H135.551C134.765 149.628 133.502 152.713 131.804 155.56C129.987 158.522 128.423 159.64 127.025 159.72H14.2813V110.005C25.071 104.28 31.7805 96.0466 36.1204 91.0811C40.62 85.9291 43.7085 82.0285 46.7305 79.4326C48.7074 77.7419 51.8025 76.7768 54.6381 75.6851Z" fill="#033351"/>
</svg>
