<?xml version="1.0" encoding="utf-8"?>
<!-- Generator: Adobe Illustrator 24.0.2, SVG Export Plug-In . SVG Version: 6.00 Build 0)  -->
<svg version="1.1" id="Capa_1" xmlns="http://www.w3.org/2000/svg" xmlns:xlink="http://www.w3.org/1999/xlink" x="0px" y="0px"
	 viewBox="0 0 447 447" style="enable-background:new 0 0 447 447;" xml:space="preserve">
<style type="text/css">
	.st0{fill:#FFFFFF;}
</style>
<g>
	<path class="st0" d="M223.5,80c22.1,0,40-17.9,40-40s-17.9-40-40-40s-40,17.9-40,40S201.4,80,223.5,80z M223.5,20c11,0,20,9,20,20
		s-9,20-20,20s-20-9-20-20S212.5,20,223.5,20z"/>
	<path class="st0" d="M163.5,170c5.5,0,10-4.5,10-10c0-27.6,22.4-50,50-50s50,22.4,50,50c0,5.5,4.5,10,10,10s10-4.5,10-10
		c0-38.6-31.4-70-70-70s-70,31.4-70,70C153.5,165.5,158,170,163.5,170z"/>
	<path class="st0" d="M309,378.4L322.8,200h30.7c5.5,0,10-4.5,10-10s-4.5-10-10-10h-120v-39.8c0-5.5-4.5-10-10-10
		c-5.5,0-10,4.5-10,10V180h-120c-5.5,0-10,4.5-10,10s4.5,10,10,10h30.7L138,378.4c0.4,5.2,4.8,9.2,10,9.2c0.3,0,0.5,0,0.8,0
		c5.5-0.4,9.6-5.2,9.2-10.7L144.3,200h158.4L289,376.9c-0.4,5.5,3.7,10.3,9.2,10.7c0.3,0,0.5,0,0.8,0
		C304.2,387.7,308.6,383.7,309,378.4z"/>
	<path class="st0" d="M263.5,317c0-22.1-17.9-40-40-40s-40,17.9-40,40s17.9,40,40,40S263.5,339.1,263.5,317z M203.5,317
		c0-11,9-20,20-20s20,9,20,20s-9,20-20,20S203.5,328,203.5,317z"/>
	<path class="st0" d="M223.5,367c-38.6,0-70,31.4-70,70c0,5.5,4.5,10,10,10s10-4.5,10-10c0-27.6,22.4-50,50-50s50,22.4,50,50
		c0,5.5,4.5,10,10,10s10-4.5,10-10C293.5,398.4,262.1,367,223.5,367z"/>
	<path class="st0" d="M334.5,317c0,22.1,17.9,40,40,40s40-17.9,40-40s-17.9-40-40-40S334.5,294.9,334.5,317z M374.5,297
		c11,0,20,9,20,20s-9,20-20,20s-20-9-20-20S363.5,297,374.5,297z"/>
	<path class="st0" d="M374.5,367c-38.6,0-70,31.4-70,70c0,5.5,4.5,10,10,10s10-4.5,10-10c0-27.6,22.4-50,50-50s50,22.4,50,50
		c0,5.5,4.5,10,10,10s10-4.5,10-10C444.5,398.4,413.1,367,374.5,367z"/>
	<path class="st0" d="M72.5,357c22.1,0,40-17.9,40-40s-17.9-40-40-40s-40,17.9-40,40S50.4,357,72.5,357z M72.5,297c11,0,20,9,20,20
		s-9,20-20,20s-20-9-20-20S61.5,297,72.5,297z"/>
	<path class="st0" d="M72.5,367c-38.6,0-70,31.4-70,70c0,5.5,4.5,10,10,10s10-4.5,10-10c0-27.6,22.4-50,50-50s50,22.4,50,50
		c0,5.5,4.5,10,10,10c5.5,0,10-4.5,10-10C142.5,398.4,111.1,367,72.5,367z"/>
</g>
</svg>
