<?xml version="1.0" encoding="utf-8"?>
<!-- Generator: Adobe Illustrator 24.0.2, SVG Export Plug-In . SVG Version: 6.00 Build 0)  -->
<svg version="1.1" id="Capa_1" xmlns="http://www.w3.org/2000/svg" xmlns:xlink="http://www.w3.org/1999/xlink" x="0px" y="0px"
	 viewBox="0 0 444.8 444.8" style="enable-background:new 0 0 444.8 444.8;" xml:space="preserve">
<style type="text/css">
	.st0{fill:#FFFFFF;}
</style>
<g>
	<g>
		<g>
			<path class="st0" d="M269.4,386.9c-18.4,0-36.2-4.4-52.1-12.7H107.2c-10.1,0-18.3-8.2-18.3-18.3v-56.6c0-10.1,8.2-18.3,18.3-18.3
				H157c-0.1-2.2-0.2-4.5-0.2-6.7c0-8.5,0.9-16.8,2.7-24.8h-103v-30.8h101.8c8.7,0,15.8-7.1,15.8-15.8s-7.1-15.8-15.8-15.8H56.5
				v-30.8h50.7h185.1c8.2,0,15.1,5.4,17.5,12.8c11.7,4.5,22.7,11,32.4,19.2v-13.7c0-6.5-1.3-12.6-3.5-18.3H379
				c8.7,0,15.8-7.1,15.8-15.8s-7.1-15.8-15.8-15.8h-4.4V31.5h4.4c8.7,0,15.8-7.1,15.8-15.8S387.7,0,379,0H107.2
				C79.7,0,57.4,22.4,57.4,49.9v56.6c0,6.5,1.3,12.6,3.5,18.3H20.6c-8.7,0-15.8,7.1-15.8,15.8s7.1,15.8,15.8,15.8H25v93.2h-4.4
				c-8.7,0-15.8,7.1-15.8,15.8c0,8.7,7.1,15.8,15.8,15.8h40.3c-2.3,5.7-3.5,11.9-3.5,18.3v56.6c0,27.5,22.4,49.9,49.9,49.9h225.5
				l-25.4-25.4C295.1,384.7,282.4,386.9,269.4,386.9z M88.9,49.9c0-10.1,8.2-18.3,18.3-18.3h235.8v30.8H241.3
				c-8.7,0-15.8,7.1-15.8,15.8s7.1,15.8,15.8,15.8h101.8v30.8H107.2c-10.1,0-18.3-8.2-18.3-18.3V49.9z"/>
			<path class="st0" d="M432.4,400.5l-79-79c21.3-37.4,16-86-15.9-117.9c-38.3-38.3-100.5-38.3-138.8,0
				c-38.3,38.3-38.3,100.5,0,138.8c31.9,31.9,80.5,37.2,117.9,15.9l79,79c10.1,10.1,26.6,10.1,36.7,0
				C442.5,427.1,442.5,410.6,432.4,400.5z M317.9,322.7c-27.5,27.5-72.2,27.5-99.7,0c-27.5-27.5-27.5-72.2,0-99.7
				c27.5-27.5,72.2-27.5,99.7,0C345.4,250.5,345.4,295.2,317.9,322.7z"/>
		</g>
	</g>
</g>
</svg>
