<?xml version="1.0" encoding="iso-8859-1"?>
<!-- Generator: Adobe Illustrator 18.0.0, SVG Export Plug-In . SVG Version: 6.00 Build 0)  -->
<!DOCTYPE svg PUBLIC "-//W3C//DTD SVG 1.1//EN" "http://www.w3.org/Graphics/SVG/1.1/DTD/svg11.dtd">
<svg version="1.1" id="Capa_1" xmlns="http://www.w3.org/2000/svg" xmlns:xlink="http://www.w3.org/1999/xlink" x="0px" y="0px"
	 viewBox="0 0 297 297" style="enable-background:new 0 0 297 297;" xml:space="preserve">
<path d="M297,38.605c0-5.773-4.683-10.457-10.458-10.457h-86.276c-9.254,0-23.236,0-35.606,4.049
	c-6.542,2.141-11.955,5.258-16.159,9.217c-4.204-3.959-9.617-7.076-16.159-9.217c-12.37-4.049-26.354-4.049-35.606-4.049H10.458
	C4.683,28.148,0,32.832,0,38.605V245.67c0,5.775,4.683,10.457,10.458,10.457h86.276c7.266,0,18.245,0,27.512,1.469
	c11.85,1.877,13.716,4.984,13.728,5.016c1.672,3.793,5.425,6.24,9.569,6.24h1.912c4.145,0,7.897-2.447,9.569-6.24
	c0.013-0.031,1.879-3.139,13.729-5.016c9.266-1.469,20.245-1.469,27.512-1.469h86.276c5.775,0,10.458-4.682,10.458-10.457V38.605z
	 M200.266,49.064h75.819v151.637h-75.819c-9.254,0-23.236,0-35.606,4.049c-2.008,0.656-3.908,1.404-5.701,2.24V66.842
	C158.958,53.883,170.153,49.064,200.266,49.064z M20.915,49.064h30.851v58.563c0,5.775,4.683,10.459,10.458,10.459
	s10.458-4.684,10.458-10.459V49.064h24.053c30.111,0,41.308,4.818,41.308,17.777V206.99c-1.793-0.836-3.693-1.584-5.701-2.24
	c-12.37-4.049-26.354-4.049-35.606-4.049H20.915V49.064z M96.734,235.213H20.915v-13.596h75.819
	c30.109,0,41.306,4.816,41.308,17.775C124.958,235.23,108.47,235.213,96.734,235.213z M200.266,235.213
	c-11.735,0-28.224,0.018-41.308,4.18c0.002-12.959,11.198-17.775,41.308-17.775h75.819v13.596H200.266z"/>
<g>
</g>
<g>
</g>
<g>
</g>
<g>
</g>
<g>
</g>
<g>
</g>
<g>
</g>
<g>
</g>
<g>
</g>
<g>
</g>
<g>
</g>
<g>
</g>
<g>
</g>
<g>
</g>
<g>
</g>
</svg>
