<?xml version="1.0" encoding="utf-8"?>
<!-- Generator: Adobe Illustrator 24.0.2, SVG Export Plug-In . SVG Version: 6.00 Build 0)  -->
<svg version="1.1" id="Capa_1" xmlns="http://www.w3.org/2000/svg" xmlns:xlink="http://www.w3.org/1999/xlink" x="0px" y="0px"
	 viewBox="0 0 297 297" style="enable-background:new 0 0 297 297;" xml:space="preserve">
<style type="text/css">
	.st0{fill:#FFFFFF;}
</style>
<path class="st0" d="M297,38.6c0-5.8-4.7-10.5-10.5-10.5h-86.3c-9.3,0-23.2,0-35.6,4c-6.5,2.1-12,5.3-16.2,9.2
	c-4.2-4-9.6-7.1-16.2-9.2c-12.4-4-26.4-4-35.6-4H10.5C4.7,28.1,0,32.8,0,38.6v207.1c0,5.8,4.7,10.5,10.5,10.5h86.3
	c7.3,0,18.2,0,27.5,1.5c11.9,1.9,13.7,5,13.7,5c1.7,3.8,5.4,6.2,9.6,6.2h1.9c4.1,0,7.9-2.4,9.6-6.2c0,0,1.9-3.1,13.7-5
	c9.3-1.5,20.2-1.5,27.5-1.5h86.3c5.8,0,10.5-4.7,10.5-10.5L297,38.6L297,38.6z M200.3,49.1h75.8v151.6h-75.8c-9.3,0-23.2,0-35.6,4
	c-2,0.7-3.9,1.4-5.7,2.2V66.8C159,53.9,170.2,49.1,200.3,49.1z M20.9,49.1h30.9v58.6c0,5.8,4.7,10.5,10.5,10.5s10.5-4.7,10.5-10.5
	V49.1h24.1c30.1,0,41.3,4.8,41.3,17.8V207c-1.8-0.8-3.7-1.6-5.7-2.2c-12.4-4-26.4-4-35.6-4H20.9V49.1z M96.7,235.2H20.9v-13.6h75.8
	c30.1,0,41.3,4.8,41.3,17.8C125,235.2,108.5,235.2,96.7,235.2z M200.3,235.2c-11.7,0-28.2,0-41.3,4.2c0-13,11.2-17.8,41.3-17.8h75.8
	v13.6L200.3,235.2L200.3,235.2z"/>
</svg>
