<?xml version="1.0" encoding="utf-8"?>
<!-- Generator: Adobe Illustrator 24.0.2, SVG Export Plug-In . SVG Version: 6.00 Build 0)  -->
<svg version="1.1" id="Capa_1" xmlns="http://www.w3.org/2000/svg" xmlns:xlink="http://www.w3.org/1999/xlink" x="0px" y="0px"
	 viewBox="0 0 490 490" style="enable-background:new 0 0 490 490;" xml:space="preserve">
<style type="text/css">
	.st0{fill:#FFFFFF;}
</style>
<g>
	<g>
		<path class="st0" d="M446.5,174.4c-27.3-20.9-63.3-32.4-101.6-32.4c-23.1,0-45.5,4.2-65.6,12.2c-10-19.1-26.8-36-48.1-48.3
			c-25.1-14.5-54.9-22.2-86.2-22.2c-38.3,0-74.4,11.5-101.6,32.4C15.4,137.7,0,166.5,0,197.4c0,27.8,12.7,54.3,35.9,75l0.4,67.8
			c0,3.5,1.8,7,5,8.6c3.7,1.9,7.3,1.5,9.9,0.1l70.3-39.2c7.8,1,15.7,1.5,23.6,1.5c0,0,0,0,0,0c22.9,0,45.3-4.2,65.5-12.2
			c7.4,14.1,18.4,27,32.7,38c27.3,20.9,63.3,32.4,101.6,32.4c7.9,0,15.9-0.5,23.7-1.5L439,405c4,2,7,1.5,9.8-0.3
			c2.9-1.9,4.8-5,4.9-8.5l0.4-65.5c23.2-20.7,35.9-47.2,35.9-75C490,224.8,474.6,196,446.5,174.4z M145.1,291.1
			C145.1,291.1,145.1,291.1,145.1,291.1c-8.1,0-16.3-0.6-24.3-1.8c-2.9-0.4-5.6,0.4-7.7,2.1l-56.8,31.7L55.9,268c0-0.2,0-0.4,0-0.6
			c-0.1-2.8-1.4-5.4-3.6-7.2C31.5,242.8,20,220.6,20,197.4c0-51.7,56.1-93.7,125.1-93.7c51.1,0,97.3,23.9,116.2,59
			c-6.3,3.5-12.3,7.4-18,11.7c-28,21.5-43.5,50.4-43.5,81.3c0,8.4,1.2,16.7,3.4,24.7C185.3,287.4,165.4,291.1,145.1,291.1z
			 M437.7,318.4c-2.2,1.8-3.5,4.4-3.6,7.2c0,0.2,0,0.4,0,0.5l-0.3,53.4l-57-30.1c-2.1-1.6-4.8-2.4-7.5-1.9c-8,1.2-16.2,1.8-24.3,1.8
			c-56.5,0-104.3-28.2-119.8-66.8c-0.1-0.2-0.1-0.4-0.2-0.6c-3.3-8.4-5.1-17.2-5.1-26.4c0-33.2,23.2-62.5,58.2-79.1c0,0,0.1,0,0.1,0
			c0.4-0.2,0.8-0.3,1.1-0.5c19.1-8.9,41.6-14,65.7-14c69,0,125.1,42,125.1,93.7C470,278.9,458.5,301.1,437.7,318.4z"/>
		<path class="st0" d="M403.6,222.2H286.2c-5.5,0-10,4.5-10,10s4.5,10,10,10h117.5c5.5,0,10-4.5,10-10
			C413.6,226.7,409.2,222.2,403.6,222.2z"/>
		<path class="st0" d="M403.6,267.5H286.2c-5.5,0-10,4.5-10,10s4.5,10,10,10h117.5c5.5,0,10-4.5,10-10
			C413.6,271.9,409.2,267.5,403.6,267.5z"/>
	</g>
	<g>
		<path class="st0" d="M446.5,174.4c-27.3-20.9-63.3-32.4-101.6-32.4c-23.1,0-45.5,4.2-65.6,12.2c-10-19.1-26.8-36-48.1-48.3
			c-25.1-14.5-54.9-22.2-86.2-22.2c-38.3,0-74.4,11.5-101.6,32.4C15.4,137.7,0,166.5,0,197.4c0,27.8,12.7,54.3,35.9,75l0.4,67.8
			c0,3.5,1.8,7,5,8.6c3.7,1.9,7.3,1.5,9.9,0.1l70.3-39.2c7.8,1,15.7,1.5,23.6,1.5c0,0,0,0,0,0c22.9,0,45.3-4.2,65.5-12.2
			c7.4,14.1,18.4,27,32.7,38c27.3,20.9,63.3,32.4,101.6,32.4c7.9,0,15.9-0.5,23.7-1.5L439,405c4,2,7,1.5,9.8-0.3
			c2.9-1.9,4.8-5,4.9-8.5l0.4-65.5c23.2-20.7,35.9-47.2,35.9-75C490,224.8,474.6,196,446.5,174.4z M145.1,291.1
			C145.1,291.1,145.1,291.1,145.1,291.1c-8.1,0-16.3-0.6-24.3-1.8c-2.9-0.4-5.6,0.4-7.7,2.1l-56.8,31.7L55.9,268c0-0.2,0-0.4,0-0.6
			c-0.1-2.8-1.4-5.4-3.6-7.2C31.5,242.8,20,220.6,20,197.4c0-51.7,56.1-93.7,125.1-93.7c51.1,0,97.3,23.9,116.2,59
			c-6.3,3.5-12.3,7.4-18,11.7c-28,21.5-43.5,50.4-43.5,81.3c0,8.4,1.2,16.7,3.4,24.7C185.3,287.4,165.4,291.1,145.1,291.1z
			 M437.7,318.4c-2.2,1.8-3.5,4.4-3.6,7.2c0,0.2,0,0.4,0,0.5l-0.3,53.4l-57-30.1c-2.1-1.6-4.8-2.4-7.5-1.9c-8,1.2-16.2,1.8-24.3,1.8
			c-56.5,0-104.3-28.2-119.8-66.8c-0.1-0.2-0.1-0.4-0.2-0.6c-3.3-8.4-5.1-17.2-5.1-26.4c0-52.7,57-93.7,125.1-93.7
			S470,204,470,255.7C470,278.9,458.5,301.1,437.7,318.4z"/>
		<path class="st0" d="M403.6,222.2H286.2c-5.5,0-10,4.5-10,10s4.5,10,10,10h117.5c5.5,0,10-4.5,10-10
			C413.6,226.7,409.2,222.2,403.6,222.2z"/>
		<path class="st0" d="M403.6,267.5H286.2c-5.5,0-10,4.5-10,10s4.5,10,10,10h117.5c5.5,0,10-4.5,10-10
			C413.6,271.9,409.2,267.5,403.6,267.5z"/>
	</g>
</g>
</svg>
