<svg width="102" height="113" viewBox="0 0 102 113" fill="none" xmlns="http://www.w3.org/2000/svg">
<path d="M16.111 11.9925L12.2873 27.6576L85.3911 45.5016L89.2148 29.8365L16.111 11.9925ZM13.4385 0.274571L96.9856 20.6677C98.3705 21.0057 99.5644 21.8801 100.305 23.0984C101.045 24.3166 101.271 25.7791 100.933 27.164L94.5599 53.2724C94.2218 54.6573 93.3475 55.8512 92.1292 56.5914C90.9109 57.3317 89.4485 57.5576 88.0636 57.2196L4.5165 36.8264C3.13162 36.4884 1.93774 35.6141 1.19751 34.3958C0.457283 33.1775 0.231334 31.715 0.569371 30.3302L6.94223 4.22169C7.28026 2.83682 8.1546 1.64294 9.37288 0.902712C10.5912 0.162483 12.0536 -0.0634663 13.4385 0.274571ZM12.4107 49.819L43.7409 57.4664C45.1258 57.8044 46.3197 58.6788 47.0599 59.897C47.8001 61.1153 48.0261 62.5778 47.688 63.9627L43.8643 79.6277L49.086 80.9023L41.4386 112.232L20.5518 107.134L28.1992 75.804L33.4209 77.0786L35.9701 66.6352L4.63991 58.9878C3.25503 58.6497 2.06115 57.7754 1.32092 56.5571C0.580695 55.3388 0.354745 53.8764 0.692782 52.4915L3.24192 42.0481L13.6853 44.5973L12.4107 49.819ZM71.4641 73.8162L82.9495 66.8377L89.928 78.3231C91.3077 80.5944 91.9829 83.2239 91.8682 85.8789C91.7535 88.534 90.8542 91.0954 89.2838 93.2394C87.7135 95.3834 85.5427 97.0135 83.0459 97.9238C80.5492 98.8341 77.8385 98.9836 75.2568 98.3534C72.6751 97.7232 70.3382 96.3417 68.5416 94.3834C66.745 92.4252 65.5694 89.9782 65.1634 87.3518C64.7575 84.7255 65.1394 82.0377 66.2609 79.6284C67.3824 77.2191 69.1931 75.1965 71.4641 73.8162Z" fill="#FC6F21"/>
</svg>
