<svg width="74" height="76" viewBox="0 0 74 76" fill="none" xmlns="http://www.w3.org/2000/svg">
<path d="M54.5 66.4606L47.5394 59.5L43.75 63.2894L54.5 74.0394L73.3125 55.2269L69.5231 51.4375L54.5 66.4606Z" fill="white"/>
<path d="M30.3125 56.8125H35.6875V62.1875H30.3125V56.8125Z" fill="white"/>
<path d="M14.1875 56.8125H19.5625V62.1875H14.1875V56.8125Z" fill="white"/>
<path d="M46.4375 43.375H51.8125V48.75H46.4375V43.375Z" fill="white"/>
<path d="M30.3125 43.375H35.6875V48.75H30.3125V43.375Z" fill="white"/>
<path d="M14.1875 43.375H19.5625V48.75H14.1875V43.375Z" fill="white"/>
<path d="M46.4375 29.9375H51.8125V35.3125H46.4375V29.9375Z" fill="white"/>
<path d="M30.3125 29.9375H35.6875V35.3125H30.3125V29.9375Z" fill="white"/>
<path d="M14.1875 29.9375H19.5625V35.3125H14.1875V29.9375Z" fill="white"/>
<path d="M14.1875 13.8125H51.8125V21.875H14.1875V13.8125Z" fill="white"/>
<path d="M35.6875 75.625H6.13844C4.70977 75.6236 3.34003 75.0554 2.32981 74.0452C1.31959 73.035 0.751423 71.6652 0.75 70.2366V5.73925C0.751423 4.317 1.31704 2.95341 2.32272 1.94772C3.32841 0.94204 4.692 0.376423 6.11425 0.375H59.8857C61.308 0.376423 62.6716 0.94204 63.6773 1.94772C64.683 2.95341 65.2486 4.317 65.25 5.73925V43.375H59.875V5.75H6.125V70.25H35.6875V75.625Z" fill="white"/>
</svg>
