<svg width="106" height="60" viewBox="0 0 106 60" fill="none" xmlns="http://www.w3.org/2000/svg">
<path d="M1.3729 18.1752C1.53975 18.6678 1.82945 19.057 2.242 19.3428C2.65455 19.6286 3.12818 19.7908 3.66289 19.8293L22.5399 20.725L22.3814 38.9817L3.26898 40.4309C2.11813 40.5187 1.3397 41.0981 0.933704 42.1691C0.771622 42.6633 0.753448 43.1568 0.879177 43.6496C1.00491 44.1424 1.25369 44.5729 1.62552 44.9411L2.1213 45.4322C3.8152 47.1098 5.47762 48.6539 7.10856 50.0646C8.73949 51.4752 10.6691 52.9975 12.8973 54.6315C15.1255 56.2654 17.3931 57.5496 19.7002 58.4842C22.0073 59.4187 24.1681 59.8606 26.1825 59.8097L27.9094 59.8014C30.8285 59.7462 33.7032 59.0333 36.5337 57.6628C39.3641 56.2922 41.8121 54.4815 43.8777 52.2307C45.9432 49.9798 47.5244 47.4743 48.6212 44.7142L94.6897 44.06C97.7732 44.0039 100.41 42.8708 102.599 40.6604C104.788 38.4501 105.895 35.803 105.922 32.7191L105.956 27.1064C105.9 24.0229 104.788 21.4071 102.619 19.2589C100.45 17.1107 97.8231 16.0235 94.7392 15.9973L48.3615 16.468C48.0695 15.606 47.726 14.7339 47.3312 13.8518C46.9363 12.9697 46.4902 12.1186 45.9928 11.2987C45.4955 10.4788 44.9571 9.67958 44.3777 8.90115C43.7983 8.12273 43.1987 7.42663 42.579 6.81287C38.4062 2.6802 33.2568 0.649215 27.1307 0.719919L25.4658 0.789634C23.6976 0.757059 21.7978 1.14657 19.7664 1.95816C17.735 2.76975 15.9815 3.6314 14.5056 4.5431C13.0298 5.45481 11.3194 6.74798 9.37446 8.42261C7.42949 10.0972 6.06819 11.3065 5.29056 12.0504C4.51293 12.7942 3.40806 13.8892 1.97594 15.3352C1.23983 16.1611 1.03881 17.1077 1.3729 18.1752ZM25.5534 6.15499L27.1563 6.0239C28.6365 6.01675 30.0662 6.20515 31.4455 6.5891C32.8247 6.97305 34.1123 7.51163 35.308 8.20485C36.5037 8.89806 37.6181 9.75614 38.6509 10.7791C39.4359 11.5565 40.201 12.478 40.9463 13.5434C41.6915 14.6088 42.2719 15.5928 42.6874 16.4954C43.395 18.26 43.7946 20.1289 43.8864 22.1021L94.7047 21.61C96.2671 21.6024 97.5957 22.1408 98.6905 23.2251C99.7854 24.3094 100.337 25.6328 100.344 27.1952L100.31 32.8079C100.314 33.7946 100.072 34.7209 99.5829 35.5868C99.0936 36.4526 98.4083 37.1446 97.5268 37.6628C96.6452 38.181 95.7111 38.4425 94.7243 38.4473L44.7706 39.182C44.4099 41.1162 43.6994 42.9905 42.6391 44.8047C41.5781 46.4545 40.3211 47.9922 38.8684 49.4178C37.4156 50.8433 35.7047 52.0337 33.7357 52.9889C31.7667 53.9441 29.8161 54.4469 27.8838 54.4974L26.1569 54.5057C23.8957 54.5578 21.2701 53.635 18.2799 51.7375C15.2898 49.84 12.4114 47.685 9.64495 45.2725L25.1815 44.0873C25.8803 44.0428 26.475 43.7521 26.9659 43.2152C27.4567 42.6783 27.7005 42.0809 27.6973 41.4231L27.894 18.2938C27.8904 17.5537 27.651 16.9278 27.1756 16.4161C26.7003 15.9045 26.1131 15.6298 25.4139 15.592L10.0532 14.8644C16.5221 9.15903 21.6888 6.25589 25.5534 6.15499Z" fill="white"/>
</svg>
