<svg width="23" height="23" viewBox="0 0 23 23" fill="none" xmlns="http://www.w3.org/2000/svg">
<path d="M22.8011 21.7646L15.9232 14.7344C17.2943 13.0723 17.9799 11.1556 17.9799 8.98438C17.9799 7.35221 17.5855 5.84733 16.7967 4.46973C16.008 3.09212 14.9317 2.00277 13.5679 1.20166C12.2041 0.400553 10.7224 0 9.12269 0C7.52302 0 6.04497 0.400553 4.68856 1.20166C3.33215 2.00277 2.25955 3.09212 1.47077 4.46973C0.681989 5.84733 0.287598 7.35221 0.287598 8.98438C0.287598 10.6165 0.681989 12.1214 1.47077 13.499C2.25955 14.8766 3.33215 15.966 4.68856 16.7671C6.04497 17.5682 7.5267 17.9688 9.13375 17.9688C11.3305 17.9688 13.262 17.235 14.928 15.7676L21.7838 22.7754C21.9312 22.9251 22.1007 23 22.2924 23C22.4841 23 22.6499 22.9289 22.79 22.7866C22.9301 22.6444 23.0001 22.4722 23.0001 22.27C23.0001 22.0679 22.9338 21.8994 22.8011 21.7646ZM9.13375 16.5537C7.77734 16.5537 6.52782 16.2131 5.38519 15.5317C4.24257 14.8504 3.33952 13.9295 2.67606 12.769C2.0126 11.6086 1.68087 10.347 1.68087 8.98438C1.68087 7.62174 2.0126 6.36019 2.67606 5.19971C3.33952 4.03923 4.24257 3.11833 5.38519 2.43701C6.52782 1.7557 7.77366 1.41504 9.12269 1.41504C10.4717 1.41504 11.7176 1.7557 12.8602 2.43701C14.0028 3.11833 14.9059 4.03923 15.5693 5.19971C16.2328 6.36019 16.5645 7.62174 16.5645 8.98438C16.5645 9.56836 16.4982 10.1449 16.3655 10.7139C16.2328 11.2829 16.0448 11.8145 15.8015 12.3086C15.5583 12.8027 15.2671 13.2707 14.928 13.7124C14.5889 14.1541 14.2055 14.5472 13.778 14.8916C13.3504 15.236 12.8934 15.5317 12.4068 15.7788C11.9203 16.0259 11.3969 16.2168 10.8366 16.3516C10.2764 16.4863 9.70875 16.5537 9.13375 16.5537Z" fill="#FC6F21"/>
</svg>
