<svg width="254" height="193" viewBox="0 0 254 193" fill="none" xmlns="http://www.w3.org/2000/svg">
<path d="M34.0566 13.7642C33.7935 15.0477 33.929 16.2624 34.4632 17.4084C34.9973 18.5544 35.8214 19.5091 36.9356 20.2724L76.8582 46.2092L53.313 85.7193L9.89858 64.5837C7.28371 63.3122 4.85421 63.5833 2.61008 65.397C1.62952 66.2659 0.96286 67.3163 0.610107 68.548C0.257354 69.7797 0.251389 71.0323 0.592211 72.3058L1.04664 74.0039C2.59927 79.8056 4.25305 85.2769 6.00797 90.4179C7.76289 95.5589 10.0255 101.322 12.7959 107.708C15.5663 114.094 18.8668 119.769 22.6975 124.733C26.5281 129.698 30.6667 133.405 35.1132 135.854L38.88 138.031C45.2996 141.62 52.4586 143.723 60.357 144.338C68.2554 144.954 75.8812 144.126 83.2345 141.855C90.5877 139.584 97.211 136.144 103.104 131.534L204.143 188.654C210.921 192.45 218.095 193.336 225.666 191.31C233.236 189.284 239.01 184.933 242.986 178.259L250.193 166.094C253.99 159.316 254.894 152.212 252.906 144.783C250.918 137.354 246.587 131.652 239.912 127.676L138.434 69.7632C138.895 67.5171 139.256 65.1837 139.518 62.7632C139.78 60.3426 139.891 57.9246 139.851 55.509C139.811 53.0935 139.656 50.671 139.385 48.2415C139.114 45.812 138.694 43.5359 138.126 41.4133C134.301 27.1214 125.681 16.1598 112.266 8.52862L108.556 6.56453C104.751 4.24668 100.124 2.67971 94.674 1.86362C89.224 1.04753 84.3147 0.693324 79.9459 0.800995C75.5772 0.908667 70.2135 1.54799 63.8547 2.71896C57.496 3.88994 52.9982 4.79034 50.3614 5.42017C47.7247 6.04999 43.93 7.02762 38.9773 8.35303C36.3266 9.21405 34.6863 11.0178 34.0566 13.7642ZM101.928 18.3464L105.582 20.0982C108.81 21.9637 111.681 24.1904 114.193 26.7783C116.705 29.3662 118.821 32.1739 120.541 35.2013C122.261 38.2287 123.595 41.5112 124.541 45.0488C125.261 47.7374 125.754 50.714 126.021 53.9785C126.289 57.2431 126.3 60.1211 126.057 62.6123C125.354 67.3498 123.848 71.9228 121.54 76.3314L232.704 139.84C236.112 141.809 238.318 144.669 239.322 148.419C240.325 152.168 239.843 155.747 237.873 159.156L230.666 171.32C229.422 173.473 227.718 175.18 225.554 176.441C223.389 177.703 221.019 178.337 218.443 178.344C215.867 178.351 213.503 177.733 211.35 176.489L101.759 114.607C98.5163 118.356 94.5891 121.53 89.9772 124.129C85.5726 126.369 80.8846 128.116 75.9129 129.371C70.9413 130.626 65.7072 131.041 60.2104 130.616C54.7136 130.192 49.8316 128.807 45.5645 126.461L41.7977 124.285C36.8131 121.524 32.2744 116.181 28.1816 108.253C24.0889 100.326 20.5666 91.9808 17.6148 83.2175L52.9156 100.383C54.492 101.174 56.1552 101.298 57.9051 100.754C59.655 100.21 60.9445 99.22 61.7735 97.7851L91.5937 47.7248C92.5264 46.1104 92.801 44.4447 92.4173 42.7277C92.0336 41.0108 91.1053 39.667 89.6325 38.6964L57.1449 17.5935C78.4663 13.4039 93.3941 13.6549 101.928 18.3464Z" fill="#FC6F21"/>
</svg>
