<svg width="1011" height="712" viewBox="0 0 1011 712" fill="none" xmlns="http://www.w3.org/2000/svg">
<path fill-rule="evenodd" clip-rule="evenodd" d="M0 712.034L19.0667 602.166C38.1333 492.298 76.2667 273.99 114.4 149.853C152.533 27.1439 190.667 0.0336914 228.8 0.0336914C266.933 0.0336914 305.067 27.1439 343.2 41.4124C381.333 54.2541 419.467 54.2541 457.6 68.5227C495.733 81.3643 533.867 109.901 572 164.122C610.133 218.342 648.267 301.1 686.4 369.589C724.533 438.078 762.667 492.298 800.8 520.835C838.933 547.945 877.067 547.945 915.2 506.567C953.333 465.188 991.467 383.857 1029.6 396.699C1067.73 410.968 1105.87 520.835 1124.93 575.056L1144 629.276V712.034H1124.93C1105.87 712.034 1067.73 712.034 1029.6 712.034C991.467 712.034 953.333 712.034 915.2 712.034C877.067 712.034 838.933 712.034 800.8 712.034C762.667 712.034 724.533 712.034 686.4 712.034C648.267 712.034 610.133 712.034 572 712.034C533.867 712.034 495.733 712.034 457.6 712.034C419.467 712.034 381.333 712.034 343.2 712.034C305.067 712.034 266.933 712.034 228.8 712.034C190.667 712.034 152.533 712.034 114.4 712.034C76.2667 712.034 38.1333 712.034 19.0667 712.034H0Z" fill="url(#paint0_linear)" fill-opacity="0.3"/>
<defs>
<linearGradient id="paint0_linear" x1="572" y1="0.0336903" x2="548" y2="956" gradientUnits="userSpaceOnUse">
<stop stop-color="#FFBB0B"/>
<stop offset="1" stop-color="white" stop-opacity="0"/>
</linearGradient>
</defs>
</svg>
