<svg width="1875" height="187" viewBox="0 0 1875 187" fill="none" xmlns="http://www.w3.org/2000/svg">
<path fill-rule="evenodd" clip-rule="evenodd" d="M0 186.859L78.0016 173.341C156.003 160.288 312.994 133.717 468.997 142.574C625 151.431 781.003 195.717 937.994 182.198C1094 169.145 1250 98.2879 1406 89.4308C1562.99 80.5737 1719 133.717 1797 160.288L1875 186.859V0.859375H1797C1719 0.859375 1562.99 0.859375 1406 0.859375C1250 0.859375 1094 0.859375 937.994 0.859375C781.003 0.859375 625 0.859375 468.997 0.859375C312.994 0.859375 156.003 0.859375 78.0016 0.859375H0V186.859Z" fill="white"/>
</svg>
