<svg width="1857" height="385" viewBox="0 0 1857 385" fill="none" xmlns="http://www.w3.org/2000/svg">
<path fill-rule="evenodd" clip-rule="evenodd" d="M456.577 350.177C301.136 407.431 145.677 378.808 67.8868 363.728L67.8776 363.726L0 351.884V352.899L67.6965 364.71L67.7017 364.711C106.097 372.154 163.469 382.91 230.455 385H275.769C332.869 383.158 394.894 373.963 456.923 351.116L456.927 351.114C528.495 324.06 600.057 278.833 671.564 233.641C677.84 229.674 684.116 225.708 690.391 221.754C768.191 172.737 845.923 125.651 923.634 103.807C1001.33 82.721 1079.04 86.4815 1156.82 95.5278C1177.74 97.9615 1198.67 100.779 1219.61 103.596L1219.61 103.597C1276.47 111.249 1333.37 118.906 1390.25 118.906C1545.93 118.906 1701.59 61.5681 1779.39 31.4063L1779.39 31.405L1857 2.81857V0H1856.5V1.93707L1779.04 30.4696L1779.03 30.4726C1701.24 60.6334 1545.73 117.906 1390.25 117.906C1333.44 117.906 1276.64 110.262 1219.8 102.613L1219.8 102.612C1198.85 99.7926 1177.89 96.9727 1156.93 94.5344C1079.12 85.4842 1001.26 81.7044 923.369 102.843L923.365 102.844C845.492 124.734 767.642 171.901 689.859 220.908C683.587 224.859 677.316 228.822 671.046 232.785C599.518 277.99 528.044 323.16 456.577 350.177Z" fill="#FC6F21"/>
</svg>
