<svg width="1920" height="184" viewBox="0 0 1920 184" fill="none" xmlns="http://www.w3.org/2000/svg">
<path fill-rule="evenodd" clip-rule="evenodd" d="M0 131.494L53 100.903C107 69.8561 213 8.67494 320 13.2407C427 17.3499 533 87.6625 640 122.819C747 157.519 853 157.519 960 140.169C1067 122.819 1173 87.6625 1280 83.0968C1387 78.9876 1493 105.012 1600 96.3375C1707 87.6625 1813 43.8313 1867 21.9156L1920 0V184H1867C1813 184 1707 184 1600 184C1493 184 1387 184 1280 184C1173 184 1067 184 960 184C853 184 747 184 640 184C533 184 427 184 320 184C213 184 107 184 53 184H0V131.494Z" fill="white"/>
</svg>
