<svg width="1920" height="694" viewBox="0 0 1920 694" fill="none" xmlns="http://www.w3.org/2000/svg">
<path fill-rule="evenodd" clip-rule="evenodd" d="M1 1L54 35.8403C108 70.6806 214 139.16 321 151.174C428 161.986 534 116.333 641 161.986C748 208.84 854 347 961 392.653C1068 439.507 1174 392.653 1281 359.014C1388 324.174 1494 301.347 1601 312.16C1708 324.174 1814 369.826 1868 392.653L1921 416.681V693H1868C1814 693 1708 693 1601 693C1494 693 1388 693 1281 693C1174 693 1068 693 961 693C854 693 748 693 641 693C534 693 428 693 321 693C214 693 108 693 54 693H1V1Z" stroke="white" stroke-opacity="0.3"/>
</svg>
