<svg width="1863" height="117" viewBox="0 0 1863 117" fill="none" xmlns="http://www.w3.org/2000/svg">
<path fill-rule="evenodd" clip-rule="evenodd" d="M32 8.35943H0V116.859H32H190H380H570H760H950H1139H1329H1519H1709H1864V15.5212C1832 36.7393 1770.03 75.6874 1709 80.6928C1660.38 84.6804 1611.76 67.1252 1562.67 49.404C1548.16 44.1639 1533.61 38.9092 1519 34.1928C1456 13.5261 1393 3.19281 1329 0.745421C1266 -1.97394 1203 3.19281 1139 18.6928C1113.8 24.8928 1088.6 32.746 1063.4 40.5993C1025.6 52.3793 987.8 64.1594 950 70.3594C886 80.6928 823 75.5261 760 67.912C752.073 66.9354 744.162 65.9211 736.264 64.9085C680.395 57.7459 625.197 50.6695 570 57.5787C546.125 60.4191 522.389 65.7951 498.74 71.1513C458.996 80.1529 419.498 89.0987 380 85.8594C340.189 82.5945 299.979 66.9506 259.874 51.3476C236.514 42.2592 213.189 33.1848 190 26.5787C127 8.35943 63 8.35943 32 8.35943Z" fill="white"/>
</svg>
