<svg width="1858" height="547" viewBox="0 0 1858 547" fill="none" xmlns="http://www.w3.org/2000/svg">
<path fill-rule="evenodd" clip-rule="evenodd" d="M1858.5 547V341.359H1796.19C1733.41 341.359 1609.88 341.357 1485.38 294.392C1454.5 282.401 1423.56 267.473 1392.55 252.27C1389.72 250.883 1386.89 249.494 1384.06 248.104C1355.87 234.265 1327.63 220.401 1299.37 208.524C1237.17 182.387 1174.75 165.836 1112.29 180.373C1054.59 193.443 996.702 233.472 938.901 273.438C934.672 276.361 930.444 279.285 926.216 282.198C864.14 324.965 802.201 365.374 740.552 370.361C678.439 374.846 616.268 343.937 554.11 301.198C523.038 279.833 491.994 255.53 460.982 231.247L460.824 231.123C429.869 206.885 398.945 182.672 368.08 161.448C243.42 75.4014 119.746 37.3835 56.9504 18.381L0 0.873535V1.91974L56.6587 19.3375L56.6608 19.3381C119.439 38.3356 242.987 76.3177 367.512 162.271C398.352 183.478 429.257 207.677 460.222 231.922L460.365 232.034C491.373 256.314 522.441 280.636 553.543 302.022C615.73 344.781 678.15 375.871 740.628 371.358L740.633 371.358C802.595 366.345 864.758 325.754 926.784 283.021C930.97 280.137 935.156 277.243 939.341 274.349L939.421 274.294C997.279 234.291 1055.02 194.372 1112.52 181.347L1112.52 181.347C1174.66 166.883 1236.83 183.333 1298.98 209.445C1327.22 221.31 1355.43 235.162 1383.62 249.003C1386.45 250.392 1389.28 251.781 1392.11 253.168C1423.12 268.37 1454.1 283.317 1485.02 295.326L1485.03 295.327C1609.71 342.359 1733.39 342.359 1796.18 342.359H1857.5V547H1858.5Z" fill="white"/>
</svg>
