<svg width="1867" height="362" viewBox="0 0 1867 362" fill="none" xmlns="http://www.w3.org/2000/svg">
<path fill-rule="evenodd" clip-rule="evenodd" d="M1867 116.405L1822.27 135.918C1778.51 154.758 1689.05 193.784 1600.56 200.513C1511.1 206.569 1422.62 181 1333.15 200.513C1244.67 219.353 1156.18 283.948 1066.72 310.19C978.23 335.758 888.77 322.974 800.282 329.703C710.821 335.758 622.333 362 533.845 362C444.385 362 355.897 335.758 266.436 329.703C177.948 322.974 88.488 335.758 44.7302 342.487L0 348.543V0H44.7302C88.488 0 177.948 0 266.436 0C355.897 0 444.385 0 533.845 0C622.333 0 710.821 0 800.282 0C888.77 0 978.23 0 1066.72 0C1156.18 0 1244.67 0 1333.15 0C1422.62 0 1511.1 0 1600.56 0C1689.05 0 1778.51 0 1822.27 0H1867V116.405Z" fill="white"/>
</svg>
