<svg width="1857" height="571" viewBox="0 0 1857 571" fill="none" xmlns="http://www.w3.org/2000/svg">
<path fill-rule="evenodd" clip-rule="evenodd" d="M0 342.859H61.6066C124.191 342.859 247.404 342.859 371.596 295.859C494.809 247.859 619 152.859 743.191 181.859C866.404 209.859 990.596 361.859 1113.81 371.859C1238 380.859 1362.19 247.859 1485.4 162.859C1609.6 76.8594 1732.81 38.8594 1795.39 19.8594L1857 0.859375V570.859H1795.39C1732.81 570.859 1609.6 570.859 1485.4 570.859C1362.19 570.859 1238 570.859 1113.81 570.859C990.596 570.859 866.404 570.859 743.191 570.859C619 570.859 494.809 570.859 371.596 570.859C247.404 570.859 124.191 570.859 61.6066 570.859H0V342.859Z" fill="url(#paint0_linear)" fill-opacity="0.3"/>
<defs>
<linearGradient id="paint0_linear" x1="928.5" y1="0.859375" x2="928.5" y2="570.859" gradientUnits="userSpaceOnUse">
<stop stop-color="#FFBB0B"/>
<stop offset="1" stop-color="white" stop-opacity="0"/>
</linearGradient>
</defs>
</svg>
