<svg width="1875" height="355" viewBox="0 0 1875 355" fill="none" xmlns="http://www.w3.org/2000/svg">
<path fill-rule="evenodd" clip-rule="evenodd" d="M16.2181 168.859L62.5 160.466C125 149.132 250 125.868 375 97.2343C388.235 94.2025 401.471 91.1105 414.706 88.0186C526.471 61.9087 638.235 35.7988 750 45.9328C816.84 51.9933 883.681 71.1874 950.521 90.3814C1008.68 107.083 1066.84 123.784 1125 131.833C1250 149.132 1375 125.868 1500 97.2343C1625 68.6009 1750 34.5987 1812.5 17.2994L1875 0V168.859V221V354.859L1797 328.288C1719 301.717 1562.99 248.574 1406 257.431C1325.27 262.014 1244.54 283.203 1163.8 304.391C1088.53 324.145 1013.26 343.9 937.994 350.198C840.569 358.587 743.525 344.715 646.626 330.864C587.38 322.395 528.188 313.934 468.997 310.574C314.303 301.791 158.637 327.845 79.9815 341.009L78.0016 341.341L0 354.859V221V171.8V168.859H16.2181Z" fill="white"/>
</svg>
