<svg width="1920" height="332" viewBox="0 0 1920 332" fill="none" xmlns="http://www.w3.org/2000/svg">
<path fill-rule="evenodd" clip-rule="evenodd" d="M0 0L80 39L82.7275 40.2958L82.7276 40.2958C163.596 78.7198 321.798 153.888 480 144C564.878 139.226 649.756 109.968 734.634 80.7102C809.756 54.8155 884.878 28.9207 960 20C1059.05 7.61905 1158.1 25.1293 1257.14 42.6395C1318.1 53.415 1379.05 64.1905 1440 68C1600 77 1760 39 1840 20L1920 0V224V281.419H1884.96C1849.93 281.419 1778.85 281.419 1707.78 270.123C1675.99 265.2 1643.99 258.016 1611.98 250.827C1572.42 241.946 1532.84 233.058 1493.56 228.416C1435.51 221.557 1377.47 224.162 1319.43 226.768C1306.4 227.353 1293.37 227.938 1280.33 228.416C1242.93 229.94 1205.52 230.662 1168.11 231.385C1134.45 232.034 1100.78 232.684 1067.11 233.919C996.039 236.815 923.964 242.318 852.89 259.117C833.64 263.588 814.391 268.888 795.142 274.188C743.317 288.456 691.492 302.725 639.667 300.824C600.595 299.232 561.523 288.449 522.451 277.666C490.449 268.834 458.447 260.003 426.445 256.221C355.371 247.821 283.296 264.62 212.222 281.419C141.148 297.927 70.074 314.726 35.0375 323.125L0 331.01V224V0Z" fill="white"/>
</svg>
