<svg width="1856" height="149" viewBox="0 0 1856 149" fill="none" xmlns="http://www.w3.org/2000/svg">
<path fill-rule="evenodd" clip-rule="evenodd" d="M1857 12.2433L1799.33 8.37985C1720.62 2.52118 1563.16 -8.61492 1405.68 13.6562L1405.68 13.6564C1333.29 24.1629 1260.91 41.7276 1188.55 59.2858L1188.55 59.2863L1188.5 59.2992C1182.17 60.8354 1175.84 62.3716 1169.51 63.903C1090.8 82.9438 1012.12 101.244 933.448 109.735C854.778 117.934 776.1 116.47 697.397 112.956C676.216 112.01 655.032 110.915 633.846 109.82L633.84 109.82C576.319 106.847 518.782 103.874 461.25 103.874C303.796 103.874 146.35 126.141 67.6379 137.859L67.6347 137.86L0 147.425V148.435L67.7784 138.849L67.782 138.849C146.488 127.132 303.873 104.874 461.25 104.874C518.754 104.874 576.252 107.845 633.765 110.817C654.959 111.913 676.154 113.008 697.353 113.955C776.067 117.47 854.805 118.936 933.552 110.73L933.554 110.73C1012.3 102.231 1091.04 83.9151 1169.74 64.875C1176.09 63.3397 1182.44 61.7997 1188.78 60.2597C1261.15 42.6995 1333.48 25.1458 1405.82 14.6463C1563.18 -7.60819 1720.55 3.51851 1799.25 9.3771L1799.26 9.37736L1857 13.2455V12.2433Z" fill="#FC6F21"/>
</svg>
