<svg width="1919" height="442" viewBox="0 0 1919 442" fill="none" xmlns="http://www.w3.org/2000/svg">
<path fill-rule="evenodd" clip-rule="evenodd" d="M-1 39L63 48C127 58 255 77 383 135C511 192 639 288 767 298C895 308 1023 231 1151 154C1279 77 1407 0 1535 0C1663 0 1791 77 1855 116L1919 154V442H1855C1791 442 1663 442 1535 442C1407 442 1279 442 1151 442C1023 442 895 442 767 442C639 442 511 442 383 442C255 442 127 442 63 442H-1V39Z" fill="url(#paint0_linear)" fill-opacity="0.3"/>
<defs>
<linearGradient id="paint0_linear" x1="959" y1="0" x2="959" y2="442" gradientUnits="userSpaceOnUse">
<stop stop-color="#FFBB0B"/>
<stop offset="1" stop-color="white" stop-opacity="0"/>
</linearGradient>
</defs>
</svg>
