<svg width="1858" height="410" viewBox="0 0 1858 410" fill="none" xmlns="http://www.w3.org/2000/svg">
<path fill-rule="evenodd" clip-rule="evenodd" d="M1 242.371H63C125 242.371 249 242.371 372 195.371C496 149.371 620 56.371 744 19.371C868 -17.629 991 1.37103 1115 75.371C1239 149.371 1363 279.371 1487 316.371C1610 353.371 1734 298.371 1796 270.371L1858 242.371V409.371H1796C1734 409.371 1610 409.371 1487 409.371C1363 409.371 1239 409.371 1115 409.371C991 409.371 868 409.371 744 409.371C620 409.371 496 409.371 372 409.371C249 409.371 125 409.371 63 409.371H1V242.371Z" stroke="white" stroke-opacity="0.5"/>
</svg>
