<svg width="1857" height="131" viewBox="0 0 1857 131" fill="none" xmlns="http://www.w3.org/2000/svg">
<path fill-rule="evenodd" clip-rule="evenodd" d="M0 20.326L28.1364 38.9659C56.2727 57.0232 112.545 94.3028 168.818 98.9628C225.091 103.623 281.364 75.663 337.636 66.3431C393.909 57.0232 450.182 66.3431 506.455 75.663C562.727 84.9829 619 94.3028 675.273 94.3028C731.545 94.3028 787.818 84.9829 844.091 75.663C900.364 66.3431 956.636 57.0232 1012.91 52.3632C1069.18 48.2858 1125.45 48.2858 1181.73 48.2858C1238 48.2858 1294.27 48.2858 1350.55 34.3059C1406.82 20.326 1463.09 -7.0512 1519.36 1.68622C1575.64 11.0061 1631.91 57.0232 1688.18 80.323C1744.45 103.623 1800.73 103.623 1828.86 103.623H1857V131H1828.86C1800.73 131 1744.45 131 1688.18 131C1631.91 131 1575.64 131 1519.36 131C1463.09 131 1406.82 131 1350.55 131C1294.27 131 1238 131 1181.73 131C1125.45 131 1069.18 131 1012.91 131C956.636 131 900.364 131 844.091 131C787.818 131 731.545 131 675.273 131C619 131 562.727 131 506.455 131C450.182 131 393.909 131 337.636 131C281.364 131 225.091 131 168.818 131C112.545 131 56.2727 131 28.1364 131H0V20.326Z" fill="white"/>
</svg>
