<svg width="121" height="201" viewBox="0 0 121 201" fill="none" xmlns="http://www.w3.org/2000/svg">
<path d="M10.2084 100.5C7.54514 100.5 4.991 101.558 3.10782 103.441C1.22465 105.324 0.166687 107.878 0.166687 110.542V190.875C0.166687 193.538 1.22465 196.092 3.10782 197.976C4.991 199.859 7.54514 200.917 10.2084 200.917C12.8716 200.917 15.4257 199.859 17.3089 197.976C19.1921 196.092 20.25 193.538 20.25 190.875V110.542C20.25 107.878 19.1921 105.324 17.3089 103.441C15.4257 101.558 12.8716 100.5 10.2084 100.5ZM60.4167 0.0833588C57.7535 0.0833588 55.1993 1.14132 53.3162 3.02449C51.433 4.90767 50.375 7.46181 50.375 10.125V190.875C50.375 193.538 51.433 196.092 53.3162 197.976C55.1993 199.859 57.7535 200.917 60.4167 200.917C63.0799 200.917 65.634 199.859 67.5172 197.976C69.4004 196.092 70.4583 193.538 70.4583 190.875V10.125C70.4583 7.46181 69.4004 4.90767 67.5172 3.02449C65.634 1.14132 63.0799 0.0833588 60.4167 0.0833588ZM110.625 60.3334C107.962 60.3334 105.408 61.3913 103.524 63.2745C101.641 65.1577 100.583 67.7118 100.583 70.375V190.875C100.583 193.538 101.641 196.092 103.524 197.976C105.408 199.859 107.962 200.917 110.625 200.917C113.288 200.917 115.842 199.859 117.726 197.976C119.609 196.092 120.667 193.538 120.667 190.875V70.375C120.667 67.7118 119.609 65.1577 117.726 63.2745C115.842 61.3913 113.288 60.3334 110.625 60.3334Z" fill="#FF5722"/>
</svg>
