<svg width="161" height="209" viewBox="0 0 161 209" fill="none" xmlns="http://www.w3.org/2000/svg">
<path fill-rule="evenodd" clip-rule="evenodd" d="M16.6875 48.6875V192.125H64.5V208.062H16.6875C12.4619 208.058 8.41059 206.378 5.42265 203.39C2.4347 200.402 0.754219 196.351 0.75 192.125V16.8125C0.754219 12.5869 2.4347 8.53559 5.42265 5.54765C8.41059 2.5597 12.4619 0.879219 16.6875 0.875H112.312C116.538 0.879219 120.589 2.5597 123.577 5.54765C126.565 8.53559 128.246 12.5869 128.25 16.8125V88.5312H112.312V48.6875H16.6875ZM112.312 16.8125H16.6875V32.75H112.312V16.8125ZM148.857 156.951L160.125 168.219L120.281 208.062L80.4375 168.219L91.7053 156.951L112.312 177.558V112.438H128.25V177.558L148.857 156.951Z" fill="#033351"/>
</svg>
