<svg width="145" height="216" viewBox="0 0 145 216" fill="none" xmlns="http://www.w3.org/2000/svg">
<path d="M93.5895 165.458V154.724C93.5895 141.753 107.696 129.485 116.847 120.732C129.746 108.4 136.527 91.8338 136.527 72.4269C136.527 36.6457 108.023 8.02067 72.1208 8.02067C63.6562 7.99705 55.2705 9.64685 47.4457 12.8752C39.6209 16.1036 32.5114 20.8468 26.5261 26.8322C20.5407 32.8175 15.7974 39.927 12.5691 47.7518C9.34073 55.5766 7.69093 63.9623 7.71454 72.4269C7.71454 91.1405 14.7858 108.83 27.3942 120.732C36.4961 129.324 50.652 141.619 50.652 154.724V165.458" stroke="#FF5722" stroke-width="15" stroke-linecap="round" stroke-linejoin="round"/>
<path fill-rule="evenodd" clip-rule="evenodd" d="M50.308 208.395C50.308 204.253 53.6659 200.895 57.808 200.895H86.433C90.5752 200.895 93.933 204.253 93.933 208.395C93.933 212.538 90.5752 215.895 86.433 215.895H57.808C53.6659 215.895 50.308 212.538 50.308 208.395Z" fill="#FF5722"/>
<path fill-rule="evenodd" clip-rule="evenodd" d="M43.1518 186.927C43.1518 182.785 46.5097 179.427 50.6518 179.427H93.5893C97.7314 179.427 101.089 182.785 101.089 186.927C101.089 191.069 97.7314 194.427 93.5893 194.427H50.6518C46.5097 194.427 43.1518 191.069 43.1518 186.927Z" fill="#FF5722"/>
<path fill-rule="evenodd" clip-rule="evenodd" d="M72.1205 100.708C76.2627 100.708 79.6205 104.066 79.6205 108.208V165.458C79.6205 169.6 76.2627 172.958 72.1205 172.958C67.9784 172.958 64.6205 169.6 64.6205 165.458V108.208C64.6205 104.066 67.9784 100.708 72.1205 100.708Z" fill="#FF5722"/>
<path fill-rule="evenodd" clip-rule="evenodd" d="M59.5986 95.0324C59.5986 95.0324 59.5986 95.0324 59.5986 95.0324L59.5971 95.0313L59.5902 95.0261C56.2672 92.5627 51.5764 93.2552 49.1067 96.5754C46.6345 99.8989 47.3247 104.597 50.6482 107.069L55.1244 101.052C50.6482 107.069 50.6493 107.07 50.6505 107.071L50.6586 107.077L50.6727 107.088L50.7114 107.116C50.742 107.139 50.7819 107.168 50.8308 107.203C50.9286 107.274 51.0626 107.37 51.2298 107.488C51.5638 107.724 52.033 108.048 52.6135 108.431C53.7673 109.192 55.3967 110.209 57.3047 111.235C60.8053 113.118 66.4559 115.708 72.1205 115.708C77.7851 115.708 83.4357 113.118 86.9363 111.235C88.8444 110.209 90.4737 109.192 91.6276 108.431C92.208 108.048 92.6772 107.724 93.0112 107.488C93.1785 107.37 93.3125 107.274 93.4102 107.203C93.4592 107.168 93.4991 107.139 93.5296 107.116L93.5684 107.088L93.5881 107.073L93.5906 107.071C93.5917 107.07 93.5929 107.069 89.1166 101.052L93.5929 107.069C96.9164 104.597 97.6065 99.8989 95.1344 96.5754C92.6647 93.2552 87.9732 92.5631 84.6503 95.0266M59.5902 95.0261C59.5907 95.0265 59.5928 95.0281 59.5937 95.0288L59.6377 95.0608C59.6845 95.0948 59.7644 95.1523 59.8746 95.23C60.0956 95.3858 60.4356 95.621 60.8723 95.909C61.7528 96.4898 62.9896 97.2612 64.4087 98.0242C67.5623 99.72 70.4097 100.708 72.1205 100.708C73.8314 100.708 76.6788 99.72 79.8324 98.0242C81.2514 97.2612 82.4882 96.4898 83.3687 95.909C83.8054 95.621 84.1455 95.3858 84.3664 95.23C84.4766 95.1523 84.5565 95.0948 84.6033 95.0608L84.6473 95.0288L84.6443 95.031M59.5971 95.0313C59.5972 95.0314 59.5969 95.0311 59.5971 95.0313L59.5986 95.0324Z" fill="#FF5722"/>
</svg>
