<svg xmlns="http://www.w3.org/2000/svg" width="52.123px" height="60px" viewBox="0 0 52.123 60">
  <path id="alcho" d="M39.57,50.931v5.7A3.363,3.363,0,0,1,36.177,60h-23.4a3.363,3.363,0,0,1-3.393-3.364V25.052l3.393,2.9V52.82a2.691,2.691,0,0,0,2.636,2.616h18.03a2.713,2.713,0,0,0,2.734-2.616V47.961Zm-20-44.479H29.38v12.8h6.8a3.447,3.447,0,0,1,3.393,3.462V38.7L36.177,35.7V26.548a2.649,2.649,0,0,0-2.734-2.616H22.308l-5.38-4.672h2.646S19.574,6.452,19.574,6.452ZM.6,11.311h0a2.456,2.456,0,0,1,3.58-.1L51.266,51.679a2.481,2.481,0,0,1,.285,3.452h0a2.522,2.522,0,0,1-3.492.285L.885,14.774A2.4,2.4,0,0,1,.6,11.311ZM19.19,0H29.666A1.489,1.489,0,0,1,31.18,1.5V3.462a1.537,1.537,0,0,1-1.515,1.5H19.19a1.528,1.528,0,0,1-1.416-1.5V1.5A1.469,1.469,0,0,1,19.19,0Z" transform="translate(0.003)" fill="#262626" fill-rule="evenodd"/>
</svg>
