<svg id="diagnostics" xmlns="http://www.w3.org/2000/svg" width="32.571" height="38" viewBox="0 0 32.571 38">
  <path id="Path_1034" data-name="Path 1034" d="M44.054,29.448V23.9a3.9,3.9,0,0,0-3.9-3.9H40.1a3.9,3.9,0,0,0-3.9,3.9v7.921a4.592,4.592,0,0,1-4.587,4.587h-.109a4.592,4.592,0,0,1-4.587-4.587V21.562a9.2,9.2,0,0,0,8.4-9.158V4.98a2.554,2.554,0,1,0-1.589,0V12.4a7.612,7.612,0,0,1-7.6,7.6h-.17a7.612,7.612,0,0,1-7.6-7.6V4.98a2.554,2.554,0,1,0-1.589,0V12.4a9.2,9.2,0,0,0,8.568,9.171V31.824A6.183,6.183,0,0,0,31.505,38h.109a6.183,6.183,0,0,0,6.176-6.176V23.9A2.309,2.309,0,0,1,40.1,21.6h.063A2.309,2.309,0,0,1,42.466,23.9v5.545a4.313,4.313,0,1,0,1.589,0ZM34.522,1.589a.965.965,0,1,1-.965.965A.966.966,0,0,1,34.522,1.589Zm-16.965,0a.965.965,0,1,1-.965.965A.966.966,0,0,1,17.556,1.589Zm25.7,34.822a2.724,2.724,0,1,1,2.724-2.724A2.727,2.727,0,0,1,43.26,36.411Z" transform="translate(-15.003 0)" fill="#262626"/>
</svg>
