<svg xmlns="http://www.w3.org/2000/svg" width="60px" height="55.164px" viewBox="0 0 60 55.164">
  <path id="disorder" d="M57.648,39.425a7.986,7.986,0,1,1-13.577,4.732l-10.065-6.59c-.087.1-.271.281-.368.368a7.5,7.5,0,0,1-4.519,2.226L29.4,43.78a4.57,4.57,0,0,1,3.232,1.49,5.28,5.28,0,0,1,0,7.423,5.216,5.216,0,0,1-7.384,0A5.352,5.352,0,0,1,27,44.061l-.368-3.9a8.217,8.217,0,0,1-4.248-2.226l-6.735,6.774A8.2,8.2,0,0,1,13.7,52.78a8.017,8.017,0,1,1-1.2-12.348l7.945-5.661a8,8,0,0,1-.1-4.645l-6-2.971a3.009,3.009,0,0,1-4.152-.281,2.98,2.98,0,0,1,0-4.268,3.06,3.06,0,0,1,4.335,0,2.875,2.875,0,0,1,.919,2.323L21.271,27.9a7.512,7.512,0,0,1,1.1-1.3,8.155,8.155,0,0,1,2.865-1.858L23.39,15.928a6.956,6.956,0,0,1-4.7-2.323,7.99,7.99,0,0,1,0-11.323,8.044,8.044,0,0,1,11.265,0,7.99,7.99,0,0,1,0,11.323,6.831,6.831,0,0,1-2.3,1.674l1.1,9.01A8.518,8.518,0,0,1,33,25.954l1.848-1.481a5.657,5.657,0,0,1,.648-7.239,5.715,5.715,0,0,1,8.216,0,5.8,5.8,0,0,1-7.2,9l-1.848,1.577a8.2,8.2,0,0,1,1.1,6.223l10.616,5.381a7.9,7.9,0,0,1,11.265.01Z" transform="translate(0 0.018)" fill="#262626"/>
</svg>
