<svg xmlns="http://www.w3.org/2000/svg" width="15" height="10.688" viewBox="0 0 15 10.688">
  <g id="email" transform="translate(0 -33.085)">
    <g id="Group_112" data-name="Group 112" transform="translate(0 33.085)">
      <path id="Path_2132" data-name="Path 2132" d="M164.5,48.857c0-.017.012-.034.011-.051l-4.586,4.409,4.58,4.268c0-.03-.006-.061-.006-.092Z" transform="translate(-149.515 -47.78)" fill="#262626"/>
      <path id="Path_2133" data-name="Path 2133" d="M20.015,126.9l-1.868,1.8a.488.488,0,0,1-.672.005l-1.863-1.74-4.6,4.443a1.058,1.058,0,0,0,.358.072h12.88a1.058,1.058,0,0,0,.514-.142Z" transform="translate(-10.291 -120.795)" fill="#262626"/>
      <path id="Path_2134" data-name="Path 2134" d="M13.241,39.984l6.985-6.741a1.057,1.057,0,0,0-.54-.157H6.806a1.06,1.06,0,0,0-.676.252Z" transform="translate(-5.73 -33.085)" fill="#262626"/>
      <path id="Path_2135" data-name="Path 2135" d="M0,52.1v8.37a1.06,1.06,0,0,0,.046.277L4.6,56.372Z" transform="translate(0 -50.859)" fill="#262626"/>
    </g>
  </g>
</svg>
