<svg xmlns="http://www.w3.org/2000/svg" width="41" height="41.119" viewBox="0 0 41 41.119">
  <path id="Union_1" data-name="Union 1" d="M-20,40.119V32h1v7.12h7v1ZM19,40H12V39h7V32h1v8ZM-14.812,21.046a1.254,1.254,0,0,1,0-1.322C-10.905,13.453-5.639,10,0,10s10.905,3.453,14.811,9.724a1.254,1.254,0,0,1,0,1.322C10.9,27.316,5.639,30.769,0,30.769S-10.905,27.316-14.812,21.046Zm7.942-.661a6.712,6.712,0,0,0,6.6,6.8,6.711,6.711,0,0,0,6.6-6.8,6.711,6.711,0,0,0-6.6-6.8A6.712,6.712,0,0,0-6.871,20.385Zm2.372,0A4.345,4.345,0,0,1-.266,15.944a4.35,4.35,0,0,1,4.232,4.441,4.345,4.345,0,0,1-4.232,4.44A4.345,4.345,0,0,1-4.5,20.385ZM19,8V1H12V0h8V8ZM-20,8V0h8V1h-7V8Z" transform="translate(20.501 0.5)" fill="#262626" stroke="rgba(0,0,0,0)" stroke-miterlimit="10" stroke-width="1"/>
</svg>
