<?xml version="1.0" encoding="utf-8"?>
<!-- Generator: Adobe Illustrator 24.0.2, SVG Export Plug-In . SVG Version: 6.00 Build 0)  -->
<svg version="1.1" id="Capa_1" xmlns="http://www.w3.org/2000/svg" xmlns:xlink="http://www.w3.org/1999/xlink" x="0px" y="0px"
	 viewBox="0 0 296.9 296.9" style="enable-background:new 0 0 296.9 296.9;" xml:space="preserve">
<g>
	<path d="M148.5,107.8c-45.3,0-82.1,36.8-82.1,82.1s36.8,82.1,82.1,82.1s82.1-36.8,82.1-82.1S193.7,107.8,148.5,107.8z M148.5,257
		c-37,0-67.1-30.1-67.1-67.1s30.1-67.1,67.1-67.1s67.1,30.1,67.1,67.1S185.5,257,148.5,257z"/>
	<path d="M82.1,48.2c4.1,0,7.5-3.4,7.5-7.5V24.1c0-4.1-3.4-7.5-7.5-7.5s-7.5,3.4-7.5,7.5v16.6C74.6,44.8,78,48.2,82.1,48.2z"/>
	<path d="M248,116.1c-4.1,0-7.5,3.4-7.5,7.5v11.8c-8.6-14.5-20.6-26.8-34.8-35.8V67.3c0-4.1-3.4-7.5-7.5-7.5s-7.5,3.4-7.5,7.5v24.3
		c-13-5.6-27.3-8.7-42.3-8.7c-8.8,0-17.4,1.1-25.7,3.1V59.3c0-4.1-3.4-7.5-7.5-7.5s-7.5,3.4-7.5,7.5V91c-6.4,2.6-12.5,5.9-18.2,9.6
		V74.9c0-4.1-3.4-7.5-7.5-7.5s-7.5,3.4-7.5,7.5v37.6c-7,6.7-13.2,14.4-18.2,22.8V73.8c0-4.1-3.4-7.5-7.5-7.5s-7.5,3.4-7.5,7.5v116.1
		c0,59,48,107,107,107s107-48,107-107v-66.3C255.5,119.4,252.1,116.1,248,116.1z M148.5,281.9c-50.7,0-92-41.3-92-92s41.3-92,92-92
		s92,41.3,92,92S199.2,281.9,148.5,281.9z"/>
	<path d="M248,66.3c-4.1,0-7.5,3.4-7.5,7.5v16.6c0,4.1,3.4,7.5,7.5,7.5s7.5-3.4,7.5-7.5V73.8C255.5,69.7,252.1,66.3,248,66.3z"/>
	<path d="M198.2,46.4c4.1,0,7.5-3.4,7.5-7.5V22.3c0-4.1-3.4-7.5-7.5-7.5s-7.5,3.4-7.5,7.5v16.6C190.7,43,194.1,46.4,198.2,46.4z"/>
	<path d="M148.5,64.8c4.1,0,7.5-3.4,7.5-7.5V24.1c0-4.1-3.4-7.5-7.5-7.5s-7.5,3.4-7.5,7.5v33.2C141,61.4,144.3,64.8,148.5,64.8z"/>
	<path d="M115.3,31.6c4.1,0,7.5-3.4,7.5-7.5V7.5c0-4.1-3.4-7.5-7.5-7.5s-7.5,3.4-7.5,7.5v16.6C107.8,28.2,111.1,31.6,115.3,31.6z"/>
</g>
</svg>
