<svg xmlns="http://www.w3.org/2000/svg" width="60" height="54.192" viewBox="0 0 60 54.192">
  <path id="group" d="M59.67,15.154a18.322,18.322,0,0,0-5.177-10.1A16.436,16.436,0,0,0,43.044,0h-.1a14.877,14.877,0,0,0-8.313,2.477,17.132,17.132,0,0,0-4.616,4.045A18.608,18.608,0,0,0,25.49,2.477,15.183,15.183,0,0,0,17.08,0h-.1A16.618,16.618,0,0,0,5.535,5.051a19.075,19.075,0,0,0-5.264,10.1A23.792,23.792,0,0,0,2.119,28.383c3.416,8.08,11.642,16.993,26.786,25.161l1.113.648,1.016-.648c15.242-8.177,23.37-17.08,26.883-25.161A23.008,23.008,0,0,0,59.67,15.154ZM30.019,49.044C18.067,42.464,11.061,35.515,7.49,29.1l6.484.029,1.664-1.277,2.448-9.077,6.542,24.377,3.329.019,3.852-13.945,6.1.029,1.664-1.277L42.105,18.9l2.448,9.106,1.655,1.3,6.213.029C48.821,35.66,41.825,42.531,30.019,49.044Zm24.1-23.332H47.467l-3.7-13.964H40.354L36.57,25.712H30.377L28.712,27l-2.4,9.1L19.664,11.758H16.432L12.648,25.722H5.922A18.814,18.814,0,0,1,4.8,15.9,14.011,14.011,0,0,1,8.68,8.274,12.428,12.428,0,0,1,16.993,4.51h.1a11.579,11.579,0,0,1,6,1.742,14.917,14.917,0,0,1,4.993,5.322L30.019,14.7l1.848-3.126a15.692,15.692,0,0,1,5.081-5.322,11.276,11.276,0,0,1,6.01-1.742h.1a12.409,12.409,0,0,1,8.313,3.764A13.978,13.978,0,0,1,55.247,15.9,18.9,18.9,0,0,1,54.115,25.712Z" transform="translate(0.002)" fill="#262626"/>
</svg>
