<svg xmlns="http://www.w3.org/2000/svg" width="33.963" height="33.999" viewBox="0 0 33.963 33.999">
  <path id="ico" d="M1022,959H997l1-11,4.97-1.657v1.872l-3.093.985-.654,7.8h20.518l-.655-7.8-3.055-1.066v-1.814l.137-.077L1021,948l1,11Zm8.964-2.039H1025l-.144-1.589h4.223l-.443-5.284-2.057-.718v-1.822l3.649,1.327.735,8.085ZM1021.5,944a7.5,7.5,0,0,1-2.118-.3,13.483,13.483,0,0,0,1.335-1.682,5.658,5.658,0,0,0,.783.055,5.57,5.57,0,0,0,1.05-11.04,13.527,13.527,0,0,0-.714-2.022A7.5,7.5,0,0,1,1021.5,944Zm-12,0a9.5,9.5,0,1,1,9.5-9.5A9.511,9.511,0,0,1,1009.5,944Zm0-16.74a7.24,7.24,0,1,0,7.24,7.24A7.248,7.248,0,0,0,1009.5,927.26Z" transform="translate(-997 -925)" fill="#262626"/>
</svg>
