<svg xmlns="http://www.w3.org/2000/svg" width="11.045" height="15" viewBox="0 0 11.045 15">
  <g id="location" transform="translate(-12.883)">
    <g id="Group_113" data-name="Group 113" transform="translate(12.883)">
      <path id="Path_2136" data-name="Path 2136" d="M18.405,0a5.529,5.529,0,0,0-5.522,5.522,5.387,5.387,0,0,0,.483,2.254,34.819,34.819,0,0,0,4.806,7.117.308.308,0,0,0,.466,0,34.836,34.836,0,0,0,4.807-7.117,5.384,5.384,0,0,0,.483-2.254A5.529,5.529,0,0,0,18.405,0Zm0,8.391a2.869,2.869,0,1,1,2.869-2.869A2.872,2.872,0,0,1,18.405,8.391Z" transform="translate(-12.883)" fill="#262626"/>
    </g>
  </g>
</svg>
