<?xml version="1.0" encoding="iso-8859-1"?>
<!-- Generator: Adobe Illustrator 18.0.0, SVG Export Plug-In . SVG Version: 6.00 Build 0)  -->
<!DOCTYPE svg PUBLIC "-//W3C//DTD SVG 1.1//EN" "http://www.w3.org/Graphics/SVG/1.1/DTD/svg11.dtd">
<svg version="1.1" id="Capa_1" xmlns="http://www.w3.org/2000/svg" xmlns:xlink="http://www.w3.org/1999/xlink" x="0px" y="0px" width="50px" height="57px"
	 viewBox="0 0 297 297" style="enable-background:new 0 0 297 297;" xml:space="preserve">
<path d="M155.501,193.994v48.362c-16.375,1.032-31.658,0.782-40.601,0.244c-5.559-0.34-10.359,3.904-10.696,9.475
	c-0.337,5.57,3.905,10.359,9.475,10.696c2.405,0.146,9.766,0.535,19.851,0.535c6.415,0,13.935-0.161,21.971-0.639v14.124H114.29
	c-5.58,0-10.104,4.524-10.104,10.104c0,5.58,4.524,10.104,10.104,10.104h102.63c5.58,0,10.104-4.524,10.104-10.104
	c0-5.58-4.524-10.104-10.104-10.104h-41.21v-15.996c22.169-2.872,44.703-8.812,57.343-20.709
	c7.247-6.82,11.077-15.369,11.077-24.721c0-15.789-10.467-26.91-31.112-33.052c-10.549-3.139-23.376-5-37.308-6.484v-19.099
	c25.601-1.56,49.474-9.02,68.072-21.419c22.286-14.856,34.559-35.024,34.559-56.787c0-5.58-4.524-10.104-10.104-10.104H62.975
	c-5.58,0-10.104,4.524-10.104,10.104c0,21.763,12.273,41.931,34.559,56.787c18.598,12.399,42.47,19.859,68.072,21.419v17.167
	c-0.115-0.01-0.229-0.021-0.344-0.031c-68.09-6.139-116.288-14.116-116.288-61.133c0-56.481,48.859-70.886,68.348-74.385
	c5.495,9.551,17.924,16.07,32.731,16.07c20.054,0,35.762-11.951,35.762-27.209S160.001,0,139.948,0
	c-15.818,0-28.925,7.439-33.76,18.068c-8.749,1.431-24.041,4.917-39.425,13.141C44.819,42.941,18.66,66.608,18.66,112.734
	c0,30.856,15.97,52.889,47.468,65.487C91.664,188.434,126.59,191.388,155.501,193.994z M139.948,20.209
	c9.496,0,15.553,4.597,15.553,7.001s-6.057,7.001-15.553,7.001c-9.496,0-15.554-4.597-15.554-7.001S130.451,20.209,139.948,20.209z
	 M207.255,201.684c16.666,4.958,16.666,10.85,16.666,13.682c0,3.795-1.498,6.972-4.715,10.002
	c-8.473,7.98-25.345,12.534-43.497,15.019v-44.231C187.772,197.489,198.682,199.133,207.255,201.684z M74.507,88.629h182.196
	c-3.153,11.061-11.45,21.414-24.133,29.869c-17.743,11.828-41.524,18.343-66.965,18.343s-49.223-6.514-66.965-18.343
	C85.957,110.044,77.66,99.691,74.507,88.629z"/>
<g>
</g>
<g>
</g>
<g>
</g>
<g>
</g>
<g>
</g>
<g>
</g>
<g>
</g>
<g>
</g>
<g>
</g>
<g>
</g>
<g>
</g>
<g>
</g>
<g>
</g>
<g>
</g>
<g>
</g>
</svg>
