<?xml version="1.0" encoding="utf-8"?>
<!-- Generator: Adobe Illustrator 24.0.2, SVG Export Plug-In . SVG Version: 6.00 Build 0)  -->
<svg version="1.1" id="Layer_1" xmlns="http://www.w3.org/2000/svg" xmlns:xlink="http://www.w3.org/1999/xlink" x="0px" y="0px"
	 viewBox="0 0 60 54" style="enable-background:new 0 0 60 54;" xml:space="preserve">
<style type="text/css">
	.st0{fill:#010101;}
</style>
<g>
	<g>
		<path class="st0" d="M12.7,42c0.6,0,1-0.5,1-1V21.3c0-0.6-0.5-1-1-1H7.8c-0.6,0-1,0.5-1,1V41c0,0.6,0.5,1,1,1L12.7,42L12.7,42z"/>
		<path class="st0" d="M32.5,42c0.6,0,1-0.5,1-1V21.3c0-0.6-0.5-1-1-1h-4.9c-0.6,0-1,0.5-1,1V41c0,0.6,0.5,1,1,1L32.5,42L32.5,42z"
			/>
		<path class="st0" d="M52.2,42c0.6,0,1-0.5,1-1V21.3c0-0.6-0.5-1-1-1h-4.9c-0.6,0-1,0.5-1,1V41c0,0.6,0.5,1,1,1L52.2,42L52.2,42z"
			/>
		<path class="st0" d="M59.3,16.7l-28.9-16c-0.3-0.2-0.7-0.2-1,0l-29,16C0.1,17-0.1,17.4,0,17.9c0.1,0.4,0.5,0.8,1,0.8H59
			c0,0,0,0,0,0c0.6,0,1-0.5,1-1C60,17.2,59.7,16.8,59.3,16.7z M30,15.1c-2.2,0-4.1-1.8-4.1-4.1s1.8-4.1,4.1-4.1
			c2.2,0,4.1,1.8,4.1,4.1C34.1,13.3,32.2,15.1,30,15.1z"/>
		<path class="st0" d="M4.3,44.1v2.5c0,0.6,0.5,1,1,1h49.3c0.6,0,1-0.5,1-1v-2.5c0-0.6-0.5-1-1-1H5.3C4.8,43.1,4.3,43.5,4.3,44.1z"
			/>
		<path class="st0" d="M56.9,48.6H3.1c-0.6,0-1,0.5-1,1v2.5c0,0.6,0.5,1,1,1h53.8c0.6,0,1-0.5,1-1v-2.5C57.9,49,57.5,48.6,56.9,48.6
			z"/>
	</g>
</g>
</svg>
