<svg xmlns="http://www.w3.org/2000/svg" width="60px" height="51.276px" viewBox="0 0 60 51.276">
  <path id="nerves" d="M58.607,29.134H50.76L45.5,20.126a1.353,1.353,0,0,0-1.2-.639H33.778l-4.8-8.457,5.264-9.008A1.365,1.365,0,0,0,33.691.184a1.346,1.346,0,0,0-1.848.464l-5.264,9.1H16.894L11.63.648A1.345,1.345,0,0,0,9.318,2.022l5.167,9.008-5.167,9.1a1.227,1.227,0,0,0,0,1.374l5.167,9.008-4.8,8.36h-8.3A1.429,1.429,0,0,0,0,40.251a1.414,1.414,0,0,0,1.384,1.374H9.7l5.264,9.008a1.177,1.177,0,0,0,1.2.639H27.421a1.353,1.353,0,0,0,1.2-.639l5.167-9.008H44.306a1.431,1.431,0,0,0,1.2-.735l5.264-9.008h7.847A1.414,1.414,0,0,0,60,30.508,1.436,1.436,0,0,0,58.607,29.134ZM26.58,48.611H16.894L12,40.251l4.886-8.36h9.7l4.886,8.36Zm0-19.478H16.894l-4.886-8.36,4.886-8.36h9.7l4.886,8.36Z" transform="translate(0 0.003)" fill="#262626"/>
</svg>
