<svg xmlns="http://www.w3.org/2000/svg" width="15" height="15.001" viewBox="0 0 15 15.001">
  <g id="phone" transform="translate(-0.01)">
    <g id="Group_3" data-name="Group 3" transform="translate(0.01)">
      <path id="Path_3" data-name="Path 3" d="M14.978,11.623q-.064-.192-.81-.565-.2-.117-.575-.32t-.677-.373q-.3-.17-.57-.33Q12.3,10,12.081,9.849A2.994,2.994,0,0,0,11.7,9.62a.7.7,0,0,0-.3-.074.884.884,0,0,0-.532.3,5.187,5.187,0,0,0-.586.661,6.423,6.423,0,0,1-.564.66.812.812,0,0,1-.49.3.725.725,0,0,1-.24-.053c-.1-.035-.169-.066-.219-.09s-.135-.075-.255-.149-.188-.115-.2-.123A11.2,11.2,0,0,1,5.806,9.2,11.19,11.19,0,0,1,3.952,6.7q-.011-.021-.123-.2T3.68,6.243a2.309,2.309,0,0,1-.09-.218.721.721,0,0,1-.053-.24.812.812,0,0,1,.3-.49A6.416,6.416,0,0,1,4.5,4.73a5.185,5.185,0,0,0,.661-.586.884.884,0,0,0,.3-.533.7.7,0,0,0-.075-.3,2.962,2.962,0,0,0-.229-.378q-.155-.224-.187-.266-.16-.266-.33-.57t-.373-.677q-.2-.373-.32-.575Q3.579.1,3.387.032A.6.6,0,0,0,3.164,0a3.51,3.51,0,0,0-.751.107,4.219,4.219,0,0,0-.73.224A2.856,2.856,0,0,0,.553,1.63,4.13,4.13,0,0,0,.01,3.611a4.114,4.114,0,0,0,.037.559,4.6,4.6,0,0,0,.133.613q.1.341.154.506t.218.591q.16.426.192.522a9.65,9.65,0,0,0,.884,1.864,15.8,15.8,0,0,0,2.3,2.818,15.8,15.8,0,0,0,2.818,2.3,9.665,9.665,0,0,0,1.864.884q.1.032.522.192t.591.218q.165.059.506.155a4.637,4.637,0,0,0,.613.133,3.952,3.952,0,0,0,2.541-.506,2.854,2.854,0,0,0,1.3-1.13,4.2,4.2,0,0,0,.224-.73,3.5,3.5,0,0,0,.107-.751A.594.594,0,0,0,14.978,11.623Z" transform="translate(-0.01)" fill="#272727"/>
    </g>
  </g>
</svg>
