<svg xmlns="http://www.w3.org/2000/svg" width="59.62" height="83" viewBox="0 0 59.62 83">
  <g id="pointer" transform="translate(-0.385 -0.62)">
    <path id="Path_89" data-name="Path 89" d="M190.212,178.488a9.421,9.421,0,1,0-14.019,8.218l.2-6.249a4.633,4.633,0,0,1,4.634-4.631h.262a3.65,3.65,0,0,1,3.65,3.65v7.463A9.419,9.419,0,0,0,190.212,178.488Z" transform="translate(-150.597 -148.364)" fill="#d8d8d8"/>
    <path id="Path_90" data-name="Path 90" d="M104.641,229.36a3.649,3.649,0,0,0-3.65-3.65h-.262a4.633,4.633,0,0,0-4.634,4.631l-.2,6.249-.434,13.77c-.1.424-.155,10-.155,10-.81-.825-1.71-1.77-2.52-2.672a13.587,13.587,0,0,0-7.67-3.791,3.819,3.819,0,0,0-2.762.492,5.924,5.924,0,0,0-.574.5c-1.191,1.173-2.09,3.068-1.258,4.456a4.759,4.759,0,0,0,1.634,1.432,11.486,11.486,0,0,1,3.437,2.579c1.845,2.36,6.115,7.634,8.739,10.45.546.34,1.7,1.493,2.248,1.785a20.447,20.447,0,0,1,3.478,2.593,19.957,19.957,0,0,0,11.164,3.679c3.679,0,7.021.221,9.49-1.952h.132l.066-.165a12.2,12.2,0,0,0,4.074-9.016V253.873c0-.826-.182-3.6-2.51-4.427a4.125,4.125,0,0,0-3.079.142l-.211.01-.066,0a3.539,3.539,0,0,0-2.913-2.764,4.876,4.876,0,0,0-3.812.773,4,4,0,0,0-4.281-2.276,4.969,4.969,0,0,0-3.478,1.863V229.36Z" transform="translate(-70.302 -198.25)" fill="#e8e8e8"/>
    <path id="Path_91" data-name="Path 91" d="M51.215,45.764l1.87,2.081a.856.856,0,0,0,1.328-.058A29.792,29.792,0,0,0,30.194.62a30.757,30.757,0,0,0-3.4.19A29.8,29.8,0,0,0,5.973,47.788a.86.86,0,0,0,1.331.061L9.171,45.77a.852.852,0,0,0,.061-1.056,25.384,25.384,0,1,1,41.919-.006A.852.852,0,0,0,51.215,45.764Z" transform="translate(0)" fill="#e8e8e8"/>
    <path id="Path_92" data-name="Path 92" d="M130.52,124.118l1.979,2.2a.862.862,0,0,0,1.412-.191,17.67,17.67,0,0,0,1.908-8.019,17.94,17.94,0,1,0-35.879,0,17.694,17.694,0,0,0,1.905,8.019.863.863,0,0,0,1.413.191l1.977-2.2a.854.854,0,0,0,.148-.9,13.4,13.4,0,0,1-1.016-5.1,13.508,13.508,0,1,1,26.005,5.1A.86.86,0,0,0,130.52,124.118Z" transform="translate(-87.684 -87.68)" fill="#e8e8e8"/>
  </g>
</svg>
