<svg xmlns="http://www.w3.org/2000/svg" width="60.016" height="59.904" viewBox="0 0 60.016 59.904">
  <path id="ico" d="M1228.168,3727.083a7.176,7.176,0,0,0-.74,1.362,3.74,3.74,0,0,0,.2,3.513c1.189,1.881,2.991,5.529,1.635,8.8-.884,2.143-2.885,3.582-5.949,4.281a10.368,10.368,0,0,0-1.339.394,1.114,1.114,0,0,0-.089,2.051,19.664,19.664,0,0,1,3.023,1.767,6.971,6.971,0,0,1,3.546,1.006c2.785,1.722,3.987,5.3,3.578,10.641a2.723,2.723,0,0,1-2.717,2.511c-.072,0-.144,0-.215-.008a2.722,2.722,0,0,1-2.509-2.923c.034-.471.055-.908.063-1.315a.739.739,0,0,0-1.286-.507c-3.616,3.967-8.267,7.195-17.578,6.619-9.712-.6-15.732-7.953-14-14.063v-.006a1.1,1.1,0,0,0-.536-1.259,9.114,9.114,0,0,1,4.554-17.113c5.047.091,7.361,5.728,7.267,10.761a13.784,13.784,0,0,1-.128,1.64,1.144,1.144,0,0,0,1.637,1.189c.16-.079.325-.16.491-.247s.34-.164.517-.24c.613-1.679.906-3.372.372-4.364a2.728,2.728,0,0,1,4.8-2.589,8.378,8.378,0,0,1,.9,4.491,1.852,1.852,0,0,0,1.55,1.925c.487.079.976.175,1.462.285a1.076,1.076,0,0,0,1.144-.471c.844-1.332,2.483-2.28,4.884-2.827,2.152-.492,3.506-1.388,4.036-2.667.646-1.565.128-3.868-1.42-6.311a6.475,6.475,0,0,1-.43-5.961,9.558,9.558,0,0,1,1.074-1.965,30.056,30.056,0,1,0,2.205,1.6Z" transform="translate(-1179.492 -3720.578)" fill="#262626"/>
</svg>
