<svg xmlns="http://www.w3.org/2000/svg" width="32.999" height="34" viewBox="0 0 32.999 34">
  <path id="ico" d="M432,959v-2h8.39v-5.138A4.5,4.5,0,0,1,437,947.5c0-.141.006-.282.019-.417a11.369,11.369,0,0,0,1.991.635A2.483,2.483,0,0,0,441.5,950a2.514,2.514,0,0,0,2.489-2.281,11.535,11.535,0,0,0,1.992-.635c.014.167.019.3.019.416a4.5,4.5,0,0,1-3.39,4.361V957H451v2Zm-.02-22.511c0-.256.01-.508.03-.752V925h18.96V936.58h-.131a9.43,9.43,0,0,1-18.859-.09Zm1.99.382v.209h.013a7.51,7.51,0,0,0,14.973,0h.053V926.99H433.97v9.59h-.009C433.962,936.666,433.965,936.759,433.97,936.871Zm4.217,2.847a4.986,4.986,0,0,1-1.594-3.812V930.03h1.75v5.937a3.312,3.312,0,0,0,1.094,2.469,3.069,3.069,0,0,0,1.938.719v1.719S439.124,940.749,438.188,939.718ZM453,935.906v-1.938a4.031,4.031,0,0,0,1.938-1.156c1.252-1.279,1.064-3.818,1.062-3.843h-3V927h5v3.874a5.408,5.408,0,0,1-1.624,3.625,5.288,5.288,0,0,1-3.317,1.408Zm-23,0h-.058a5.288,5.288,0,0,1-3.316-1.408A5.384,5.384,0,0,1,425,930.874V927h5v1.969h-3c0,.024-.176,2.578,1.063,3.843A4.026,4.026,0,0,0,430,933.968v1.938h0Z" transform="translate(-425 -925)" fill="#262626"/>
</svg>
