<svg xmlns="http://www.w3.org/2000/svg" width="29.309" height="33" viewBox="0 0 29.309 33">
  <g id="scince" transform="translate(-1.845)">
    <g id="Group_57" data-name="Group 57">
      <path id="Path_1036" data-name="Path 1036" d="M27.016,16.5a23.744,23.744,0,0,0,1.7-1.793c2.225-2.629,2.963-4.922,2.077-6.457-.689-1.193-2.258-1.771-4.536-1.674a19.349,19.349,0,0,0-4.495.817,23.752,23.752,0,0,0-.7-2.366C19.889,1.785,18.272,0,16.5,0c-1.182,0-2.313.8-3.272,2.315a17.491,17.491,0,0,0-1.984,5.078,23.745,23.745,0,0,0-2.4-.573c-3.39-.612-5.744-.1-6.63,1.43s-.148,3.827,2.077,6.457a23.744,23.744,0,0,0,1.7,1.793,23.744,23.744,0,0,0-1.7,1.793c-2.225,2.629-2.963,4.922-2.077,6.457.591,1.023,1.85,1.6,3.641,1.676q.2.008.4.008a18.409,18.409,0,0,0,4.987-.829,23.736,23.736,0,0,0,.705,2.367C13.111,31.215,14.728,33,16.5,33s3.389-1.785,4.553-5.027a23.747,23.747,0,0,0,.7-2.366,19.349,19.349,0,0,0,4.495.817q.248.011.484.011c2.018,0,3.414-.578,4.053-1.684.886-1.534.148-3.827-2.077-6.457A23.788,23.788,0,0,0,27.016,16.5Zm2.861-7.723c.638,1.1-.08,3.018-1.969,5.25a22.807,22.807,0,0,1-1.667,1.758,36.956,36.956,0,0,0-3.615-2.821,36.948,36.948,0,0,0-.635-4.538C25.972,7.26,29.054,7.351,29.877,8.777ZM16.5,22.4c-.871-.427-1.747-.894-2.606-1.39s-1.706-1.024-2.507-1.561c-.065-.963-.1-1.95-.1-2.952s.035-1.987.1-2.953q1.2-.806,2.506-1.56c.86-.5,1.736-.963,2.607-1.39.866.425,1.737.889,2.6,1.39s1.706,1.024,2.507,1.561c.065.963.1,1.95.1,2.952s-.034,1.989-.1,2.952c-.8.538-1.639,1.06-2.507,1.561S17.369,21.978,16.5,22.4Zm-6.212-3.715A34.981,34.981,0,0,1,7.537,16.5a35.016,35.016,0,0,1,2.752-2.19q-.052,1.082-.054,2.19T10.288,18.689Zm12.424-4.377A34.981,34.981,0,0,1,25.463,16.5a35,35,0,0,1-2.751,2.189q.052-1.08.053-2.189T22.712,14.311ZM16.5,1.053c1.275,0,2.573,1.578,3.562,4.33a22.828,22.828,0,0,1,.689,2.324q-.957.317-1.958.716a.527.527,0,1,0,.391.978q.919-.367,1.8-.659a34.989,34.989,0,0,1,.519,3.473q-.909-.585-1.869-1.14a40.32,40.32,0,0,0-7.382-3.368C13.236,3.648,14.883,1.053,16.5,1.053ZM5.092,14.026C3.2,11.794,2.485,9.881,3.123,8.777s2.653-1.44,5.531-.92a29.242,29.242,0,0,1,6.636,2.169c-.644.331-1.287.682-1.922,1.048s-1.261.749-1.866,1.138c.068-.675.152-1.339.253-1.988a.527.527,0,0,0-1.041-.162c-.147.941-.258,1.91-.338,2.9a36.956,36.956,0,0,0-3.617,2.822A22.818,22.818,0,0,1,5.092,14.026Zm-1.969,10.2c-.638-1.1.08-3.018,1.969-5.25a22.807,22.807,0,0,1,1.667-1.758,36.956,36.956,0,0,0,3.615,2.821,36.95,36.95,0,0,0,.635,4.54C7,25.753,3.931,25.624,3.123,24.223Zm16.939,3.393c-.989,2.752-2.287,4.33-3.562,4.33s-2.573-1.578-3.562-4.33A29.244,29.244,0,0,1,11.5,20.785q.909.585,1.869,1.14c.634.366,1.277.716,1.921,1.048q-.929.418-1.85.774a.527.527,0,1,0,.38.982,41.941,41.941,0,0,0,5.815-2.8q.959-.554,1.869-1.14a35.005,35.005,0,0,1-.519,3.473q-.877-.292-1.8-.659a.527.527,0,1,0-.391.978q1,.4,1.958.716A22.835,22.835,0,0,1,20.062,27.617Zm9.815-3.393c-.823,1.426-3.9,1.516-7.886.351a36.951,36.951,0,0,0,.635-4.538,36.937,36.937,0,0,0,3.615-2.821,22.846,22.846,0,0,1,1.667,1.758C29.8,21.206,30.515,23.119,29.877,24.223Z" fill="#262626"/>
      <path id="Path_1037" data-name="Path 1037" d="M16.5,13.2a3.3,3.3,0,1,0,3.3,3.3A3.3,3.3,0,0,0,16.5,13.2Zm0,5.547A2.247,2.247,0,1,1,18.747,16.5,2.249,2.249,0,0,1,16.5,18.747Z" fill="#262626"/>
    </g>
  </g>
</svg>
