<svg xmlns="http://www.w3.org/2000/svg" width="30" height="34.659" viewBox="0 0 30 34.659">
  <g id="ico" transform="translate(-429 -1084.341)">
    <path id="Ellipse_16" data-name="Ellipse 16" d="M448,1119H436v-2h12v2Zm-6-4a16.886,16.886,0,0,1-12.02-4.98c-.333-.333-.656-.683-.96-1.041l1.425-1.425a15,15,0,1,0,20.426-21.643l1.256-1.57a17.282,17.282,0,0,1,1.894,1.638A17,17,0,0,1,442,1115Zm0-4a13,13,0,1,1,9.193-3.807A12.915,12.915,0,0,1,442,1111Zm0-24a11,11,0,1,0,11,11A11.012,11.012,0,0,0,442,1087Z" fill="#262626"/>
    <g id="Group_38" data-name="Group 38">
      <path id="Shape_14" data-name="Shape 14" d="M450,1095a13.735,13.735,0,0,1-2,6,15.265,15.265,0,0,1-4,4,9.478,9.478,0,0,0,1-4c.017-2.193-.342-2.91-2-3s-2.88-.684-2-2,3-4,3-4-3.756.123-5,1-1.322.916-2,0a1.894,1.894,0,0,1,0-2" fill="none" stroke="#262626" stroke-linecap="round" stroke-width="2"/>
      <path id="Shape_15" data-name="Shape 15" d="M435,1100s2.128.542,3,0,1.473.745,1,2-1,1-1,1" fill="none" stroke="#262626" stroke-linecap="round" stroke-width="2"/>
    </g>
  </g>
</svg>
