<svg id="study" xmlns="http://www.w3.org/2000/svg" width="33" height="33" viewBox="0 0 33 33">
  <path id="Path_1035" data-name="Path 1035" d="M32.328,26.349A.672.672,0,0,0,33,25.678V8.507A8.516,8.516,0,0,0,24.493,0h-.158A8.52,8.52,0,0,0,16.5,5.194,8.52,8.52,0,0,0,8.665,0H8.507A8.516,8.516,0,0,0,0,8.507V32.328A.672.672,0,0,0,.672,33H.686a.672.672,0,0,0,.671-.647,7.133,7.133,0,0,1,7.149-6.9h.158a7.133,7.133,0,0,1,7.149,6.9.672.672,0,0,0,.671.647h.029a.672.672,0,0,0,.671-.647,7.133,7.133,0,0,1,7.149-6.9h.158a7.133,7.133,0,0,1,7.149,6.9.672.672,0,0,0,.671.647h.015a.672.672,0,0,0,.65-.841,8.5,8.5,0,0,0-8.485-8.048h-.158A8.5,8.5,0,0,0,16.5,29.321,8.5,8.5,0,0,0,8.665,24.11H8.507A8.448,8.448,0,0,0,2.6,26.5a8.556,8.556,0,0,0-1.257,1.536V8.507A7.172,7.172,0,0,1,8.507,1.343h.158a7.172,7.172,0,0,1,7.164,7.164V23.551a.672.672,0,0,0,1.343,0V8.507a7.172,7.172,0,0,1,7.164-7.164h.158a7.172,7.172,0,0,1,7.164,7.164V25.678A.672.672,0,0,0,32.328,26.349Z" fill="#262626"/>
</svg>
