<svg id="time" xmlns="http://www.w3.org/2000/svg" width="15" height="15" viewBox="0 0 15 15">
  <g id="Group_2" data-name="Group 2">
    <g id="Group_1" data-name="Group 1">
      <path id="Path_1" data-name="Path 1" d="M7.5,0A7.5,7.5,0,1,0,15,7.5,7.508,7.508,0,0,0,7.5,0Zm0,13.361A5.861,5.861,0,1,1,13.361,7.5,5.867,5.867,0,0,1,7.5,13.361Z" fill="#262626"/>
      <path id="Path_2" data-name="Path 2" d="M258.314,142.18v-2.433c0-.272-.341-.492-.762-.492s-.762.22-.762.492v2.59c0,.008,0,.015,0,.023a.413.413,0,0,0,.22.372l2.84,1.832a1.08,1.08,0,0,0,1.078,0,.382.382,0,0,0,0-.7Z" transform="translate(-250.351 -134.779)" fill="#262626"/>
    </g>
  </g>
</svg>
