<svg id="tomography" xmlns="http://www.w3.org/2000/svg" width="43.279" height="60" viewBox="0 0 43.279 60">
  <path id="Path_1038" data-name="Path 1038" d="M32.036,7.328h9.256a2.051,2.051,0,0,0,1.987-1.967,1.992,1.992,0,0,0-1.987-1.977H32.036a1.992,1.992,0,0,0-1.987,1.977A2.058,2.058,0,0,0,32.036,7.328Z" fill="#262626" fill-rule="evenodd"/>
  <path id="Path_1039" data-name="Path 1039" d="M41.292,12.58H32.036a1.929,1.929,0,1,0,0,3.856h9.256a1.929,1.929,0,1,0,0-3.856Z" fill="#262626" fill-rule="evenodd"/>
  <path id="Path_1040" data-name="Path 1040" d="M41.292,21.6H32.036a2.077,2.077,0,0,0-1.987,2.066,2.051,2.051,0,0,0,1.987,1.967h9.256a2.017,2.017,0,0,0,0-4.033Z" fill="#262626" fill-rule="evenodd"/>
  <path id="Path_1041" data-name="Path 1041" d="M41.39,30.138H32.41a1.967,1.967,0,1,0,0,3.934h8.98a1.969,1.969,0,0,0,0-3.934Z" fill="#262626" fill-rule="evenodd"/>
  <path id="Path_1042" data-name="Path 1042" d="M25.8,11.085a11.1,11.1,0,0,0-22.21,0V35.872A14.2,14.2,0,0,0,0,45.443a14.7,14.7,0,0,0,29.39,0,14.221,14.221,0,0,0-3.59-9.58V11.085ZM14.646,56.056A10.68,10.68,0,0,1,6.9,38.026a1.921,1.921,0,0,0,.57-1.407V11.085a7.18,7.18,0,0,1,14.361,0V36.63a1.883,1.883,0,0,0,.57,1.407,10.608,10.608,0,0,1-7.751,18.02Z" fill="#262626" fill-rule="evenodd"/>
  <path id="Path_1043" data-name="Path 1043" d="M18.049,39.157,18.138,21.6a3.3,3.3,0,0,0-6.61,0l-.187,17.557a7.028,7.028,0,0,0-3.59,6.1,6.944,6.944,0,1,0,13.889,0A7.016,7.016,0,0,0,18.049,39.157Z" fill="#262626" fill-rule="evenodd"/>
</svg>
