<svg xmlns="http://www.w3.org/2000/svg" width="30" height="16.978" viewBox="0 0 30 16.978">
  <g id="vk" transform="translate(-0.002 -20.944)">
    <g id="Group_114" data-name="Group 114" transform="translate(0.002 20.944)">
      <path id="Path_2137" data-name="Path 2137" d="M28.759,34.7A40.629,40.629,0,0,0,25.82,31.74c-.9-.875-.954-1.383-.233-2.393.787-1.1,1.634-2.163,2.428-3.26a11.838,11.838,0,0,0,1.89-3.277c.247-.781.029-1.126-.773-1.263a2.474,2.474,0,0,0-.421-.025l-4.753-.006a1.062,1.062,0,0,0-1.116.765c-.28.7-.568,1.4-.9,2.079a17.086,17.086,0,0,1-2.782,4.274c-.261.277-.549.627-.985.483-.545-.2-.706-1.1-.7-1.4l0-5.486c-.106-.784-.279-1.133-1.058-1.286H11.477a1.571,1.571,0,0,0-1.342.667c-.2.238-.264.393.153.472a1.648,1.648,0,0,1,1.4,1.508,16.851,16.851,0,0,1,.07,3.949,3.672,3.672,0,0,1-.252,1.128A.665.665,0,0,1,10.379,29a4.585,4.585,0,0,1-1.1-1.2,26.53,26.53,0,0,1-2.9-5.374A1.256,1.256,0,0,0,5.2,21.534c-1.426-.023-2.853-.026-4.279,0-.858.016-1.114.433-.765,1.211A53.1,53.1,0,0,0,5.692,32.62,13.792,13.792,0,0,0,9.9,36.559,11.191,11.191,0,0,0,16.153,37.9c1.034-.049,1.345-.317,1.393-1.348a4.565,4.565,0,0,1,.46-2.04.913.913,0,0,1,1.454-.353,4.125,4.125,0,0,1,.787.7c.582.637,1.143,1.293,1.747,1.908A3.38,3.38,0,0,0,24.778,37.9h4.369c.7-.046,1.069-.909.665-1.695A8.412,8.412,0,0,0,28.759,34.7Z" transform="translate(-0.002 -20.944)" fill="#2280ce"/>
    </g>
  </g>
</svg>
